<mxfile host="app.diagrams.net" agent="Mozilla/5.0 (Macintosh; Intel Mac OS X 10_15_7) AppleWebKit/537.36 (KHTML, like Gecko) Chrome/126.0.0.0 Safari/537.36" version="24.7.4">
  <diagram name="第 1 页" id="wN7rNspfbXgtqlSw8YsW">
    <mxGraphModel dx="1306" dy="708" grid="0" gridSize="10" guides="0" tooltips="1" connect="1" arrows="1" fold="1" page="1" pageScale="1" pageWidth="827" pageHeight="1169" background="#000000" math="0" shadow="0">
      <root>
        <mxCell id="0" />
        <mxCell id="1" parent="0" />
        <mxCell id="QYsVIRX5wxjRWpy07N0j-3" style="edgeStyle=orthogonalEdgeStyle;rounded=0;orthogonalLoop=1;jettySize=auto;html=1;exitX=1;exitY=0.5;exitDx=0;exitDy=0;entryX=0;entryY=0.5;entryDx=0;entryDy=0;flowAnimation=1;strokeWidth=2;fillColor=#f8cecc;strokeColor=#b85450;shadow=1;" parent="1" source="QYsVIRX5wxjRWpy07N0j-1" target="ugtfvKyXgLZFdfxOpgOD-3" edge="1">
          <mxGeometry relative="1" as="geometry">
            <Array as="points" />
            <mxPoint x="459" y="250" as="targetPoint" />
          </mxGeometry>
        </mxCell>
        <mxCell id="QYsVIRX5wxjRWpy07N0j-1" value="" style="rounded=1;whiteSpace=wrap;html=1;fillColor=#ffe6cc;strokeColor=#d79b00;shadow=1;strokeWidth=1;gradientColor=none;gradientDirection=east;perimeterSpacing=6;glass=1;" parent="1" vertex="1">
          <mxGeometry x="189" y="220" width="90" height="60" as="geometry" />
        </mxCell>
        <mxCell id="ugtfvKyXgLZFdfxOpgOD-2" value="" style="shape=image;verticalLabelPosition=bottom;labelBackgroundColor=default;verticalAlign=top;aspect=fixed;imageAspect=0;image=data:image/png,iVBORw0KGgoAAAANSUhEUgAAAQAAAAEACAYAAABccqhmAAAAAXNSR0IArs4c6QAAIABJREFUeF7tnXmcHFW1x3+nerIAhh0h09WTbbo6JLJIkEQWCRASIV0d8BFQcQEXnooKiqCIPtHnCjyF99x5T/ApblEgXZ1gFiCsZkTcMCRdPQlJunoSNsOehJmu815NgiImTM903z63pm99PvNX33vO73xv9W+qqm/dSzCHIWAItCwBatnKTeGGgCEAYwDmJDAEWpiAMYAWHnxTuiFgDMCcA4ZACxMwBtDCg29KNwSMAZhzwBBoYQLGAFp48E3phoAxAHMOGAItTMAYQAsPvindEDAGYM4BQ6CFCRgDaOHBN6UbAsYAzDlgCLQwAWMALTz4pnRDwBiAOQcMgRYmYAyghQfflG4IiBhA2c0sIfBsg98QMAR2EGDQ0pRXnNNsHiIGELjOjQDe3exiTT5DQGMCP7Q9/7xm6xMxgLLrfIWATzW7WJPPENCVAANfTXn+5c3WJ2MA2fRHiei6Zhdr8hkCuhJg5otShdJ/NlufiAFsmpc5qxrygmYXa/IZAroSSFg0f+zC4i+brU/EACq5zHHMfG+zizX5DAFdCRDR8cl88b5m6xMxgEfnpif2WrS22cWafIaArgRGhDzp4EWldc3WJ2IA5fn2HrRtzxeaXazJZwjoSoBHv7BnakGwtdn6RAwgKjJwHW52sSafIaArAdvzRb6LIkl3GsAWAPvqOiBGlyHQRAJP2Z6/XxPz/S2VpAE8DOBQiaJNTkNAMwKrbc+fIqFJ0gBuB3CyRNEmpyGgGYE7bM8/RUKTmAGUs+kfE9G5EkWbnIaATgSY+aZUofQOCU1iBlDJZa5i5kslijY5DQGdCBDR1cl88TIJTWIGELjOxwB8XaJok9MQ0IzAx23P/4aEJjEDqOSctzLjpxJFm5yGgE4EiPC2ZN7/mYQmMQPY5HaeWIW1QqJok9MQ0IlAAuHMsV73XRKaxAwgOHOyg76wKFG0yWkIaEWgzcrYt6zxJTSJGcDaWRP3GbVH21MSRZuchoBOBLZv7dt30vJ1T0toEjOAqFgzHVhiyE1O3QhITQOOOEgbwLMAXqPbgBg9hkATCTxne/6YJub7h1TCBpD2AUpLFW/yGgLyBLhkeyVHSoeoAZRd5y4C3iRVvMlrCEgTYODulOefKKVD1AAqOeenzHirVPEmryEgTYAIP0vm/bdJ6RA1gMB1opmA0YxAcxgCrUrgG7bnf1yqeFEDqGTTlzLRVVLFm7yGgDQBYr4sWShdLaVD1ADKucw7iPlHUsWbvIaANAEmemcqX/yxlA5RAwiyzikgLJcq3uQ1BMQJMGbZBT9aG0PkEDWADfM6pyRCa5VI5SapIaABgaoVTh23sDtaHUvkEDWAHtc5MAQeF6ncJDUENCBgAQe1e/4TUlJEDSAq2kwHlhp6k1cHApLTgKP65Q0g62wFYbQOg2E0GAJNJcDYZhf8PZqa8xXJxA2g7DrrCJggCcHkNgQkCDDwSMrzJ0rkfimnuAFUXOdeBo6ThGByGwISBAi4L+n5x0vk1sYAglxmAZjPkoRgchsCIgSIfmnni/NFcu9MqsMVwH8y8BFJCCa3ISBBgID/Snr+RyVya3QF4FwOxpclIZjchoAIAcKn7bz/FZHculwBBG76PIBukIRgchsCMgT4fNsr3SiTe0dW8VuAjXMnz7Gs8NeSEExuQ0CCQBhab+5YtGaJRG59bgGyzhEg/FESgsltCIgQYBxpF/w/ieTW5RZgYy7TbjFXJCGY3IaABIGQKNmRL/ZI5NbmCuB3F0wbccimZ1+UhBDlZg5PktZg8jePAJF1Z/Oy7TrT5rFjRh79/Qd7JXWIPwOIig9cJ4LQJgkCbdaB9i1rnhTVYJI3hUB5/tT9aVuv9Fj32Z4/oikFv0oSTQwgswHgDkkYYZg4rGPR6r9IajC5m0Ngg9s5NQFLeKxpo+0VxzWn4t1n0cMAss5KEKZLwqgSzx6XLy2T1GByN4eAFgvRMLrsgj+jORVrbgAV17mFgTNEYTDebRf8/xXVYJI3hYAOS9ERcGvS889sSsHa3wJk098G0QclYRDRJ5P5olmgVHIQmpS74qY/wSCxhTj7y2T+jl0ofahJJe82jR63ALnMZ8H8BVkYfK3tlcwS5bKD0JTsPVnnmpBwSVOS7S4J0b/Z+eK/i2rQYSZgBKCcdd5HhOslYRDw86Tnm01KJAehSbnLbuYmAr+9Sel2mYYZ708V/P+W1BDl1uQKID0XTAVJGATcnRTcokmy9lbLHbhOtArvyaJ1E2ftfGmRqAZdDKAnlzk6ZH5AFobsJo2ytbdW9iDrPAzCoZJVW0RvaM8XfyepQZsrgJ7TDx0XJqrrhWGIbtMsXHtLpQ/c9F8B2k+yaKuaGN++ePUGSQ36GIA7bc8Qzz4vDUN6hVbp+lshP8+c2VYZ0yM6/TbibGHMXu3egy9IM9fiGUAEIXCdUPqWhF8ccUBqyaq/Sg+Kya+OwOO5TPt2+ZfP2PZ8S12VtUfWyQCiNwLba5fe+JZENDmZLxYbH9lE1IVAcEb6SFTpD8J6emzPTwpr6E+vjQFU3PTvGDRNEgojnJnyuu+S1GByqyXQk+2cHZIlvAgHP5j0SkerrbS26NoYQOA6HoBsbbLVtCLC25J5/2dqopuoOhAIXOedAKSnfBdsz3d14KGNAVSyzveZ8H5hKB+3Pf8bwhpMeoUENuacSyzGNQpTDBiaGNcnC/4FAzZsQgNtDKDsOp8n4N+aUPNuUzDR1al88TJJDSa3WgLlbPprRCQ6xgx8IeX5n1NbaW3RtTGAIJv+AIi+U5tsZa1+bHt+dIlojmFKIHCdaAXq80TLY/6gXSh9V1TDzuTaGMBGNzPPAt8qDOV22/NnCWsw6RUSCFwnmn57usIUA4YOQWd0eMWFAzZsQgNtDGD93MnHtlnhfU2oefe3AMDDKc+fKqnB5FZLoOw6DxAg+gS+L7SOG79ozf1qK60tujYGUM5OTBO1+bXJVtOKwVtSXml/NdFNVB0IBDmnDIYtqYW5z0kV1pUkNbyUWxsDeOSM8fuOqI7cIg3FTAeWHgF1+Z88rXPvrW0UvQeQUJdl4Mi9iRf3m3Dr+qcGbqm+hTYGEJUauA6rL3mADGZ1YPEhUCWgnJvUSZwQ/8+r0z8Z3QzgUQCvVXUC1BK3L+Qp4xeVVtfS1rSJF4HKvMnHcij7nAnAY7bnH6wLOd0MINoi7AhJOCHxiR350t0qNWhxpaOyQBP71Qj8yfb8I3VBpJUBlF3nNgLeLAnHAp/V7pV+pVJD4DriLz6prM/E3j0BBn6d8vzTdGGklQEEbuYHAJ8vCYcYH04W/G+p1KDDT1Eq6zOxX40A3WB7xffowkgzA3C+BODTsnDoS7ZX/IxKDUE2vRBEOZU5TGxtCXzZ9vwrdFGnlQGUs86HifBfknCI+QfJQum9KjUE2fR3QPQBlTlMbD0JMOMjqYL/TV3UaWUAQbbzLJC1QBjObbbnK50qujGX+awlvg+CMOVWTc/hfLvQ/UtdytfKAMpu54kEa4UoHMIf7bz/epUaKrnMe5j5f1TmMLH1JKDbojNaGcCmeZ1TqqG1SnjoHrU9/xCVGspZ53QiiK8Jr7JGE3vXBBJWOHXswu6HdeGjlwGc1nlQtc16TBqO6pla5axzDBG6pOs0+ZtPINEXvnbsbd2PNz/zrjNqZQAMUGXH6sCih+pB2jA3PTFh0VrRIk1yEQJJz7cIkJ/yvrN6rQwg0hS4zpMARN/IU32Z9nguM2Y78zMiZ6BJKkngr7bnHyAp4JW5tTOAsuv8hQDRd/KZw5NShW6lDyMD19kOYKROJ4PRopYAA6tSnv86tVkGF107AwiyzjIQZFflITrbzheV/hwZuM4jAMYPbrhM61gTYCy3C/6pOtWgnwHknB+C8S5JSARcmPT8b6vUEGSd+0A4VmUOE1szAoT/tfP+u3VSpZ0BVNz0Vxn0SUlITPh8Ku9fqVJDkEsvANNZKnOY2HoRIPDXkl7pUzqp0s4AenKZi0Lma2Uh0fdsr6h0qm4553yTGBfK1mmyN5OARXRxe754XTNzDpRLOwOouOm3MegnAwlX+jlz3i6U5qnMUc46VxJBi7XhVdZpYv+dAIHfnvRKP9WJiX4GMC89i0NaJgmJgQdSnn+MSg2VrHMhE7R5KURlrSb2DgJk8anJhaXlOvHQzgCC09NHIiG7eysB5aTnd6gcqErWOYcJZh9ClZB1i13l19uLS9GqV9oc2hlAOeskiRDIEuJq0iuNUDljK8g6p4Cg1X8DWebDPzsz7FTBj1aD0ubQzgBWzZ8ycp9tfdEkGdGjra168CG3rFX2XkKQdY4AQav/BqLAWyD506PbRk1d8PCLOpWqnQFEcMqu8zQBe0uCCsPEYR2LVv9FlQY9rnRUVWfivpIAA8+kPH8f3choaQCB66wBkBGFRXSynS/eqUpD6bTOUXu2WU8w8BpVOUxcrQgUbc+frJWi6MGkboJ2XAGk7yTQTFltdI7tFX+hUkPgOtEbgRNV5jCx9SDA4BUpr3SSHmr+rkJLA6i4mZsY/HZJWEz4SCqvdu22wHWiNQGU/twoydDkfvkXjX6S9Irn6sZESwMIss41IFwiCYuALyQ9X+lEnXK2U/gqR5Jw83IzrNkW4fLmZdxFJsZ/2AX/E6IadpFcSwPY6KY/YYGuFoXF/F27UPqgqAaTvCEEdNhvIgRf2uGVrmlIQQ0MoqUBBDnn3WDc2MA6hxCKfmV7RfOyzhDI6dZFhx2nQDjPzvs/1I2NlgagyaKZ99mef7xuA2b0DJ5AkHP+AIbofnzMmJsq+IsHr15tDy0NYJPrvKEK/FZt6QNGX2d7/qQBW5kG2hMI3PRmgER35E0Ax4z1/Ad0g6WnAZwxeXy1GkYr5kgeW+8f7Y85ewGqkiJM7voJ6LAbcyJhTRh765r19VfT2AhaGsCq+VNes8+2vmcbW+rgo/VW28ZOWPzw5sH3ND10IcAzZ7ZVxvT0Sut5enTbmKkLHn5OWscr82tpAJHIwE0/D9CeksDaLOvwQxaueUhSg8ldH4GNuUy7xSz8Ag6/YHulveqrRE1vjQ3AKQHoVFN2jVEZs+yCf3uNrU0zDQlUsp1HMVkPCkvrtj0/Laxhl+m1NYBKzrmbGSdIQiPC25J537yzLzkIdeYOcum5YCrUGaau7kS4J5n331RXEEWdtTWAwHV+DuBsRXXXFJbAH016JdHtymsSahrtlkDFzbyXwf8tjOgXtuefI6whXlcAQS59LZguEoVG/EU7X/qsqAaTvC4CQTb9GRD9e11B6u1MfJ2dL11cbxgV/fW9Asg5l4PxZRVF1x5T/erAtWsxLYdCQIvVlwmftvP+V4aiX3UfbQ2gknXex4TrVQN4tfjMuCVV8N8iqcHkro9A2XV+RYDoGBLj/cmCL30bEq9bgIqbmcfgW+sb/rp732t7vuiDyLoraPEAQc65Dyy7AxOBzkh6xYU6DoW2VwAbcpnjEsz3CkPTchUXYSaxSl92nXUETJAUXSU6fly+eJ+kht3l1tYAgtMnO0iERVFohKeTz7QfSCtW9InqMMmHTCBwnRcA7DHkAI3oWLUy9uI1fiNCNTqGtgawYe5h+yWs7X9tdMGDjRcSJTvyxZ7B9jPt5QnwlbAqDzri73JUw1H7j1v00BZ5Iv+sQFsDiKQGrrMNwChRcIwj7YL/J1ENJvmQCKzLTTh4JI+Qfpdju+35o4dUQBM6aW0AFdd5hIHxTeCw2xQ6buckySNOuTfOPfR1llUVfZeDgPVJzxd9BvFqY6a1AQRu5n6A3yh50jH43JRXkt2sVBJAjHMHucxJYL5DtgT6je0Vj5XVsPvsmhuA8ysI/4bLRBenNNvSWdeTSTddWuw0Ddxse/6/6MbmJT1aG4AWs7hAX7K94md0HUCja/cEgqzzcRD+Q5IRE76VyvsfltQQ21uActb5HBGulITHjOtTBf8CSQ0m99AIVHKZq5j50qH1bkwvZlyZKvifb0y0xkfR+gqg4jofYuBbjS+79ogE3Jr0/DNr72Fa6kKg7Do/IuAdknoIuDDp+d+W1BDbK4Agl5kPZqXbc+k6MMNeF+MSu+B/XWWdQdZZBsIslTkGjE10tp0vLhiwnVADra8AytnJM4lCZRt0CjE3afsJqN97sew6fyFgqiRwZuukVGHNCkkNsb0C2OR2Tq3CUrZFt66D0gq6iOj4pOL58YHrPAHgAEmeCYSvG+t1r5LUEFsD0GQml65jF2tdvQlrwgTFy2TrsBz4i9R7yMT8I4/qOlha3wLsnMv9IoCErgCNrqEReHL76NccsfTPzw+t98C9elznwBB4fOCWSltUk9P8kXQlQqVZ6giutQFEdQU5pwyGXUeNpquGBGzPV3rubZjXOSURWrKX3oTAzvspDfH/TZLSQWhE4YHrRFuEvaERsUwMPQgQ8GjS8w9Rqabsdp5IsKQfvj1ge/4xKuusN7b+BpBNLwRRrt5CTX+dCNDvba84TaWiINt5FsiS/fmNOW8XSvNU1llvbP0NwHW+B8DMxKt3pLXqz57tlZSaepDLfBDM0hNwvm97/r9qhf4VYmJgAJkvAnyFzhCNtkESYP6OXSh9aJC9BtW8knOuZMbnBtWp4Y31f49EewMo5zIXEfO1DR8bE1CQAH/G9kpfUimg7DrfI+Erxzi8Saq9AfS46beHoJtUniwmdnMJhODzO7zSjSqzBho8O7LA57ZrvpaE9gawMds52yJricqTZaDYBPwu5FDpW2VEVrRohNL/igPV2azPmTE3VfAXq8xXdp3fkvCvRyGHczoK3UtV1llvbO0NoJLrfD2z9ft6C62zf8X2fKVzEcpu+gICRQ88h/0RAsd0eP4DKgsNXGcjANHf4InCo5L57j+orLPe2NobQHBap402q1xvofX0J6Ca9Py2emIM1Lecdc4kws0DtRsOnzdpGnAvAKVjNuBY9IUp+7buYMB2gg20NwA+rXNUpc2KVgcWPZKebxHAqkT0ZJ3jQ8I9quLrFFf1NODynKn708jeJ6VrTvaFo+m27u3SOl4tv/YGEIkvu84mApTOHBtokNraqgcfcsvaxwZqN9TPK7lMhpnXDLV/XPoR8EzS8/dRqVcHlgxsTnn+WJV1NiJ2LAwgcJ3oGcDrG1HwUGMw0RGpfPHPQ+0/UL/gzMkHoC+MDMYaqG3MP19te/4UlTVocjX1B9vzj1JZZyNix8UAFgE4vREFDzVGGFpv7li0RumvEYHrRJtYHDxUjbHox1huF/xTVWrtmeecGYbiz1MW254/V2WdjYgdEwPI/ADg8xtR8JBjEM6z8/4Ph9y/ho6Bm34IoNfV0DTOTW60PV/pWOrxiwrdYHvF9+g+ULEwgEou/TVmukwSJjMuTxX8r6rUUHbTdxJopsoc0rGZ6OpUvqh0LAM3fQVAX5SslYivSuZLn5TUUEvuWBhAOZu+lIiuqqUgZW2Yr7MLpYuVxd+xF2K0AOp8lTmkYzPzZalC6WqVOoJc5lowX6Qyx0Cxm1HnQBpq+TwWBhC46fMAuqGWglS1IeDnSc9/q6r4UdzAdaIl0JW+JKNSfy2xmzMN2PkpCErHauBa+Xxb8XTngTUM3CIeBpBLzwVTYeBy1LVg4O6U55+oLgOgxxtsKisEmjMNOLOCwErHakBKxFk7X4oeXmt9xMIANmWdY6qELlGSBN/O+xmVGipZ50ImfFNlDunYTZoGHM2nUDpWA3FMMKaPLfjRalZaH7EwgA1z0xMTFq0VJvms7fl7q9RQyTrnMOFnKnNIx27GNOCy6zxNgNKxGohjNeRJ4xaV1g3UTvrzWBjAmlxmzGuYn5GGVXq2fcRJK1b0qdIRuJmTAb5dVXzxuITeJ7eN3k/lasCPnDF+3xHVkVuka32OaO/J+eKz0joGyh8LA4iKCFwnWuL5wIEKUvn5qBGJ9oNuXr1JVY7yvMmHURgqm22oSvcg4q63PX/CINoPumk5OzFN1OYPumNjOzxhe/5BjQ2pJlp8DCDr/BmEw9RgqDEq40i74P+pxtaDbvbY6VMOeTHRp8xgBi2owR0YeCCleJXcytzJx7IV3tdg6YMLx3jILviHD66TTOvYGEDZzSwh8GwZTDuyksWnJheWlqvScOfMmW3pMZXHANpPVQ7JuAwsTimeHltxM/MYfKtsnbQ05RXnSGqoNXd8DCCb/jERnVtrYSraMfjclOIlnoKcUwTDUaFfg5jqpwFnnfcR4XrJWpn5plShJLotea31x8YAAjf9DYCUzsQbCJpFdHF7vnjdQO3q+bziOvcycFw9MXTt25RpwDnncjC+LMuAr7W90sdkNdSWPUYG4Hxaes28kPGVjoIf6VB29MxNHxpamA6yphPzdBZ+DbrOQl/kaP4GUxcQrqQ+7lK9Qk7gOl8HIP3lu8L2fGETqm3kYmMAPTnn/SHj+7WVpapV89/w6pnnnMAhT2eypoN5uvQ6dzWQLaJ/0hatpLDalSx0N3U9x8B1fgRA9PLbIlzQnvdFb0NqGKcdz7VqbSjdTpM1826zPV9sXYK1sybuM3LPxCkI/36FAMJo2bGhLQzuAqOL2fpN6g1rlknuhlvJpX/NTKIP4JjxllTBv0V2XGrLHhsD0GKVF8Yf7YIvujLRy4e1Jzulg63qrDAMjwPRdAKm1jbs9bai34PDrmgNwzbQsnbPf6LeiI3qr8PqURbjhPaCf2+jalIZJzYGoMM6bwRsTmq8zls5lzmcQp6F6EUYouh2oTGrCxGC6D6emO+ERcuT+WJR5UlZT2wd1o8kosk6M3o539gYQHn+1P1pm/xKr1v7wtFpzVd6fWmAN+bSb7JCzIJFp4ARGUKixi/XiwSsZKLlCKvL7UL3b2rsJ9rs8VxmzHYNpozz6BEHpBas+qsojBqTx8YAonrKrrOFgH1rrE1NsxFhyr5Z77Xed1V4jzttT6bnZoFxCsCzGPiHhTkZWEXgZSAs39rLy+Nici+v9dG56Ym9wi+NMfBUyvNjM5ErVgYQZJ2HQThUzTe7tqjE4bRmP9muTdngWm3MZdqt6HaBwH0jEsvHK3zHYXDKht46cDtnAJbs1QpjtV1Qu+rx0An9c894GYDr3AHgpEYCGGwsy7Le3L5Q7erAg9Vk2u8gsCHb6SbIygvzuNP2/JOFNdScPm4G8HMAZ9dcnZqG77I9P/qt2RyaEdg4N/Mey+L/EZb1C9vzzxHWUHP6WBlAJed8kxkX1lydioaES+y8H802M4dmBMpu5pMEVrpy80AlE+Fbybz/4YHa6fJ5rAygnHOuJMbnJOER+GtJr/QpSQ0m964JBFnnGhAukeTDhM+n8v6VkhoGkztWBqDDmnlE/INkvvTewUA2bZtDIMg5PwTjXc3JtussxPhwsuBHqzvH4oiVAQRu5myAo+cAkkfB9nxXUoDJvZsrANdZDOA0WT50ju0Vo/0dYnHEywBymZPAHP0SIHcQuuy8P0NOgMm8OwJl13mAgKNFCRGdbOeLd4pqGETyWBlA+fTJh1FCds08Bh5Jef7EQTA2TZtEIHCd9QDGNSndLtNw1To8tXjNQ5IaBpM7VgbwyOlTDhkhvmYevWDh2YPavZ4XBgPatFVLYPPsw/fqG7X9MYD3VJvp1aP3VtvGTlj8cLTLcyyOWBkAz0eiZ5uzhYExknStEYnx7Tev3iCpweT+RwKbzpg8vloNH5HkQsCz7aP9/WgBqpI6BpM7VgYQFabDmnnN2N1mMINo2gKbXOcNVUB2J54m7B7V6LGOnQFUXOceBo5vNIjBxIsWfbQIXRZTVxy2fxpMbXFrG20bFxJPDxnTpReNJeDepOefECeGsTOAsuvcQsAZ2kBmdBFRV8j4Lay+rlR+bbc22oahkHJuUifCtukW4RiOlkij/tectTgYuDXl+WdqIaZGEbEzgErW+T4T3l9jfc1u9uT//w7dxf1mQF0Y9fxdqQXB1maLGE75yvPtPbB9rxMR8nQiHAP0f+EP0LFGYlyfLPgX6Khtd5piZwCB63wJgNKVeRs1gP+/j0CJQF0ULZIZJu5PFlY3dYHMRtXR7DiV7KFHwaoey4zpDJ5OoHSzNQwx35dtz79iiH1FusXQADIXA/wNEVr1JeXo6gBEXczhb9v6eNnY27qj/Q5b/th0WudBfW10KpF1zM6Vj6P/8rE7NwH6mO0Vr43TgMYOcjmXeQcxD4fXcaOFNLu4/8l1eFfK674rTidOvVrLbueJgHUi4W+X9aIbv9ZbT9Sfid6Zyhd/3IhYzYoROwPYOHfyHMsKf90sQE3Lw/D719Mn+k21Gi6Jw97yg2GzYW56YiJhzQHzG/vXJ6Tht/1ZGFpv7lgUr8ViYmcAlWznUUzWg4M5+WLYNgT6d9PpAnD75p69lxz94IO9carjd9OmjTik/Zloff5TAGs60L+piRWnGgarNY7LxcXPAOZNSnGY2DjYwYl5++hZQRcT3UMhL1G5RXk9nIKscwRbNIeYo9/Coy/8QfXEi1tfsqodyYVry3HSHTsD4PPGj648OTJacnmPOIFusNYiAb8BYcle1VFL9l300JYGx68p3FNzD9vv+cT2OWDMYeCNADI1dRyejbYmD3hxf7px/bY4lRc7A4jgll1nHQET4gRaodZq9OzACvl2tqwlyXzxPoW5UMlljqMwnBMOfq8BlbLEY8f1LdFYGkDgOtG9cTQpxByvIEDAYwy6h4mXJMK+Je2FdXXdLvVkJ3ZUrbY5xDSHwCcw8FoDfZcEfmt7vjazEmsdo7gaQAHA3FqLbPF2qwFewmQtsfPFJQRE8xF2ezBAQS4zhzicA/Rvsim6D0OMxm6R7fnZGOntlxpLA6i4zg0MnBc32Bro7WPQHcS8pErhknFe96pI0wa3c2qCrTlM/f/lozXt2zTQGisJBNyY9PzzYyU6rgZQdjNXE/gTcYOtnV5GsPPfgK2dtpgJYtA1Ka94acxkx/MKoJzLXEbMX4sbbKN3+BJgok+m8sWr4lZhPG8BsulaI/U/AAAGZklEQVTzmegHcYNt9A5fAsT8nmShdEPcKoylAQRuOguQFzfYRu9wJsCu7ZWih9OxOmJqABrsAhurYTZi1RMI32h73SvV52lshlgawMbTOidZbZZZeaex54KJVgeBsC/s7Lite20dIUS6xtIASqd17r3HCOsJMEaIUDNJDYGXEyD0bu0ND0zf1v1M3MDE0gAiyEHOKYNhfr6K2xk3HPUSAjvvp+JYWmwNoOI6v2fg9XGEbjQPLwIE/CHp+UfFsarYGkDgOksBnBpH6EbzsCOwzPb82XGsKrYGUHYzNxH47XGEbjQPLwIM+knKK54bx6piawBBLn0tmC6KI3SjeZgRIL7OzpcujmNV8TUAN30FQF+MI3SjebgR4M/YXilarj52R5wN4F8B+m7siBvBw5AAf8D2St+LY2GxNYByLv0WYvpVHKEbzcOLABP/SypfujmOVcXWAHrmOieEFu6OI3SjeXgRsEK8qX2Rf08cq4qvAbjO5BBYHUfoRvPwImABh7Z7/po4VhVbAwjOnHwA+sJouezY1hDHE8Zo/icCjDbrIPuWNdHGsLE7Yv3lCVznUZhFKmN30g0zwY/Znn9wXGuKtQFUXOcvDEyNK3yjO/4ECFiV9PzXxbWSWBtA4KbvBNMMEEbHdQCM7lgT2Apwl+2VToprFbE2gAh6tB0ViGf07z/HHJmBWcY6rmdjDHRH//FD5q5oMxZi6tJ1m7ZaUcbeAF5eaLROwKgEZlhWYjozz6Ad+9MdUCsM084QeCWBnRut9G/USiG6Ruw5YuVrFzz83HAhNawM4JWDUs5OTMMaEe1MO8NiTGfg6OEycKYONQSiXVMIWAnmrpDQxSG6httW7S8nN6wN4JWnSLSvXXWnGRBoOoM71JxGJmqsCBDWRpfzIYddSKArtbAUbT3XEkdLGcDLRzSaR2CF4ZuqVZ5B1L9//QwAo1pi1Fu8SAKeYaALRF3gsOs5su6anC8+24pYWtYA/ul24fTJh5FVPY4oujJAZAaTW/GEGLY1E/4Ipi7isCu0wntS+bVmUVkzi273p/vGbOfsBFkzdppB9DBx/2H75RiehVUAdBFRV1/I948r+PcOzzLrq8pcAdTAb/1bDh3b1ludBWAGgaczaFoN3UyTJhJgoNcirAyZoif2K0eTtfSgFr2sHwx2YwCDobWzbSXbeRSITubo2UHYP/fArE48BI71diFgzUv38hxay1OF1aV6Y7Zaf2MAdY44XzBtRGXzM7MJ1olhGD1Q7J97MLLOsKb7rglEL9x0UfTHuKPdXNbXfZ4YA6gb4T8G6MlO6aiibw4Bx2OHGWQanKLVwj1AjC5GeNceVSw9IIabb+g8YMYAFI9O4HbOYFizLeCNYf8zBOyrOGWswxOwPrqsJ8Y9HFrL7MVr/FgXpLl4YwBNHKDNsw/fq3fkttkEPhVE0U+NZmMT8AsArQTx/VaVlsZ1ZZ0mnkYNTWUMoKE4BxesnJvUaXFiNoNO3jkRKTm4CDFtTXgomm7LoGXbR/UunbRg3dMxrST2so0BaDSE/escJmg2mGf2Pz8YJpufErA5engHwvLtoGUT88WiRthbWooxAE2Hf8sZ4/d9vjoqul2YzYQTwHA0lborWSEIKy3QHX0Il3XkS2bxVk0HzxiApgPzSlk9Z6YPDfusOQyeDcaxRNhHJ+kMdFvACiZa2mttXzbh1vVP6aTPaNk1AWMAMT0zgqxzSmQGBJoNwpHNLoMZT1tEd4cIl1lkLU2ay/pmD0FD8hkDaAhG2SCbz5z02t5q22xijnaoPQVAuyJFDwC0lFFdlvK671KUw4RtIgFjAE2E3axU0TJp/c8OdlwdROvVJYaSm0AbQ/AyAi2thluXjVu0cctQ4pg++hIwBqDv2DREGV8Ja9PvM7NDjm4XMPvVVlFmYDsBy5h5WYJoaVw3u2gIuBYJYgygRQb6pTLLWSdpRVcGFs9m7jeEdQQsZQ6XpQrdK1oMR8uXawyg5U8BA6CVCRgDaOXRN7W3PAFjAC1/ChgArUzAGEArj76pveUJGANo+VPAAGhlAsYAWnn0Te0tT8AYQMufAgZAKxMwBtDKo29qb3kCxgBa/hQwAFqZgDGAVh59U3vLEzAG0PKngAHQygSMAbTy6JvaW56AMYCWPwUMgFYmYAyglUff1N7yBIwBtPwpYAC0MgFjAK08+qb2lifwf7g7laYhC5oMAAAAAElFTkSuQmCC;" vertex="1" parent="1">
          <mxGeometry x="209" y="225" width="50" height="50" as="geometry" />
        </mxCell>
        <mxCell id="ugtfvKyXgLZFdfxOpgOD-7" style="edgeStyle=orthogonalEdgeStyle;shape=connector;rounded=0;orthogonalLoop=1;jettySize=auto;html=1;exitX=1;exitY=0.5;exitDx=0;exitDy=0;shadow=1;strokeColor=#b85450;strokeWidth=2;align=center;verticalAlign=middle;fontFamily=Helvetica;fontSize=11;fontColor=default;labelBackgroundColor=default;endArrow=classic;flowAnimation=1;fillColor=#f8cecc;entryX=0.069;entryY=0.486;entryDx=0;entryDy=0;entryPerimeter=0;" edge="1" parent="1" source="ugtfvKyXgLZFdfxOpgOD-3" target="ugtfvKyXgLZFdfxOpgOD-9">
          <mxGeometry relative="1" as="geometry">
            <mxPoint x="557" y="250" as="targetPoint" />
          </mxGeometry>
        </mxCell>
        <mxCell id="ugtfvKyXgLZFdfxOpgOD-3" value="" style="rounded=1;whiteSpace=wrap;html=1;fillColor=#d5e8d4;strokeColor=#82b366;shadow=1;strokeWidth=1;gradientDirection=east;perimeterSpacing=6;glass=1;" vertex="1" parent="1">
          <mxGeometry x="329" y="220" width="90" height="60" as="geometry" />
        </mxCell>
        <mxCell id="ugtfvKyXgLZFdfxOpgOD-4" value="" style="shape=image;verticalLabelPosition=bottom;labelBackgroundColor=default;verticalAlign=top;aspect=fixed;imageAspect=0;image=data:image/png,iVBORw0KGgoAAAANSUhEUgAAAQAAAAEACAYAAABccqhmAAAAAXNSR0IArs4c6QAAIABJREFUeF7tnQucU8XZ/39zshdZcnYVlIsgbFbFAhWsWEFBBetSpRWrWLEKFS2IOUFU7Ef7r/Qvvmrf2vdVWyAJiG2xYCsWbcUqlnitoGJFBQte0JxQQfCGbE4A2d2ceZ0sq4ALm10yc54kMx/7oZCT5/KdOb+cyzMzDLppAppA0RJgRZu5TlwT0ASgBUAPAk2giAloASjiztepawJaAPQY0ASKmIAWgCLufJ26JiBNAAK/SXXVeDUBTSA3BOxr/R/mxtLeVuQJQMT5FEAnGUFrm5pAkRH41LbMw2XkLFMA1gHoKyNobVMTKCYCjGFdPGj2l5GzTAF4FsAZMoLWNjWBIiPwrG2ZI2TkLE8Aws4iMFwkI2htUxMoMgKLbMu8WEbO8gQg4swEcLWMoLVNTaCoCDA20w76r5GRs0wBmA7gVhlBa5uaQFER4Jhuh8zbZeQsTwDCyUlg7B4ZQWubmkBxEeCTbKvyXhk5yxOAyPbRgPuIjKC1TU2gqAgYxmj7qo6PyshZmgBUR+qGMBgvygha29QEiokAd90hiSlVK2XkLE0Aes/aFjB8vriMoLVNTaCYCHBWEkgEOyRk5CxNAI6cyyvK06ntMoLWNjWBYiLQcLi/YuNFbKeMnKUJgAg2EEkmAWbKCFzb1ASKgwBP2lZllaxcJQuAsx7AMbKC13Y1gSIgsN62zD6y8pQtAMsBDJUVvLarCRQBgeW2ZZ4mK0+pAlAdTj7MGDtfVvDariZQ6AQ4+MMJq3KMrDylCkBNxIly4CpZwWu7mkChE+BANGGZlqw85QpA2JnBGW6WFby2qwkUOgHOMCMRNG+RladsAbA4Q1hW8NquJlDoBBiDFQ+aUVl5yhWAqDOGcyyWFby2qwkUOgHGMSYeMh+WladcAQgnh3HGnpcVvLarCRQ6AYPxYe8FK1fIylOuAMxO9uEGe1tW8NquJlDoBFiD2yd+TZWop5HS5ArA3K1VPF26TUrk2qgmUAQEfI31Ve9O7ZyUlapUARBBByKpHQDvICsBbVcTKFwCbIdt+TvKzE+FANgAr5aZhLatCRQmAZ6wrcqAzNwUCEByJcBOlpmEtq0JFCYBvtK2KofIzE2BAKSWAPxcmUlo25pAgRJYYlvmeTJzUyAAzjwAE2UmoW1rAgVJgGGeHTSvlJmbCgEQq5n+XGYS2rYmUJAEGG63g6ZYXVtaky4A1VFnKuP4rbQMtGFNoHAJTLUtc5bM9OQLQNgZyxgekJmEtq0JFCQBhrF20HxQZm7SBaB32BlhMDwtMwltWxMoRAI8jRGJq02xx6a0Jl0Aes1x+vlcrJWWgTasCRQoAZej34aQ+abM9KQLwDdmJzvvMtgnMpPQtjWBQiTQUObvvHEi2yozN+kCIIIPhJ0GMJTITETb1gQKjECDbZllsnNSIgDVEWcjA3rITkbb1wQKhgDHRjtkHiU7HyUCUBNNreKcnyg7GW1fEygUAhxsVcLynyQ7HyUCEAgnl4Kxs2Uno+1rAoVCgIEvjVuVo2Tno0YAIsn5ALtMdjLaviZQKAQY4/PjwcrLZeejRABqoqk7OOc3yE5G29cECoUAA7sjbvl/JjsfJQIQCCevB2P/KzsZbV8TKBQCDPz6uFV5l+x81AhAJDUO4AtkJ6PtawKFQoBxNi4e8t8vOx81AjAnVQuXL5OdjLavCRQKAQZWG7f8T8rOR40AzPxsIEpKXpedjLavCRQOgYaBttVpjex8lAhAdTjVjTG+WXYy2r4mUDAE6lk3+1r/h7LzUSIA4JwFoilXdjLZ2p9yoi/bQ/VxRURg9qtpKtly2zINFcGoEQAxHyCa2gLOu6pIqjUfr08oRwc9M6E1TEX1+Y4G4Fv37SKSM9tiW/7uKoJRJwBhZw0YjleRVGs+nr24DN39ylJvLRz9OQECG5IcIx+sJxBJJoQ1tmUOVBGMsrMgEHFiAM5SkVRrPv56fhn6dVaWemvh6M8JEFi1xcUlf28gEAkAhpgdNEeqCEbZWRCIphaC80tVJNWaj9+fU4qhPZTcYrUWiv6cCIEnbBfXPEVEAMAW2pZ/vAo0ygSgOpy8izF2nYqkWvNx54hSfP9oLQCtcSqmzxesTeO2FxuJpMzvsq3K61UEo04AIskbGdivVCTVmo/pp5RgfH/9JqA1TsX0+d2vNGLO6zTeAnDObkyE/L9WwV+dAERTExjnf1CRVGs+Qt/yYeog/RqgNU7F9PnP/9mIh94hIgBgExKW/z4V/JUJQM3sulHcMB5TkVRrPi7p58PNp2oBaI1TMX1+5T8a8Nz7NEpVXLijNlhVS1XwVyYAR0e2D3LhvqIiqdZ8fK/GwF1nlrZ2mP68iAhc+Eg93viYk8jYdY1BG6Z0fFVFMMoE4Jh5O3qmG9Lvq0iqNR+n9TRw79laAFrjVEyfn/lAPTalaAhAKfP1fCdYsUkFf2UC0G/G2rKdXXqRKLUa2IXhwdHSF1xV0X/aR44InDB/F3YSeQnQyecvWzWZKXknqUwARD8FIs6nADrlqM/ababmUIalF2oBaDfAAvzicfeS+G0SZD+1LfNwVYhVC8A6AH1VJbc/P4d3YFhxqRYAr/uBiv9Pd3Kcej+NMmDGsC4eNPurYqNaAMQ+Z2eoSm5/fsp9wJrLy70OQ/snQuCtrRznPUxDAAA8a1vmCFVo1ApA2FkEhotUJXcgP69eVo6O+jkgha7wPIbnN7qY+ISSW+5scl1kW+bF2RyYi2PUCkDEmfnFPc7VuQj8YG08NbYMPU2l6R9syPr7kgj8dX0aP3uOyBNAjpl2yLxGUqpfM6v0DAhEnOkAblWV3IH8LD6vDMcfoTR9CmnrGFogcO+aNP7nZTICMN0Omber6iilZ0AgnJwExu5RldyB/Ig6AFEPoJsm8OuXG/G7NTTKgAE+ybYq71XVK2oFILJ9NOA+oiq5A/kRlYCiIlA3TUBc/ovbABKNG6PtUMdHVcWiVACqI3VDGIwXVSV3ID+3DC3BxX31jEAKfeF1DJTmAXDXHZKYUrVSFROlAtB71raA4fPFVSV3ID/Xf7sEVw7UAkChL7yOgdI8AM4aA4ngYQlVTJQKwJFzeUV5OrVdVXIH8iNOfiECumkClOYBNHzur9g4je1U1StKBUAkFYg4dQAqVSW4Pz/i8l/cBuimCZCZB8B50g5VVqnsES8EYD2AY1Qm2ZIvPSXY6x6g4f/zRmDgfDLzANbbltlHJRkvBGA5gKEqk2zJl3gFOGn3MwC+exZo82TQtvw98x2e+S/T2mMj8709YmiyyXfbYk1/fvn33T7a6LPFOPe10crfW+WyL4t9ubbAan82T+3BcGJX+W9pNjkcZy4iUwa83LbM01SeG8oFoDriPMSAC1QmqX3lH4FlF5Whd6X84SkWAREPAYm0h2zLvFBlLPIJ75NNTcSJcuAqlUlqX/lHYNWPy+FXMGHz2f+4mLyMxjwADkQTlmmp7C31AhB2ZnCGm1UmqX3lH4G3J6qZrbn47TRuep5GGTBnmJEImreo7C31AhB1gpwjojJJ7Su/CFSUAq9dpkYAxFLgYklwCo3BCMatjnNUxuKFAIzhHItVJql95ReBHn6Gpy9WcP0P4PYXG/HHtTTKgBnHmHjIfFhlb6kXgHByGGfseZVJal/5ReCbhzM89AM1AnDd0w14PE5jOXCD8WHvBStXqOwt9QIw5/Njudvwjsokta/8InDGUQbu+a6a1VrGP9aAlzcTEQBeeux7oUPeVdlb6gVg7tYqni7dpjJJ7Su/CFzQx4f/Pl1NleY5i+sR30ZjOXBfY33Vu1M7J1X2lnIBEMkFIs4OAB1UJqp95Q+BSQN8+OnJagTg5AW7UEejEHCHbZkdVfeSRwKQsgFerTpZ7S8/CNw4uARXHC9/pmaDC3zz9zTOfoDZtuWvUd1DHglAciXATladrPaXHwR+PbwU5x0jvwx483aO4X8mUgXI+Uo7VDlEdQ95JACpJQA/V3Wy2l9+EPjd2aUYpmC5tn9/wjHmb0QEAFhiW+Z5qnvIIwFw5gGYqDpZ7S8/CPzt/DL07Sx/aFIqAwbDPDtoXqm6h+RTbiGjQCR5O8B+rjpZ7S8/CDx/SRm6VMgfmpTKgMHd2+1QlVg1W2mTT7mFdKqjzlTG8VulmWpneUNg7RXlKJH/CACUyoABTLUtc5bqTvJGAMLOWMbwgOpktT/6BA4tB1aOVzMPgFIZMBjG2kHzQdU95IkA9A47IwyGp1Unq/3RJxCoYnjih8VXBszTGJG42hR7ZyptnghArzlOP5+LtUoz1c7ygoBYBejP5xZfGbDL0W9DyHxTdSd5IgA9Zic7lxnsE9XJan/0CXynt4FIrRoBoFQG3FDmdt44sWqr6h7yRABEkoGw0wAGNfWeqqlqf+0mcOFxPtx+mpphQagMuMG2TDX3Pfv0jGcCUB1xNjKgR7tHiv5iQRIQC7X+VMF+DaTKgDk22iHzKC861DMBqIk6qzjHiV4krX3SJXDD4BL8RME8AEplwBxsVcLyn+RFr3gmAIFwcikYO9uLpLVPugR+dXoJzu8jfyIQpTJgDr40YVWO8qJXvBOASHL+FzOgLvMiae2TLoG5I0sxvJf8KiBKZcCM8/nxUOXlXvSKZwJQE03dwTm/wYuktU+6BB4cXYqBXeQLAKUyYAZ2R9zy/8yLXvFOACKpaRz8Ti+S1j7pEohdVIZeCjYEoVQGzBibFg/67/aiVzwTgECkbhxgLPAiae2zfQQYA3wMMPb5X9O/sf38+/6Ob/73pu812xU1ACpeiFEqA2acjYuH/Pe3r1cO7lveCcCcVC1cvuzgws/Ntwd3N/YahIaxe3CipQHPID7PDFjsPq75+GxPEPE98R1hf4/vNp9Ye59kX51Y+z/5Du6kbIs/zwZMbrr6SyuUVgNmYLVxy/9kjlPMypxn/RmIpAYAfHVWUUo+KFxbirN6y7/vlJyGNt8GApRWA2Y+NiA+2f9GG8LP2aGeCUB1ONWNMb45Z5kchKH/N6QEE74p/9XTQYSov5pjApTKgFHPutnX+j/McYpZmfNMAMA5C0RTJBZkH9/fh+mnqCk/zapX9EHSCXx7wS4kaawHym3L9Ozy0zsBEPMBos4WcHSV3tutODizl4HoSDUTULzOVfsHGtLAN/9A4+wH2Bbb8nf3ql+8FYCwswYMx3uVfLPf4zoxLLnAk7kYXqdelP43pziGP0BmMdA1tmUO9KojvBWAiBMDcJZXyTf77dyB4YVLtQB43Q+q/L/xMceFjxARAI6YHTJHqsp9Xz/eCkA0tRCcX+pV8nv6VbUfPYVciz2GZ/7j4qplDUQwsIW25R/vVTCeCkB1OHkXY+w6r5Lf0++L48rQ6RBPcVDAUBQx/OXtNKY/30gkV36XbVVe71Uwno746kjyRgb2K6+S39Pv4vNKcfwRnj2MpYCgaGKIvp7Gb16hIQCc8xsTocpfewXfWwGIpiYwzv/gVfJ7+v3NmaU4p0YLAIW+kB3DrS80YuG6tGw3WdnnYBMSlv++rA6WcJCnAlAzu24UN4zHJOTVZpNiFRqxGo1uhU/gmqca8IRNogQFLtxRG6yqpV5R91QAjo5sH+TCfcWr5Pf0O66fD784VRcDUegL2TFc+vcGvLKFiAC4xqANUzq+Kjvn/dn3VACOmbejZ7oh/b5Xye/p97sBAzO/o4uBKPSF7Bi++5d6JOq4bDdZ2S9lvp7vBCs2ZXWwhIM8FYB+M9aW7ezSi0RJlsr16CX0ozbZBgKEyoDRyfd22arJJ3n2TtJTARB9Fog4nwLo1Ib+k3KoWIRCLEahW2ET+DwNDCRTBoxPbcs83EviFARgHYC+XkIQvjuUAK9PULMnnde5FrP/TQ7HmYtoVAEyYF3cMvt72R/eC0A09Qw4H+4lhGbf//xRGbp29BwJBRQFG8PqjzguWkJDAAA8a1vmCC9hez7aA2FnERgu8hJCs+8/nVuKQV11LQCFvpAVw1MbXFgxz265901rkW2ZF8vKNRu73gtAxJkJ4OpsgpV9jC4Gkk3Ye/uL3krj/y+nUQUIjpl2yLzGSyoUBGD6F0vj3eolhGbfN51Sgh/318VAFPpCVgzh19KYuYqMAEy3Q+btsnLNxq73AhBOTgJj92QTrOxjJg/0YZqCfelk56Ht75/ALS804k9EyoABPsm2Ku/1sr+8F4BIcjTAHvESQrPvC/r48N+n62pACn0hK4arn2zAsgSNKkBwY7Qd6viorFyzseu5AFTP3TGYpdMvZROs7GNO72lg3tm6GlA2Zy/tX/JoA1Z9SEQAmG+wHax42UsengtA71nbAobPF/cSQrPvvp0Z/na+Lgai0BeyYjj7L/WwiZQBc9YYSAQPS8jKNRu7ngvAkXN5RXk6tT2bYGUfc0QHhuWXliFTJc4z/2Wa+JPv/suX/7bH3792/IE+y9hqOoCDZQzL8/NV/Bl/rcS8ZxwHzH+/bHbnxRmas2qJTUt+Tu6u5vXryQt2oY5E8TnQ8Lm/YuM0tlP2uD6Qfc8FQAQXiDh1ACq9BKF9e0egzAe8cbn8KsydjcAJ84mc/UCdbZmHeke9yTMRAUiuB9gxXsPQ/r0hUF3F8I8fyr/1et/hOItIGTDA19tWZR9viH/llYgAOMsBDPUahvbvDYFTjjQwf5T8h6+vfeji4kfJVAEuty3zNG+IExOA6ojzEAMu8BqG9u8NAVWvX2MJF1OeJCMAD9mWeaE3xIkJQE3EiXLgKq9haP/eEJhyog9Xnyi//uLPb6YxYwWNKkAORBOWaXlDnJoAhJ0ZXzw4vtlrGNq/NwRuP60EFx4nvwR71quNmP0qkcVAGWYkguYt3hCnJgBRJ8g5Il7D0P69IfD7c0oxtIf814A3r2jEA19cBVBoDAjGLXOO17GQeAhYE3XGcI7FXsPQ/r0h8MQPyxCokj8UKZUBM44x8ZD5sDfEqV0BhJPDOGPPew1D+/eGwOoJ5ThE/iMAUFoN2GB82HvByhXeEKcmAHM+P5a7De94DUP7V0+gxADWXiG/CEhkRqkM2OClx74XOuRd9cT39ij/uiuLDGvmbq3i6dJtWRyqDykwAkf6GZ65WH4RkMBGqQzY11hf9e7Uzkmvu5OEAAgIgYizQ6zN6TUQ7V8tgYFdDDw4Wn4RUKoBGHQfmTLgHbZldlRLumVvhAQgZQO8mgIUHYM6ArXVBmafJV8ANtRxjPwLlcVAmW1b/hp1lPfviZIAvATwwRSg6BjUERjf34fpp8h/Arhqi4tL/k6kCpDzlXaocog6ynkhAMklADuXAhRVU1Obc315M5EFKjyAf+PgElxxvPwioH/YLqY+RUQAgCW2ZZ7nAe6vuSR0BeDMAzCRAhSxMKhYIFRFo/RuWkW++/pQtRLz/evS+K8XaJQBg2GeHTSv9IL3vj7pCEDUuQ0cN1GAMqrGwN1nyr8vFbn+YnkjHnyLRnWaF+wXjS7DCV3kD8PfrmpE5DUynG+zLfMXXvAmKwDVUWcq4/gtBSjiFmDB99QIwJ3/asQ9q8kMTOX4n7+kDF0q5AsApTJgAFNty5ylHHYLDuWTzzLL6rAzljE8kOXhUg+rOZRh6YVq3k3fuyaN/3mZyKWpVKpfN+4Tm+P9RE0REKlbLYaxdtB8UDHuFt3REYCoM5xxPEMBymGHMLw0To0ALH47jZueL04B6NaR4bkfqeFMqQyYpzEicbX5LIWxTkYAes1x+vlcrKUC5a2Jan6ZntzgIkRnrzql+AccwfCX89QIwDmL6xHf1rwcqdI0v+bM5ei3IWS+6W0UTd7JCECP2cnOZQb7hAIUEcO/ryhHqfwZqnhli5uZpFKM7Tu9DURq1TxrGbygHtt20RCAhjK388aJVVsp9DkZARAwApFUPcDVjIhW6D/7ozJ0V7BV+LufcXzvISoVamqH5I/6+jBjqPzXrU49cNIfiZQBM1ZvB/1qLi+z6E5SAlAdcTYyoEcWcUs/5KEflOGbh8vH88lOjqH3F6cAXDOoBNa35BcBiY1AxExAEo1jox0yjyIRC6VbAAGkJuqs4hwnUoAzd2QphveSfw/Q4AKDF+zC9iK8C7jttBL8UMFSYP/a7GLcYzQAc2BVwjJPojDGST0DyAhAJPU4Bz+HAhxV69SJXM98oB6bUjTuT1WyF/swiv0YZbelcRfXPk1EABh7PBH0f092ztnal3+Nm20kmWcAyfkAu6wNX5F26HUnleCqE+RfnooELvhbPdZ+UnwC8PcxZTj2MPlDcOG6NG4lUgbMOJ8fD1VeLm3gttGwfPptCKgmmryDc3ZDG74i7VCV8wGuWNqAFZuKa0IQY8CqH5ejo4JHvjNXNSJMpAyYgd0Rt/w/kzZw22iYlgBEUtM4+J1tzEHK4SrnA0x7ugGPxYtLALp2ZPinoiIgsReA2BOAQmOMTYsH/XdTiIXcM4BApG4cYCygAOfUHgb+cI6Cn6cvnsTe8kIj/rSOxgBVxV68YRFvWlQ0MQ1YTAem0Bh3x8VDVfdTiIWeAMxJ1cLlyyjA6deZ4a/nqxmgxGaqKcF/Zi8D0ZFqBHbc3xvwry1EBACsNm75n1QCOQsnpG4BApHUAICvziJu6YeoXKzyvn+n8cuXims+wMXf8OGWYfKLgMRAGbW4Hu8RKQNmPjYgPtn/hvQBnKUDUgJQHU51Y4xvzjJ2qYdVlACvTVBTsPXI+jRueK64BEDsBSj2BFTRhiysx2efE3nLUs+62df6P1SRdzY+SAkAOGeBaIrGtZrC+QDPve/iyn/QeE+dzaDJxTG3DivBRd+QLwB1u5qWAyfSuG2Z8gsf2pAsLQEQtQBRZws4urYhB2mHqpoP8PpHHGOXEClVlUZzb8NzRpZihIJKS3HpL24BiLQttmV2JxJLJgx6AhB21oDheAqQVM0HSNRxfJdKrboi8A//oAz9Fcy1WPmBix8/Tubqao1tmQMVIc7KDT0BiDgxAGdlFb3kg1TNB9i2q2k+QDE1VUuBPR53cR2RMmBwxOyQOZJSP9MTgGhqITi/lAIklfMB3viY442PXbzxSdOf6z8j8tAqRx0hSn6PP8LA8V+8/8/8eYSaoUepDBhgC23LPz5HSHNiRk0vtCHU6nDyLsbYdW34irRDr/92Ca4cKP9B1b4J7GzEXmKwagvHRzvySxDEQp+Duu190ndQ89ZvL5yUyoABfpdtVV4vbcC2wzA9AYgkb2Rgv2pHLjn/yk8G+HDDyR6M2n0yEa+wMlcIn3Cs/sjNzBtoJPOupClYscvv0B4GxF5/Tb/yDGJtRa8bpTJgzvmNiVDlr71msqd/73toHxrV0dQExvkfKEAa08eHX57uvQDsy2JzimNNRhBcvLjJxb89mkkoynlP6SFOeANifb/ufnLDKbMbEJUyYA42IWH576MwtptjINdjNbPrRnHDeIwCJJVr1h1MvmKxSyEG/9rMM1cHH0haW0BUR4pf+W93Z5mTXiyfTr2JhUDEgiAUmgt31AaraimFWMgKwNGRbYNc+F6hAGlQVwN/OldNvXou8133Cceru28VVmx0saud84zKfcDQnkbmpD/xi228+yl4bZdLDsIWpTJg1zUGbZjS8dVc53gw9shJ+DHzdvRMN6TfP5ikcvXdow9leFzRBiG5inlfO/VpYM3HLl7YJJ4dcLz+0YF/DU/oIk54BjEbcsARBsrUPwPNKQpKZcClzNfznWDFppwmeJDGyAnAoLm8dGtarA7sfevcgeGFS9XMCFSVbXIXx0u7bxWaFyERv/Dif0O6M1SWkxsS7UYjHp4KAaDSOvneLls1+SQyVUmCC8neDkScTwF08rrjxNZVqy9Xsz+A17kWon9RS/F9Okuuf2pb5uHUOFMVgHUA+lKApWo+AIVcCy2GlZtd/JjIasBiG8S4ZfanxpimAESdZ8AxnAIsVfMBKORaaDFQWg2YAc/ELfNMaoxpCkDYWQSGiyjAuvfsUpymYOlqCrkWWgz3r0vjv4isBvzFFe0i2zIvpsaYpgBEnJkArqYA63+Hl+DcY/L8UTgFkB7EMOvVRsx+tZ3vQHMdL8dMO2Rek2uzB2uPpgBEt98E7t52sMnl4vvTTynB+P5aAHLBUrWNW1Y04k9EVgMGjJtsq+MvVTNozR9NAQgnJ4Gxe1oLXsXnYtkqsXyVbvlH4JqnGvAEkdWAAT7JtirvpUaRpgBEkqMB9ggFWOP6+fCLU7UAUOiLtsYw/rEGvEykDBicj7ZDlY+2NQfZx5MUgOq5OwazdPol2clnY//7Rxu4c0T+lQNnk1uhHyO2XRfbr5NozDfYDla8TCKWPYIgKQC9Z20LGD5fnAKsYT0N/O5sLQAU+qKtMZyysB5biawGzFljIBE8LNHWHGQfT1IAjpzLK8rTqe2yk8/GvsodbLKJRx+THQFx4gsBoNIaPvdXbJzGdlKJpzkOkgIgggtEnDoAlV4D62kyPDW2sOYDeM1UhX9x6S9uAYi0OtsyDyUSy15h0BWAcHI9GDvGa2j+MuCPo9SsYOt1roXiX0x/FisniYeANBpfb1uVfWjEsncUdAUg4iwHMJQCNLHclVjqauAR7Ms/Ka5+Q4GVVzGIX/zVH7tY/VHTsmlvbSXy8K8JyHLbMk/zis2B/JIVgOqI8xADLqAI7YgK9pUYdBH/38Ah+k2h0q4S9/jNJ/vqjzle+9CFWEyVaHvItswLKcZGWADqogzGVRSh7RvTcZ1YZvGMgUIMuhjocxhZrPmAc78xZk74zK+8i9c+4tjkkPqV32/cHIgmLNOiCJ/sSK0JOzM4w80UobUW05Ajm24XBuy+bRBXDLq1ncD7SXHCN13Si5WMxEKo+dg4w4xE0LyFYuxkR2ZN1AlyjghFaG2J6dBysXJu022CuEIQVwrimYJuXyewvaHp4V3zL71YsUgsaZbvjQPBhGXOoZgHZQEYwzkWU4R2MDGJlXSbrxDE7UKgimwXHEyaWX/3rU+/engnTvgt2/PzV/5ACTOOMfGQ+XDWUBThXm+3AAAIaklEQVQeSHb01YSTwzhjzytk4YmrQd2a1uLLvGXoYuDQck/CUOZU7HDU/PDuhQ9crPVoTwNlCQMwGB/2XrByhUqf2fqiKwBz6o7lrvFOtokUwnEVpU276wzu/tXtQr7nJXYwylzWf8wzm5iIX/l04f3IH7CbDO4e+16o6l2KfUlXAOZureLp0m0UoamKSVQhiuW5xRWCeKB4lEm2u/ZCYtc1Pbh78YOmjUo+zrN9DXPdv77G+qp3p3ZO5tpuLuyRHlGBiLMDQIdcJFoINsR+e19dIRjoSGSOUt2upl/5lza7EBuRECvC8brrd9iW2dHrIPbnn7gApGyAV1OF52VczZtxCkE4ubuBvp3VdqXYj/ClD5o3HKGx9ZaX/bF/38y2LX8NzdiI7gvQDCsQSb0E8MFU4VGKS2zHLcTg1B4sIwjdOuZWEMR+g2KZbXFJv2IjJzPNllIf7CeWl2zLPIVqnLkdJTnOMhBJLgHYuTk2WxTmvtGp6flB02aeBsQ+f21pnzcis5pO5oTf5EJssqFbewjwJbZVeV57vqniO8QFwJkHYKIKEIXu45Qjm8RAiEL//WzyKS7rm/YQdDOX97rlgADDPDtoXpkDS1JM0BaAqHMbOG6SknkRGxXVic0bgAoMzb/y4mGebjkncJttmb/IudUcGSQtANVRZyrj+G2OctVmNAEvCEy1LXOWF46z8UlbAMLOWMbwQDaJ6GM0AZIEGMbaQfNBkrFR3R24GVZ11BnOOJ6hCk/HpQm0RoADwxOW+Vxrx3n1OekrgF5znH4+F2u9gqP9agIHS8Dl6LchZL55sHZkfZ+0APSYnexcZrBPZCWv7WoCsgk0lLmdN06s2irbT3vtkxYAkVQgkqoHOJGi1/Zi1t8rSgKM1dtBP+n5neQFoDribGRAj6IcQDrp/CbAsdEOmUdRToK8ANREnVWc40TKEHVsmkBLBDiwKmGZJ1GmQ18AIqnHOfg5lCHq2DSBFgWAsccTQf/3KNMhLwCBSHI+wC6jDFHHpgm0RIBxPj8eqrycMh3yAlATTt7BGbuBMkQdmybQogCA3xG3Kn9GmQ59AYikpnHwOylD1LFpAi0KAGPT4kH/3ZTpkBeAQKRuHGAsoAxRx6YJtHwL4I6Lh6rup0yHvgDMSdXC5csoQ9SxaQIt3wKw2rjlf5IyHfoCEEkNAPhqyhB1bJpAiwLgYwPik/1vUKZDXgCqwx91Y6zDZsoQdWyaQIsE6nd0s6/t+iFlOuQFAJyzQDSll6ehPIp0bC0R4LZlkt8Ejr4AiPkAYWcLGLrqcaYJ5BGBLbZldqceb34IQCS1GuADqMPU8WkCXxJgbLUd9J9AnUieCIATA3AWdZg6Pk3gSwIcMTtkjqROJD8EIOwsBMOl1GHq+DSBrwjwhbZVOZ46kfwQgEjqToBPow5Tx6cJ7HELcKcd9P+UOpG8EAABsee9dZ1Kdhm1jLHaL1ayrgV4L+pwdXxFReA/AItxzmON5W6M8ipAe/ZK3gjAvkOpd3T7t5ibbhYE/XygqM41Msk+KU54bqRjG4KHvUYmqjYEkrcCsGeOR87lFWV8Ry1z3d1XB+jTBgb6UE0gWwLvAIhxl8fqS83YB5OZ2L06r1tBCMDXrg7CTl9moJZxXgtkbhlIr8uW1yOosIPfBfDMCY/SQ5YlJpe/VWjpFqQA7NVJM7hR3XV7LRPPDTKCAF1PUGijOLf5rEHmst6IJT7sGMMMVtBVqIUvAPsMjt6ztgWYz1fLOGrBMlcIVbkdP9pafhHgdeAsxhliYCXLEsEOifyK/+CiLToB2BdXdcQ5gzFxdSBuFfjJB4dTfzs/CLCXwXiMc8Qo79qjgmXRC8CekHvP3d7daGyshXjVKARBzz9QMQbl++D4UJzwmUt7+JYlQv4t8p3mhwctAAfop+q5OwazdFoIQS04Ts+PLtVRZggw/BNcPLH3xRJTKlZqKi0T0AKQ5cjoFdl2mM/11cLIFCGJZwe9s/yqPkwFAc43QNzHuyzGO/qXJS5n21S4zXcfWgDa2YOBOamBSIsHibsfJnJolu1k2c6vcfFOXjzAgw8x+yq/XjWqHSD1oG0HtH2/0vOu9zuUHlLV/NxAvGo8LgdmtYmvEeBvZ0548QCvgyl+5T/XkA6OgBaAg+PX4rcDkeRxTQ8Sxe1C5u1CBwluisAk2ykKcTKX9pzHbKvy7SJIWmmKWgBk4xZLmkW214KJMuVMVeJA2S7z3L5Y/CUG7sbsUFUMYOJSXzdJBLQASAK7P7OB2Tt7w3CbBCFzhYDDFIdAzd1nTb/wRgyuEbOndNhALcBCjkcLgMe9G5jtnL7Hm4XBHoejxj3nK8FYDC5i9hTzn2qcai8tEdACQGhcNC2BXiGmNu9+1Qjyi0pmiW+zmCufeWpfipg9yU96qewscyqIw7QAEO7GQLTuZLhG06tG4AzCobYU2nOiEAeGG7ODVS/nWexFE64WgDzp6uq7PzuUdSg5C+6XbxYCtEJndubhnYEYY/5YfDKroxWfjkbfAhTQGAiILdMyDxKbl0iD6k0oxDTZzOs5MCNmW/41BYS3aFLRVwAF0NXHzOTlbumOWi5WRGq6XegrKa03xWU9M4yY0VARe3cq2yXJjzariIAWAEWgVbqpmZ3sww1RiMSbZjYCFe30v6PpF57FmMtj8SmVYkks3QqIgBaAAurM/aVSE0mdJa4MeKbugH/rwCmz11jmvTxi1Le2LoKuk56iFgDpiGk5qJm7tRdvLGm+MhBXB6Jl7uVZSWMsPrnTf2hFrKORSUALgEy62rYmQJyAFgDiHaTD0wRkEtACIJOutq0JECegBYB4B+nwNAGZBLQAyKSrbWsCxAloASDeQTo8TUAmAS0AMulq25oAcQL/BzjTcbX0CciwAAAAAElFTkSuQmCC;" vertex="1" parent="1">
          <mxGeometry x="349" y="225" width="50" height="50" as="geometry" />
        </mxCell>
        <mxCell id="ugtfvKyXgLZFdfxOpgOD-13" style="edgeStyle=orthogonalEdgeStyle;shape=connector;rounded=0;orthogonalLoop=1;jettySize=auto;html=1;shadow=1;strokeColor=#b85450;strokeWidth=2;align=center;verticalAlign=middle;fontFamily=Helvetica;fontSize=11;fontColor=default;labelBackgroundColor=default;endArrow=classic;flowAnimation=1;fillColor=#f8cecc;exitX=0.517;exitY=1.1;exitDx=0;exitDy=0;exitPerimeter=0;" edge="1" parent="1" source="ugtfvKyXgLZFdfxOpgOD-27" target="ugtfvKyXgLZFdfxOpgOD-12">
          <mxGeometry relative="1" as="geometry">
            <mxPoint x="624" y="340" as="sourcePoint" />
            <Array as="points" />
          </mxGeometry>
        </mxCell>
        <mxCell id="ugtfvKyXgLZFdfxOpgOD-9" value="" style="rounded=1;whiteSpace=wrap;html=1;fillColor=#e1d5e7;strokeColor=#9673a6;shadow=1;strokeWidth=1;gradientDirection=east;perimeterSpacing=6;glass=1;" vertex="1" parent="1">
          <mxGeometry x="473" y="220" width="90" height="60" as="geometry" />
        </mxCell>
        <mxCell id="ugtfvKyXgLZFdfxOpgOD-8" value="" style="shape=image;verticalLabelPosition=bottom;labelBackgroundColor=default;verticalAlign=top;aspect=fixed;imageAspect=0;image=data:image/png,iVBORw0KGgoAAAANSUhEUgAAAQAAAAEACAYAAABccqhmAAAAAXNSR0IArs4c6QAAIABJREFUeF7tnQmUHFXVx++tmQ6yZLp7JmFTUEFFBSFVPQi4BncwTFdHg2wBZAmCqKi4ogKKHyqisiiEKIYdHUnXTFhUVOJuTLo7rIoryqICSVdPAJPMdN2P6mEgJjPTVV2vqt6run0OBw7z7vL+997fVPV0v0LgVyoUWDevsHt3xnmLQ7CQAGdpAH0EMAsAngKAtQD0OBH8DpDKeWvNilSIwpsEZA2SrcBIyZhHBIsI4DDvO6U/AeLVzQ2ZS/puWzni3Y5XqqYAA0C1innMt7PB38r5HwDwkpxVucxjWF6mmAIMAMUK5iVd2zS+/PSl/ce9rPW4ZjBnVQ/3uJaXKaQAA0ChYnlJ1TYLtwDQoV7W+llDQA/lrdpufmx4rfwKMADkr5HnDG3T+AkAvNmzQQcLs1ZVQwDqwJRNJFSAASBhUTpJyTaNWwHgkE5s/dowBPwqJu96BoC8tfGcWcMsWARU9GwgYGF2TrULzwFHgCt2EaMCDIAYxRcR2i7pg0D4bhG+/PpgCPhVTL71DAD5auI5o4apX0eAR3k2CGFhNrNnNw4ONkNwzS4jUIABEIHIYYSom/pSBDwuDN9+fTIE/Comz3oGgDy18JyJXTSuAISTPRtEsDBr92RwxYqxCEJxCIEKMAAEihmFq0bJuJQI3h9FLL8x/vIgzuivVEb92vH6+BRgAMSnve/IddP4OgKc4dswQoPsjjgDr2AIRCh5oFAMgEDyRWccwsd7Q0v+4cyGbfYevG9TaAHYsTAFGADCpAzPkV00zgOEs8KLIN5zNrNhG2QIiBdWsEcGgGBBRburm8Y5T3/09mzRfqPw99jGkee99La/bIwiFsfoTAEGQGe6RWLVMI2zn/7Q/TmRBAspSHbjyPOQIRCSusHdMgCCaxiKB5V/828pSDbXsy0uXbEhFKHYaSAFGACB5AvHOEnDP6HQ+sw22+02+Nv/hqMYe+1UAQZAp8qFZJfE4Z+QKpvZZjtkCITUOZ25ZQB0plsoVkm4528nzFNN3H7X5RX3IFJ+SaAAA0CCIrgpJPk3/1bvCTRxe2QISNF5DAAJypCm4Z+Qe8NTYzvs/OO7npRA/lSnwACIufxpHP5n3xOYObYDXsMQiLMFGQAxqp/m4Z+QfVNmw8wdB+97IsYypDo0AyCm8vPwPyf8qPNkz+zh+9fHVIpUh2UAxFD+NLzb71fWUWfbntnDv2YI+BUu4HoGQEABOzFvmMY5pOjn+zvZr1eb5sZMlh9F5lUtMesYAGJ09O2lbuqfR8DP+jZMuAFDINoCMwCi1ft/otXNwhcQ6DMxpiBlaCeDud7BSkPK5BKWFAMg5oLaJeOLQPDpmNOQLjxDIJqSMACi0XnaKLap/x8AfkqCVKRKgcDJ5601tlRJJSwZBoAkBR0pFc53iD4pSTrypDE62pu75e66PAklKxMGgET1VOncv0hlYwiEJjcDIDRpO3NsF42vAMLHOrNOrhVmNvZlB+9dl9wdxrMzBkA8urd7T+CrAPhRCVOLNSXMbNOXHfwtQ0BgFRgAAsUU6aphFi4koI+I9JkEXxp2z+op/35tEvYiwx4YADJUYYocVHgQSBzyMQTEqc4AEKCl+8WevFUN5fTehml8gwA+JCDNRLnQmji7Z3nl8URtKobNMAACij7xrT5EPDtbrnw+oLtJzetm4WIE+kAYvlX2yRAIXj0GQAANt/xSDwJ9NmvVzgvgckrThmlcQgCnh+FbZZ9dGdpx5mDtMZX3EGfuDIAO1W8U9XMJ8XNbmSN8JleufrFDt9Oa2abxTQA4LQzfKvvcgGM77Vy+61GV9xBX7gyADpRv/00+/HTOqpzfgeu2JrapfwsAT227MGULunBsp5kMAd9VZwD4lKxhFj5PQO2/xov4qVy58iWf7j0tt0vG5UBwiqfFKVq00dm0807D9/wnRVsOvFUGgA8J/X59VwP4RI9V/YqPEJ6X2qaxGAAWeTZIycJuJ7PzDsMrGQIe680A8ChUwyx8gTr57j7Cx3Pl6gUew/haVi/qSxDxJF9GKVjcnenaZYfBVf9OwVYDb5EB4EFCu2icBwhneVg66RIN8Mweq3Jhp/bT2dlm4dsAdGIYvlX2yRDwVj0GQBudGiXjPKLOh3/CPSF9NF+ufc1bWfytsk3jOwBwgj+r5K/OaLjr9ssq/0r+TjvfIQNgGu1En9aDAB/OWtVvdF6uqS3rpvFdBDg+DN8q+xx16Pmzh2uPqLyHMHNnAEyhblin9BDgGXmrclEYRW2Y+lICPC4M3yr7zDj0/O0ZApOWkAEwiSxhDf9EKAT6YNaqXRLGUNVN42oEWBiGb5V9jo01XzDr5jsfVnkPYeTOANhCVbuonw+IoR/NhQAfyFrVS8Moat00rkGAY8LwrbLPGZnmC7YbZAhsXkMGwGZq2MXC+YDRncvnEJzeO1R1P94r/NUoGdcSwdHCHSvusKmN7da37K6HFN+GsPQZAM9IaZcKXwKiTwhT1rMjPC1nVS7zvNzHQtssXA9AR/owScXSGVpmt+2WrWQIAAADAADiG/5n5s2hU3PDtcvDmL5GybiBCI4Iw7fKPpvUtXvf0KoHVd6DiNxTDwCJTuI9JWdVrxBR1C192KbxPQA4/Ln/T+sAsEZAawC0GQi0MwLsTAC7EID73zuEkYdsPp0xfGHvzZV/ypZXlPmkGgASDf94zREW5crVJWE0wIhZ+KgDzhrMPK/W7mDNJ95l7DvmwEIgWgiAO4WRjyw+0w6B1AJA3uO36aScVXM/2SfFyy4VFgDRAgBw/0nkizR6UX5Z7R+J3FybTaUSAOuKxgUawpmyFpyQTsyXa1fKlF+j2H8ooeP+xeJFMuUlKpe0QiB1ALBLxgVA8g7/RENrAO/tsapLRTW4CD+NBXv30uiMmwBwrgh/svkgcF6ct9Y8IFteYeaTKgDUTf2rqNADNwjx+Hy5clWYDdCJ77pZuBAT+syCbcB58bYpgkBqAGCbha8CkHJP2yGi4/JDtas7GdQwbWyz8DYA+lGYMWLz3RzbI7f8rr/HFj/CwKkAgOq/sdzP9met6rUR9oWnUHZR/wQghnLsmacEwlykde2ZW7bqb2GGkMF34gGQlEdsOQ4c0ztcvU6Gptk8h60/YyBbhgHySQEEEg2ARsn4GhF8OEALSGWKQEdlrdoNMiX12PzCLhmHfg4AL5UpL3G54EtyVuWv4vzJ5SmxAEja8E+0DSIdmS3XbpSpjUbMgukAlWXKSWwuyYVAIgHQMI2vE8AZYptAKm/vyVnV78uUUd007kaAfWTKSWQu6MBLs8PVv4j0KYOvxAGgbhrfwBQ8TLPZhIP6lld/J0MTuTmIOjtRlv1MlkcSIZAoAKTpSbo5qypV7UZK+73Moa77ZR5gEblhl/Oy7E1r/izClww+pGqiIILUi/pFiPjBID5UsUXEe7PlinSX27ap35HUTwlu3huj2NxrdvnOP6nSL9PlmQgANEr6RUTpGH63mARwad6qSve48IapH0mA1ydhMNrtQcPmXj0JgIDyAKibhYsRSLphaNdAQX5OQMfmrdo1QXyEYbtuwNhX0+DOMHzL6HPU0V4+e3i10rc9SgOgYRYuppQNvzsIY018xazllT/KNhTrF+izm6OYqsd0a4728h6FIaAsAOqmcQkCnC7bEESRTzazZzcODjajiOU3hm0aYwDQ5ddO5fVaF76i5yb5gOxFUyUBUC8alyLC+71sMIlrmhsz2b7bVo7IuLd60XgIEZ4vY25h5qQqBJQDQNqH323iUQ13nS3pM+9s01gFAP1hDpusvrsQXjmzXP2DrPlNlpdSALBNwz2R5jSVBA4jV5k/kGKbhvvexF5h7FsFn02ivfuGavepkKubozIA4OF/rqUIaU6+XJPu3XZasKCrMfpX9z2AVL+6iPaeqQgElACAberfAsBTU91Vm21eI+e1PUNrfiObHvaA3g8aurcAqX81m819+pbfea/sQkgPAB7+rVsIET+ULVculq257GLhJEAK5Vhz2fbqJZ+uruY+M2+SGwJSA8AuFi4DpPd5ETtla1bnrOr+su2Zb9O2roiD2qt6y6vvka1WE/lICwC7VLgMiId/qsZBzXl1dtkaqS63bdNwv6Kc2OcHdDrEXai9aqakEJASAHbJuBwITulU8FTYEVyQG6p+XLa9MgQmr4hDuG/vUOVu2eolHQBs01gMAItkE0rCfB7c8NTYK3b+8V1PypYbQ2AKCDiwX+9w9S6Z6iUVAHj4/bUGAZ6ZtyoX+rOKZjVDQA0ISAMAu2hcAQgnR9OeSYlCDjlwcH649gsZd8QQmLwqMn2OQwoA8PAHGl8p/yIwsSOGgNwQiB0AdklfAoQnBRqBlBsTwEV5qyrtIagMgSkgAI6et9asibN9YwUAD7+40jepa/e+oVUPivMo1hNDYHI9u8HRd4gRArEBwDYL3wagE8W2Wdq9yX1+PUNgiisBRzPyw6trcXRvLADg4Q+v1EQwPz9UlfYhHQyBKWqvYSG3rFINrzMm9xw5AGzT+A4AnBD1RtMUjwDOHdNwscRnBvAnBidryBggECkA6kXjSkR4b5qGMca92gD0nWwu+xlcumJDjHlMGpqvBKasSH/OqlaiqldkALBLxpVAPPxRFXbzOLI9RIT/RNi2CyKDQCQAqJvGdxHg+Lbb5gWhKBAUAHapsCBXrgyGkRxfCUyhqkP754Zrq8PQfHOfoQOgYRrfJR7+sOs4rf/AAHCf+IPatxgCEZcxAgiECoC6qS9FwOMilo3DbaGAEAAAzgXEwxkC0bZX2F/7Dg0ADVNfSjz80XbLFNGEAcD1zxCIvKZj0DxglnXn78MIHAoA6sXCVYh0bBgJs0//CggFAEPAfwEEWCBoB2St1cIhIBwAjVLhKiIefgE1F+ZCOAAYAsJq48fRGOGBs4YqK/3YtFsrFAB107gaARa2C8o/j1aBUADAEIi2iM9EQ8IDswIhIAwADdO4mnj4Y2mKdkFDAwBDoJ30ofwcNTgou6z6OxHOhQCgbhrXIMAxIhJiH+IVCBUADAHxBfPgURQEAgOgXjSuRYSjPeTMS2JSIHQAMARiqayG9Jqecu23QYIHAgAPfxDpo7ONBAAMgegKulmkJjmv7QvwlKiOAWCb+nUAeFQsu+agvhSIDAAMAV91EbU4yKPiOgJAw9SvIx5+UfUL3U+kAGAIhF7PyQI4jva63uHVv/Yb3DcAbFO/HgCP9BuI18enQOQAYAjEUmxN017Xs8wfBHwBoGEWricgHv5Yytt50FgAEA8EGgCwFoAeH1cLZwFAHwBkO1dPLUsH8fW95cqvvGbtGQB20bgBEI7w6pjXyaNAbACIAAIOwQPdGvxirBt/2TtYcQGw1WvtIQf0dM8YPQgQDiSAgwDg7fJUR3wmGuLrezxCwBMAGiXjBiIefvGlisZjrAAIGQKdKDhSMuYRwSICOKwTexVsHII39A5Vf9ku17YAsE3jRgB4TztH/HN5FYgdABJCwE2pXuovIjlnAYB0j1oX0U3k0BvbPTVqWgA0TONG4uEXUYtYfUgBAEkh8OCCg7aduWnjWYDggiBxr3YQmBIAtml8DwAOT5wiKdyQNACQFAJuWu6xZ0DknlacuBchzc2Xaz+fbGOTAoDPaUtWD0gFAIZALM3VhTR35iQQ2AoAtml8EwBOiyVLDhqKAtIBQGIINEx9IQFeHUoh4nY6yRmD/wOAekk/AQndB3fwK0EKSAkAqSFgfIMAPpSgFnh2K104ttPM8l2PTvyPZwFQL+n7IeHtADA7iRtP856kBYCkEKDj5z5vxB65nQBel7S+QYRbeuo9Jq5YMdaSf2KDfHx30kr93H6kBoCkEGiY+iEEeGsSu8J9dFzeqp7zLADsov4WwNZvf34lUAHpASApBJL6dXcEeKRbw/7tl1X+1boCqJvGMCb4U1EJnGlfW1ICABJC4PFi4YBuJCFHb/kqWASLnx78c7JW9Vy05++/BzjNv0YQk0PEpIAqAECApVmrKtXDY233qUjuQ1GS9/pbzqruifWi8WFE+Fry9sc7mlBAFQA4Ds7rHa7cIlPl6qZxDgKcLVNOonJxyHknJphwonRS3o8qAMjmeraV7VHm64v6K5uI9yrfBJNtAGEx1k3jbgTYJ5Eb5E21FFAEAKtyVvXVMpasYRqPEYB7tkDCXvR7bJjGIwSwS8J2xtvZTAEVAICAX8halc/JWLhGSf8VEb5WxtwC5vQ3tE1jEwBkAjpic4kVUAEABM7BeWvNChlltE3D/XTsCTLmFjCnhgsAO01HJgUUTElzFQDgnjmRs6pSfhsvwW8EjroAcP8EuIeSnc1Je1JABQAgwAeyVvVSTxuKeFFSAYAA/3L/CrASAKV88yXiOic2nBoAkPc9gKQCgADuwXpRvwgRP5jY7ueNqfFXAITFuXL1fTKWK6kAAKAVWDfnzEXQ7pBReM5JjAIqXAEQgJW3qiUxOxbrxTYN90tBh4j1Gr83DenE1ncBbFO/HwBfFn9KnEEYCqgAAAC4J2dVXxXG/oP6tE19LQD2BvUjm70zhi8cB0DJOAsIzpMtQc5HjAKKAADGEF45q1z9g5hdi/GytqQf1EX4GzHe5PGCAMuzVnWgBQD3wQld24y633p6hTwpciaiFFAFAED0ydxQ7cui9i3CT90sXIhAHxHhSyYfGsJhPeXqzc8eCGKbhVMB6FsyJcm5iFFAGQAArMxZ1QPF7Dq4l8aCvXud0W3cj8rvGtybPB4mfvu7Gf3PmYD84E95iiQyE4UAAKMO7T97uLZa5P479ZXUX4oTv/23AsC6eYXdtW7ndn5DsNOWkdNOJQBsflxV3GrapuGCqBB3HoLjfyVnVT8x4XOrY8HrRaOECMsEB2V3MSqgEgDGfyvRUVmrdkOMkoFtGosAYHGcOYiPjbfmrMo7N/c7+YNBEvyUFPGiyu9RPQDAoxszG/bccfC+J+JSN3m//WlFzqodvKWe0z0azH0smPt4MH4proBqAHDlJoBf5a3q6+OQPnlPxpp8+Ld6D2BLsW3TYAjE0YGCY6oIgHEI0GfzVi3Sz6ekafjbAsBdwBAQPI0xuFMVAK0GRTgkW67+MArZ7JLxRSD4dBSxookx9W/+ifjTPh58YpFdNN4DCDdGkzRHEa2AygBoaYF0aq5cu1y0Lpv7s0v6EiA8KcwY0fpuP/yergAYAtGWLYxoygOgdT+Al2e64PPuwyxEamTPLxjg0PkA8DaRfuP15W34fQHAXbxuQD9C0zDWP8/EK6ya0RMBgPFPrT3iACyZoeHioCCwzcKeBHQ6ApwOAN1qVnayrL0Pv28AuAaNkn4EEUNApYZJCgA2u29tgSAD9MsdrNpP/dSiUTTe7iAc9Mzg9/mxlX+tv+HvCAAMAfnbYMsMkwaAzfeHgP8hojsIwT3Z6gGA5gMA8ACONhEymT0AcQ9wHPffbwQA92TfHvUq6CVj/8PfMQBaEDD1Iwnwei+p8Zp4FUgyAOJVVpbonQ1/IAAwBGQpfvs8GADtNVJ3RefDHxgAroN1xcJRGtJ16gqY/MwZAEmtcbDhFwKA1pVAsXAUMQSk7TIGgLSlCZBY8OEXBgCGQIA6RmDKAIhA5EhDiBl+oQBo3Q4MGEdrGlwbqRYcrK0CDIC2Eim0QNzwCwdA60qgZBxNxBCQqaMYADJVI0guYoc/FAAwBIIUOBxbBkA4ukbrVfzwhwaA1u2AaRyjAVwTrUgcbTIFGACq90U4wx8qAFpXAqZxDDEEYu8+BkDsJQiQQHjDHzoA3AB1U1+IgFcHUIBNAyrAAAgoYGzm4Q5/JABgCMTWPc8GZgDEXwP/GYQ//JEBYPx2QF9IfCXgvw8EWDAABIgYqYtohj9SALSuBIr6sYh4VaRacjA1Hg/OdXpGgeiGP3IAtK4ESvqxRAyBKPudrwCiVDtIrGiHPxYAjEOg/1gih68EgvSKd9uf5azqm70v33qlbep3AODcID7Ytp0C0Q9/bABo3Q6UCsch0dJ2svDPO1QA8QdEzW/mrTUrOvTwrFndnDMHQXOf2pugc/OCqiLSPp7hjxUAbvCRUuE4hyEgspNcX08C0fG5odoPRDuum8YZCPB10X7T7S++4Y8dAK0rAdM4HgG+m+4mELN799DMUcL5s4YqK8V4nOR2gB8bJ1DaeIdfCgAwBMT0EwKszFrVA8V4m95L3ZzzIgTt71HESm6M+IdfGgC0bgdM43iHrwQ66ncCuCdvVV/VkXGHRk8MHLDTmDb67w7NU24mx/BLBYDWlUDReC8iXJny7vC7/Ue7ncy+Owyv/I9fw6Dr15qFt3UB/Sion3TZyzP80gGAIeB/FJqAb++zKj/2bynGwi4WzgSkC8R4S7oXuYZfSgC0bgdKxnsd4isBD+NwRc6qnuJhXahLbNNYDQCFUIMo71y+4ZcWAK0rgZJ+AhJ+R/m6h7uB/pxVrYQbor132zQWAcDi9ivTukLO4ZcaAAyBtsMixW//iSz5KmCqesk7/NIDwE3QNvUTAfDbbcchZQuaSK/pK9d+K8u2G6b+AQK8WJZ85MhD7uFXAgAMga1bmYAeylu13eRo8vEsniruv9smbP5TppzizUX+4VcGAG6iI6Z+osNXAhM9PZizqofH2+BbR7dN41YAOES2vKLPR43hVwoArSuBYuEkQFoSfUEli0h4cm6oIt1tET863u0TdYZfOQAwBMZBREhz8uXanZJhCewBvR80XCVbXtHlo9bwKwmAFgRKxslAcEV0hZUr0qjzZM/s4fvXy5UVQGPAeAlp8GfZ8oomH/WGX1kApBwCj+Ws6o7RNLW/KCOHFWY5XfSYP6skrFZz+JUGQIohsDIX0bf+/I4mzZ3b3ciNjPq1U3u9usOvPABaEEjdp9DoTzmrtpeMQ/PYwF4zM9r2IzLmFk5Oag9/IgCQQgiM5axqJpyGDuZ13bzC7lo3/SOYF1Ws1R/+xAAgbbcDzhi+sPfminQfuqmX9P2QcI0qI9x5nskY/kQBIE0QIHAOFnHYZ+cDMLll3ZwzF0G7Q7RfufwlZ/gTB4AWBFLwYSECODdvVc+RazBaD4P9OgGcIVte4vJJ1vAnEgDpgICcjWibhntO4IvEDZxMnuTUPKhCGNSBrPZJ/xbhpk1du+x46yppzuRL9vFgyRz+xF4BTEBppKSf4CT1UBGkU3Pl2uWyALhe1Jcg4kmy5CMuj+QOf+IB4G4wqScLIeK9G7v/e+COg/c9Ia7ZO/NUH9DfgBr+vDNrma2SPfypAIC7ycSeMYj0qVy59qW4R8g2je8DwIK48xAbP/nDnxoAtK4EknjkOMHDWje+peemyh/FNr93b3ZRfzcgDnq3UGFlOoY/VQBoQSCBjyGL8olAW47u48XCAd1IPwWA7VUYa285pmf4UweApEIAgG7PWbXIn9zbMI2HCWBXb4Olwqp0DX8qATD+xmDyHk0e9YeDGqbxOwI4QIWx9pZj+oY/tQBwN94o9R9L5FzlrTlUWUWX5azaaWFmO/6V38btADg3zDjR+k7n8KcaAONvDOrHImKyIIBQBsKP5azKX0UPUeNdc15KTbyCh1+0svH5S+wnAb1K2jD1hQR4tdf1KqxDgEccgCUzNFy8/bLKv4Lm/OT8wi6bHDpFAziZ7/mDqimXfeoBMP7GoL4QEwaBZy7vWiDQHLg2O1z9i9/WGynt9zKiriMBYFGyBt9VIr2X/Zv3AQPgGTUapnEMAVzjd0gUWn8bIf0gX65N+/j1/wzss9OMrszR4OA8RDhYof35SJWHf0IsBsBmbbPONI7Rkg2Bid3a7jenAdAGcNx/5wFg4p+ZPiZJwaU8/HwFME3bNkrG0URwrYKdzSm3VYCHf0uJ+ApgkqZpFAtHEdJ1bfuJFyikAA//ZMViAEzRwgwBhWa7bao8/FNJxACY7nbA7D+SwLm+bX/xAokV4OGfrjgMgDatu87Uj9QAGQISj/jUqfHwtysbA6CdQq2PDetHEOENHpbyEmkU4OH3UgoGgBeVAGDdgH6EpjEEPMoV8zIefq8FYAB4Vap15LjxHkC40YcJL41cAR5+P5IzAPyoNf4swsMB4Hs+zXh5JArw8PuVmQHgVzGGQAeKRWHCw9+JygyATlRzIVAqLAAi9zBMfsWuAA9/pyVgAHSqHEMggHIiTXn4g6jJAAiiXuuNwSSeihtQlMjMefiDSs0ACKogQ0CAgp244OHvRLUtbRgAIlRsvTGovwsAfyDIHbuZVgEeflENwgAQpSQArC8Z85sENwl0ya62UoCHX2RTMABEqtk6ctyYjwwBwapOuOPhFy0sA0C0ou6zCOcbJceBZSG4TrFLHv4wis8ACEPV8WcRlhAZAmLk5eEXo+PWXhgAYSnbOm24YCJQOcQQKXDNwx9mkRkAYarLEAioLg9/QAHbmjMA2koUfEG91F9EcqzgntLkgYc/imozAKJQufXGoD7gODgUUTjFw/DwR1VABkBUSru3AwP6AGoMgekl5+GPsCWBARCl2u6VQNE4zEEYjjisIuF4+KMuFAMgasXd48WKxmEaQ2AL5Xn4Y2hFvgKIQ3Q35kjJmOcQLI8rvlxxefjjqgdfAcSlvHslUDLmaamHAA9/jC3IVwBxiu/GbswvvJMcujnuPOKJz8Mfj+7PReUrgLgr4EKg2H8ooXOLBKlEmAIPf4RiTxmKASBDFVoQmHMooZYSCPDwS9J2fAsgSyFatwOmfggB3ipTTuJz4eEXr2nnHvkKoHPtQrFcZ+qHaImFAA9/KE0TwCkDIIB4YZk2SsY7iOC2sPzH45eHPx7dp4/KAJCxKgCwdsB4R5eWFAjw8EvaZvwegKyFab0nUDTeTgg/lDnH9rnx8LfXKL4VfAUQn/aeIttm4W0A9CNPi6VbxMMvXUm2SIgBIHuFWkeOqwgBHn4FWotvAVQokpujXep/K5DzYzXy5eFXo07AAFClUOMQmPNWIE1yCPDwq9RTfAugUrXGH0P2FkAQTq7bAAABVklEQVS8Xc60efjlrMvUWTEAVKuYtBDg4VewlfgWQMWitW4HTP3NAPgTOfLn4ZejDv6z4CsA/5pJY7G+ZLypSfDTeBPi4Y9X/2DRGQDB9Ivd2i4Zb4LYIMDDH3sDBEyAARBQQBnM188vHNx06GfR5sLDH63e4URjAISja+Re6wOFg1GLCgI8/JEXOKSADICQhI3Dbd3sn4vg3BFubB7+cPWN1jsDIFq9Q49mD+j9oOGqkAJdmbOqJ4bkm93GoAADIAbRww65vrTvjg50X0kE7xQWC2FRrlxdIswfO5JCAQaAFGUQnwTNnds9khs5CwAWEcCunUZAgOWIcEVPuZrSk4s7VU4NOwaAGnXqOMsn5xd2GXPIhcCxALCHV0c8+F6VUnsdA0Dt+vnKfl1xzqGapg0AkQ6AswCgDwC2Q4DHHYC1CPQ4EQ5jV9dQbtmqv/lyzouVVOD/AQ7xAfyNhiqlAAAAAElFTkSuQmCC;" vertex="1" parent="1">
          <mxGeometry x="493" y="225" width="50" height="50" as="geometry" />
        </mxCell>
        <mxCell id="ugtfvKyXgLZFdfxOpgOD-10" value="" style="rounded=1;whiteSpace=wrap;html=1;fillColor=#e1d5e7;strokeColor=#9673a6;shadow=1;strokeWidth=1;gradientDirection=east;perimeterSpacing=6;glass=1;" vertex="1" parent="1">
          <mxGeometry x="579" y="220" width="90" height="60" as="geometry" />
        </mxCell>
        <mxCell id="ugtfvKyXgLZFdfxOpgOD-11" value="" style="shape=image;verticalLabelPosition=bottom;labelBackgroundColor=default;verticalAlign=top;aspect=fixed;imageAspect=0;image=data:image/png,iVBORw0KGgoAAAANSUhEUgAAAQAAAAEACAYAAABccqhmAAAAAXNSR0IArs4c6QAAIABJREFUeF7tfQu4VFXZ/+/dcw6XlDSF2QOYVxSYPaBFpaT4YZqIZ/YIJpZpZvmplZlfZqiZn3xWlrc07SvLbmppiQrMngNey7/ipQupMHsQxSRTmD0gkoZczpn9fv89HAwFzpnLXmtfztrPw/PwPGet3/u+v/XOb9Zes9a7COpRDCgG+i0D1G8jV4ErBhQDUAKgkkAx0I8ZUALQjwdfha4YUAKgckAx0I8ZUALQjwdfha4YUAKgckAx0I8ZUALQjwdfha4YUAKgckAx0I8ZUALQjwdfha4Y6PcCoI+fniS3K82uu4G1tg3MeMttczcM7u7agPe+d8MrT87eoNJEMbA9A7M0ffwTgxMbBw7GAG1wV7U6iBLaYHJpMGnVwdpmKq583loTdub6nQAkM7mPE9gk5oMYNA7AiDoGaQWAFQysAPPfNdAKaLxCQ+LFlcV5/6ijv2oSMQb08cfuwu6gA8jl/QDehzTs7bK2D4H3BrAPAL2OkLy8eZbBy9oS2i9WLs4vq6OP1Cb9SgB0I3sTQF/2meFNAF7c+o+YXwToxc2bux9fu3zBGz7bUnA+M5A0sgcTyGDQAQAfQMAoAAcASPlsag2Brinb+at9xm0Jrl8IgD6uY3+42h8AeOot8eE/AvQQw32se5P7pBIEidTvxFTKOCHN5E4E42gwjgFhmGSvHnds6wjJNndqLvYCsNfEGYO73tj4VggI7ybQwy67T4H4yYrdeX8IfIq9CzXxZ+0oMCYSeBKDDgpB0Csd2xoZAj/ifxhIz5hzwJgWBrLf5cOzzDwXhDkVu/BsCP2LrEujRk0d+OagxDQwTQdqYz8wbMEw8/9USoVZQfsV6xlAKm2ewYRfBk1yn/YJ88E8N9FFc6KwctxnPAE1GJbOHpEgbTqDvQ/9/gG5UbdZJvpEpZi/t+4OAhrGVgB6FnceAbC7AN5EQa4BaA657tzy0sJ8UUbihJvM5HS47qkaadMYPClisa1koqmVYn5xUH7HVwDS2VlEdHlQxLZslzGXNf5xpVh4oGWsGAKMmGC+x93E5zLXftWRvLjrK6EXOLZ1va+IDYDFVgB0I/sUQIc2wEVYm/6OiG8uFwvebEY9AJKZ7BcIdC4YmcgTQpjtFK2Tg4ojlgIwdMz0gxKJ7tBtumhlkAm43fVmBEsKT7aCE+W+yXT21NoHnzAxynFs6zuDX6nYhfcHFU8sBSCZzn2NiK8NilTBdn/mMv1odSn/tGA7oYHXjazZs4Hr2NA45aMjTIlRleJcbzOZ9CeWAqAbprfpZ7J0NuUZfIuZr2kbTFevXGSFYY+DkMhHjM+Nrna7M0H0eSEGQgLKRMdWivkHg3AnpgKQfRygjwZBqEybBDzNoKsdO/9bmXZl2EoZuZkM/jqAoTLsBWmDiU+sFAtzgvAhpgJg/hnAh4IgNAibRHxduVi4MAjbftscOjo3JNGGWwH2NvH0i4eJPlMp5n8dRLBxFQBvZ934IAgN0Oad1W46Z82y/Ju9+eBtjd785qYD4R16cbEfCPsR8X5geKfe9gNoUPMx8EaAXgLhJWZ6CYyXoOElAMsHDBn4Ql9Hq/c8ODuyrZtuBXB08z5EryczvlApWT8JwvO4CkAJwNggCA3Y5iPVats5PLBrfXsVBzJjFAMHaiDvhNt+APZl4H1B+UjA696xagAvueDlBLxAhOVdCbww0KUhVdf75sdHgvIvKLvMdGGllL8uCPsxFYDsctSOd6pHMRB+Bhi4vGJbVwThaUwFwHwZQGC/rQYxkMpmdBlg8NUVu3BREBHEVQDKdVZsCYJzZVMx8A4GGPhRxbbODYKWWApA0jDXUoDvukEMpLIZXQYYuLViW2cEEUEsBUA3TG8lfNcgCFU2FQONMsCguyt2fkaj/fxoH1cB8Or0DfCDIIWhGBDNAAP3VWxrqmg7O8KPqwBwEGQqm4qBJhl42LGtY5rs21K3uAqAmgG0lBaqs2QG5jm2FUjZurgKgLA1ACL8lRkflJwgylyADAgfc8KvnaL1mSBCjKkAZF8DaA8RhBLj2nLJ+vrIMdP37GrrmkCuNgHkHgamiQGUmBYRYv/FZKz2KjaDtadYcxe1d7cvevW5Oa/pafM7IHxDFDHEdHO5lP+iKPzecGMqAOYqARc7bOXxZ45tnbUjUvVxx49DNTGZCVMJCGRRJ4gkirjNB0HcCXJ/7yyZv2RHsaSM7HUMukBUnMx0TaWUnykKvz8KwN+F1Ymrs4TTMCM3SmOeqsQgiLTu3SYTHtWYOsHcWS5Zdl8eJo3cDwksbKOO2grc1wg0+HfdMF+onXYT8zzg2NaURqCVGDTClrC2f2agkNDczlVLOhc1YkU3zJ8BOLORPg22DawwaFxfAYoAjAYHod7mf3Jsq+lio/rYjmOQ0D4Lxmn1GlTtmmeAgHtcojtaqb+vZ8zbxY4Xne3Y+Vuaj7L5nrEUgJRh/pWBDzRPy857EmNZuWSNaRV7eCb3IZfZW0s4u1Us1X8HDBD9RgNuWFXM/6VVfpJGbjaBT2oVp5f+n3Zs606B+DuFjqUACC4J7ji25dvNscPHdUxwXc0TASUEvnwC6AkmXNfKN/673dAN0wKQ9cW9HYEQTKdoFYTh9wIcSwFIGblHBd4Ss9GxrcF+D1Yynb2AiAIpCuF3LIHhEX7pFC3fC4jqmeyDYBK2U4+Ijwrq3odYCoBu5O4VWVMu0YVhIu7w08edMA6uG9g1UYF9cP0wzHyJUyp8zw+oHcwARK4pIcG8z8pSwathIf2JpQCkMuY1zBBWJFNj98hVpc7HRIzWyPEn7tVd7fqHCOy4YhJRtlzMd4qKT8+Y3WAkBOFXHdtqE4TdJ2wsBSCZyX2RmH/UZ/RNNmDGOZWS9dMmu/fZLZXOzWDiu/psqBpA9DXbEm6ZesGxrYOCGsp4CoDRMYWg3SeQ1Bsc2/qqQHzo6ewlILpSpI3IY9e5KauVOPW0eQIIc1vB6KNvw/tK/PQllgJQ23gD9jYDCXkIfH/ZLhwnBHwb0JSRPZdBPxRtJ5L4Ej78Hi96OnsxiL4riqMgzwF4McVSAIBZmm4sqooaNAB/d2xrX4H4b0PrGfNSML4twNZzBKxg0DoirGPmdWD+JwPriHidi8Q6zeV1iTas66pW1+3y1lvrPB/e2vW9u7Vp2L3a3b07a9pumku7M9FuRO7uvM3/wbRbz3mMQwD4+44r6cPvxZs0srcS6HQB/NcgiXhmuVi4RhR+X7gxFQBPuc2/eZde9EVAs3/f1J5437pn5tY+FKKfZKbjo8TalwGc0oStNxj0LMH1Lkt5lkDP7rqpe/Hy5Qu8mglSHn1sR4YpcYim8cEMOgTMnig0fOVXbQ+/Sz8sl/KzpTjuzQCM3NNAzV8hD4FnlO3C3ULA6wCNrwAY5kMib5hhF9MrSy2R74bbDV8qbXqHiz4B4LAdb3XmF70PuOt90BnPkpt4tvzcXO8ijtA9I8dP3avbbauJAUM7mLZ8yHZwfoO9W3O9q94eduyCtydf2qOPn55EtdsRaVBzecKqpYW/irTRG3acBcC7aknk7jrhC4G9DVwyk9PBGJWg6toqEmsrA19di0WLuoJKJF/sTpjQntw0co8EqntUObGH67b9bc3Se72j3YE8KSN7EoOEzjYGau4eLy/p9G5MCuSJswD8F4DrxbFKzzh2Xsh5A3E+K+RGGNAz5o1gnNdInwbbSltL2plfsRWAnsM23tRR2JPQMHblEus5YQYUcKAM6Ib5DICDRTlBwO1l2xK2wFiP37EVAC943TA3AGjhttveKSTg4rJtXVUP0apNtBjQM2YWDO8QkMCHz5K9rvHuYOItAJncg2AWdogD4Gccu6BeAwR+RIKC1g0zD8AUab+aoDFrFueXibTRF3asBSCZzl5ORLP6IqGVv2vASats655WMFTfcDEg59sfvh4rb5bBWAuAns4eDSLv50BhD4FuK9v5zwozoIClM5AycrcyWOy7ucTNTL0RGGsBGDVq6sA3B7ZtFJxBKx3bGinYhoKXyIBumK8CGCHSJDGdVy7lA9/mHWsB8AZQN8w/AfiwyMFk0BEVO/+4SBsKWw4DSSN3OIEXirbGRAdXivnAaz/0BwH4PgChJ/dEH0kVnYwK/98MJNPZWUR0uWhOEgkaszLgBUAvxv4gAN4rwECRA6oEQCS7crF1I3cDwOeLtkrAwrJtTRJtpy/8WAuAbpiitwPX+FUC0FeaRefvUhYAe+ggxufKJetXQbITWwFIZbKTmekPMshVAiCDZTk2ZPz+v00k3YkuDBdRX7JetmIrAIJvB3oHv2FZ0a130FW7nTOgG9k7AfqUNI4IP3GK1hek2XuXoVgKgIwNQNvy6Lp80OqlBWEViIJKjv5ot+fI9Xypsat7AfyjW+bUv2cV9emybX3QvwgUUtAM6IYp7nLZHQe3ePD6PQ9dseJXovesbGc9djMA3TC99/7JEpPoese2hF0dLTEOZaqHAQnHgLfnmnGlU7IulT0IsRIA2VN/AI7r8iQ1/ZedtmLtDRubPVDTyLv3QRdr6Z3oBPpY2c5LWbjeajk2ApDM5MYTs1f3TubzVce2bpBpUNmSw4BumIILymwfBwH3lm3LK/km7YmNAKTS5jVM4m4D2v7liR5yivmPSxspZUg6A7rw4+Q7EAHmQ8ulgrd9XcoTCwHw6uP1fPvLmrKVNSLTj6unpYyyMtIUAz1VpbyiIL7dBt23I/QDx857sw8pT0wEwLyQGNJqq7OG6ZUlcisCS8kGZWQ7BpLjzGnkYo5EatZU3fbxsoqhxkIAdMP03v3HSxkkxlecknWTFFvKSCgY0NPmeSDcKMsZJny9UrSulWEv8gKQzJifIcZtMshi8NUVu3CRDFvKRrgYSBrZqwg0U45X8krNRV4AdMO8H8CxEgbmDse2TpVgR5kIKQO6Yf4GwKfluEenOHb+t6JtRVoAkpnsscTkCYDop+yCJq2288tFG1L44WWg59JZb3+AjEVBy7GtnGg2Ii0AKcO8jYHPiCYJ6r1fOMVRMSBzPUBGpanICsCIdHbvKpG3Z1vow8CCim0dL9SIAo8UA0nDnE/AVAlOC99mHlkBSKazpxLRr0UPgsvukatLnd60Tz2KgRoDw9IdkzTSHhVOB+NJp2R9VKSdyAqAnjFvBuMckeSAcKVTlH9AQ2hMCtwXBvSM+R0wvuELWC8gTJSqFPPCbiiOrgAYZnHHV2T7MyQEPF3lQUeuLs3+lz+ICiVODAxLz9g1QRsfZUDozVAEnlG2C3eL4i6SAjBifG50tcqiL+VUB31EZV1McCUdGBK6DhBJAUhmcl8k5h8JzCMHibbxzuI5FYE2FHTEGdDHT0+i2u3V9hd3BkXwOkAkBUDPmHeBMUNg/ghVXYF+K2jJDOiGKfzeicQg7LJykfWWiNCiKQCGuUroZgwXE52l1lMiCFeY8WJATx9/KCghNFeYeEqlWHhABHOREwAJhT/+5tjWASLIVpjxZEA3sk8BdKi46Ojbjp2/TAR+5ARAz+TOB7OwKjzqtl8RaRZvTAml6B5xbOsoESxGTwCEv3PR2Y6dv0UE2QozngyIfg0g0PNlOz9aBHuREwDh+/9dd5yztNPbY6AexUDdDOiGuQLAPnV3aKzhese2dm2sS32tIycAesbsBEPU3vwXHNs6qD7qVCvFwL8ZSBrmAgKOE8XJ5g0bdn/9bw/902/86AmAYf4RwEf8JqKGR/Qbp5g/TQi2Ao01A6lM9lpm+pqoIDVy06uKnUv9xo+iALwIYH+/iajhMZ3plPK/EIKtQGPNgG6YpwC4Q1iQzMc4pcLDfuNHTwDSuXUg3s1vImp46vd/IbT2B1B9rHkYNDwpKlYmnF4pWrf7jR8tAZgwoV3fOGKz3yRsxRM1zRLlr8INDwPDMx1jXdZKojwi4OKybV3lN36kBGDo2CnDE9qAlX6TsBWv2k0j1yzLC8MX5bfCDZ6BoaNzIxJt/KowTwg3OkXrfL/xIyUA+tiODDRtid8kvI2X2LSrs/iB9cLwFXBsGdDHH7sLqgOFHR1n4J6KbZ3kN4GREgDRV387w95sxyOPdPtNssLrBwxMntymrx7SJTDShx3bOsZv/EgJQM9VTX/2m4SteIkuDFv5vLVGFL7CjS8DIw4yh1bbsVpghPMc25rmN37EBEDsQosLOlCV/vY7xfoHXk/J8BeERUv8G6dY8H2PSqQEYETmhPdX2X1ZFMka0YfVhZ+i2I03rujZKQg/cYrWF/xmMVICsPe4jvdtcrW1fpPwNh7BdIpWQRi+Ao4tA3rGzILh3SQs5CHi68rFwoV+g0dKANLpGQNeo42b/Cbh33h8mWMXvi0OXyHHlQHdyH4ToG+Jio+Z/6dSKszyGz9SAuAFrxumt0i3p99EeHgMurti50WWGhPhtsIMAQNJIzebwL7/TLc1NGY+rVIqeHcT+vpETwDS5hMgTPSVhX+DLXds60BB2Ao2xgzohuktAI4SFiJXD3NK872DcL4+kROApGH+koAzfGVhG7C2atvQV5+b85oofIUbPwZGjpm+Z3eiW+jPx+3YvOcr9v2+r39FTgD0dO4SEF8pKo0Y/NmKXbhNFL7CjR8DSSN7OoFuFRcZr3XsgpDX3sgJQNIwP0GAsJtSwLjLKVmfFDeYCjluDOhp83cgnCwuLv6jYxcOE4EfOQFIjZm2LyeqL4kgowdzfTs27y1iuiXQZwUdEAN7GVP26MIAb2/KLqJcIND3y3ZeSLGRyAmAR7JumJ4A7CuKcIDPcuzCz8ThK+S4MJBKm2cw4ZdC4xG4PyWSAiB6IRDA445tHSF0UBV4LBjQ02YnSFiNyi0cJdp0UdfURVMAMtkvENOPRWYQET5ZLlp3ibShsKPNQMowP8zAn0RGQcDCsm1NEmUjkgIgfN91bVMQ7qvY1lRRxCvc6DOQTOeuJuKvi4xE5Pu/53ckBcBzPGVklzFIaAlvYjq5XMrPFjnACjuaDIxIZ/euEnkbc1IiIxB5L2DEBSB3HYMvEEk+BF/NLNR3BS6UgaSRu4rAM4UaAWzHtjIibUR4BpA7isG/F0lOD/YFjm1dL8GOMhERBnpK03nf/u8R7PJVjm1dLNJGZAVgy2uA+VcGPiCSIAa/olXbJpWfm+td/aQexQBS6dyPmdj3s/nvptZlnrS6VFgokvKIC0D2CgYJuTZ5W9IZ+FXFtj4nciAUdjQY0DPZT4LptxK8/ZNjWwKvHN8SQcQFQPzPMFsHmhifK5esX0kYeGUipAzo4zr2h6s9KOxmqm3iJuKZ5WLhGtFURFoAPHL0tDkHBN+LJe6A+BVUTRylXgVEp2R48XXD9L75ZZwTWU/VREZGrkVeAFJp82Qm/E5S2vzOsa1PSbKlzISIAd3IfRNgYRV/gnrljLwA1GYBhvkMgIPl5Avd4tj5s+XYUlbCwIBumP8FQNovQaRxR3lJYb6M2GMhACnDvIiB78kgrGfl5FKnaAmrSSAtDmWoTwaGpzsmuaQ92mdD/xr82bGtj/gH1ztSLARgWPr4lEYJb0/2+2URp7F25KrSvMdk2VN2gmFAN0yWapnoTKco74r6WAiAN0DSZwHeeQGNP1pZUhB2JbTUxFPG3sHAHuOn7tVebfuHTFoY9FjFzh8p02ZsBGDo6NyQRBt7s4AxMgkUvVdbZizK1hYG9PQJh4Lcp+Tz4Z7i2J0y9hi8HVpsBGDLwJnngXCj7IEj8IyyXRBXpkx2QP3YnvCSczvhloD7ygGcPo2VAAAzEsn0xj8SYYLsHCbgirJtXS7brrLnHwMpIzeTwVf5h9gIEuccuyDsZqGdeSJdAEaNmjrwzYHtUxg8hcBTANoVREvAXCTgBda0550l8x5qhLpt2ybHmtNIw5xm+7fWj/OJhDZz5eL8stZwVG+ZDOw1ccbgrjc2ejPH/5RpdxtbNzi29dUgbEsTgNpKvZb4BoBPgTGsj2DvIOCGsm01dRW4bpjeb7beb7dBPC+DeKZTLMjanBREjLGxmczkxhPzDwBMDiYoemZTu3bUumfmrgvCvhQB0A3zFABXNHhzSpWIb0ho1RteXbzglUbI2f2QabsP7HL/APAhjfTzue33HNu6xGdMBecjA8lM7kRy+UYQRvoI2xAUu5heWWrNbaiTj42FC4APu6iepU3dHy8vX7C6kbiDfRXY4qlXVow0baazZN6SRnxXbcUzEOz7/tvxBTb13+qBUAFIprOnEtGvfRhOy7GtXKM4qUz2WmYSUk+9AV/KIHzTKVo/b6CPaiqIAX389CSq3d8J8H2/FplX7JMTm45zFj+wXlCodcEKE4CeCxO8LZRGXZ700YiYbi6X8l9sCGvC2e36hlUPgvAfDfUT0JhA97uoXl+xO+8XAK8g62BAz2TPh0vng7BfHc1FNllHzFPKpYLQisL1BCBMAJLp7AVEdF09TtTbppk70pPjshPJJe9XBdHlm+oN4+cE7ftle16p3g6qXWsM1NagCF8BQ8j1Wg17x+6ZTqnzFw33E9BBmACkjNyjDPa5njm/6PK/DlldeuRfjXAR1AahXnx8g5m/3725ev3a5QveaCQW1bZ+BnTD/BhA5wPc8Otj/VYaaym6zHdj3giqCCTy/j4m/mKlWLi50UBTRu5WBp/eaD/B7W0QrlfrA/6y3FO08/yg3/O3i4ox3ylZHf5G2xqakBlAalz2eHapszXXdtq7qco8++47edCGXYZ4rwKHC/Kradgt6wN8S8W27mkaRHVE7YtHq54FgvfhF3ZZZ5NU25sHDTr89UWz/9lkfyHdhAhAMp2dRUTCtsU2W6QzmcnpBF4EDu53395GkRmLALrD5bY71yy9d5WQEY8hqPeF47o0g4AZIfzge4yv19yqsWrp/L+Hjf5ICoBHYrNFOoeOz41OVPm5sA3Eu/xZA8Kd0HCHs9gK4FRayNnxjn+PmbYv2rpnMJP3of9wmD1mooMrxfziMPoYWQEA0NSrgDcIqXT2I7zlWqcIPJQHcKdj56UeEw0rMRH4tn8HdZpL/7FqaV5mRaGGhk6IAKQM80sM/G9DnjTRmIDby7bV1MJeKpOdzEx/aMJsUF0Wg/lOTeN5q4qdS4NyIgi7wzMdYxmUjcK3/bb8EPFR5WLhkSA4q9emEAHQjVwO4Hn1OtFKOwJdVLbzVzeDEUERqIVJwNNMWOjtJuvuooVrluVXNhN/WPuMOMgc2j2AjiTmScyYFMTx7la5icKHvyeXWg11+/5Dx544PKF1SUtKcrmjvLS5KqpRFYFtWO8GsBCghQxaSIkNC4PeXtpMRtWKb2raJGI+kkHe/pGwbNxqOJyofPiFCYAHrBumN72WdcRyaYL5uJWlwssNj5a3JhC914HewnzNE4TaDMGtPuaU5odyrWOYkRtFzB8jDZPA8D7w+zQzdmHrE6UPv1ABSKazlxPRLGkDRJjtFK2Tm7U3Ypw5puoihu/W/EdmLABhbsUuPNssP370q9VtTPAZTJhKwFQ/MEOEUa66mz+4Zun9kfr5VsgagDcoPYeBvG+fUbIGiYHLK7bl1R1o6nnf/sfsNuA9g+8LzZ7xpqLYaafXGHxBxS7c5i9sfWi1WRboJjCE3ndfnzd+t6LfOoNePR2LFnX5jSwaT5gA1F4DAijSSdBmlO15LRXo1DPmzWCcI5r8QPCZv+GUCt+VaTuZzn2NiK+VaVOiresd27pAoj1fTQkVAM9TMYeCeuOAPBU+ybHz3u/nTT+6YX4bwKVNA4S4owuautrO3yfDxWSm46PE2uMybEm24TLTzEop7+uJV8kxiL8ePJU2pzJByj1n25C3nolPrBQLD7RCaK2gCeiqIEtGteJ/r31dTHSWit1lOHTslOEJbYC36/K9wuIIBvgvAC5ybOv3wZj3z6rwGUDtVSBj3gjGef653TcSA68nyD281U0zKeOENMP1SkVn+7YaqRbPuVw9anVpflmU1ynDvIeBE0XhB4NLtwzUqhe9vKTz9WDs+2tVigD03N3n3aMnbUGwhybH5UGjVpdmN1Q/YEcUp4zsFQy6zF/6g0VrZRNVX573FGJ5oq92Ufm794WiEV1aLuZ/HBWf6/FTigB4jqTS2c8xURBVUP7h2Nbe9ZDRVxs9bZ7AwGVR3Jm2k9hsx7aErMrrafMHtSo8MXgYdDcI3wrrgZ5WKJYmAD2vAneBa0c2JT/8omMXfJl9DEvP2JVow2UEmik5CCHmRGxc2XffMwZt2OU17+hrUojTskAJr7KLb1VK1k9kmZRtR6oA9FzC4C3M6QEEurBsW76VKEtmssdqTJcxcITsWPy0x0SfqBTz9/qJ2bNuYvuJKRuLQLdVgW+ttvPLZduWaU+qAHiBJTPmZ4gRyGYU7xDNHjzosFJp9mZ/SJ6lJdN/uYyIvN+BI7rSzWc5duFn/vCxBUXPmFkwpN9z50sMjCcJdH25lJ/tC17IQaQLgMdHKm1ew4QLA+GG8VIigeNXLrF8KwrS843nicCZgcTUglERC4F6JvsVMHnXbUXmYfArXsFOx7a8a+X6zROIANS+JQzTq49/bBBME/A6XD6t2ROEO/M5aXRM0ZD4qnfxaRBxNWOTmM4rl/I/bKbvzvqk0rkvM/FNfmIKxrq+LdH+/VcX39vQFXSCfZICH5gABLke8DazzJc4pcL3/GZaz5hngnE2gI/4je03nohdgcOM3HEaeIHfvvqMt4FBv2DGz1eX8k/7jB0ZuMAEwGMoyPWArSPEwD0MuljEYk/SyJ5OTJ8Pw81EO8vIhIaxfr4OeXZCfrJyLTF+oSXwc7/jjsynfhtHAxUAz49A1wP+TcTfAbpYVN29VDo3A8SfZ+C4kCXJysHr3zxgxYpHNvrpV08J9hc9LfATt0Wslwl8K7nuz8NYnbfF2JruHrgAeJ4HuR7wDuYYN7JGV1aKeadpRnvpmMrkOhjuKWDyrkvXRNhoBLOZq9bqxRddGr5eP8D4fwzc6VbpjjXL8m/W3a+fNAyFANTWA8A+/Z9HAAAJvElEQVTzw1Cvn8DPA/hOWeC5+RHjc6OrVZwG8KcB7B9Qrq2suu0fEnX/QE9ZOO/QTBCzgM0M3KGBbivb+SgVfpWeCqEQgNqrgJE9iUFh+u31TmJ8p1yyhG5o6blC3atsLPUXEZHf/luzOKBZwAaX6fD+vLDXiIqERgBqrwIZ81IwvHP4YXnWMvNNLg/4iahvyp5XIJn1E71bVX7jFAunySBZz2R/DaZTZdjaaoPA3yrbhf+WaTOqtkIlAD0iEMZqPCuZ+RYRQqAbHTlAk1JCvSdJH3Fs6yiZCSu5QCzAvGRPDP6Qfzs+ZbIl11boBKAmAmmzE4Tj5VJRlzXfhUBPm7eDvPUAKY/0D//WqKSLAPBpx7bulMJqhI2EUgACmRY3MoiM1QT2il3c7ZQKDzfSddu2Pb+XPwNgYLMYDfQL7MMfhAgQcE/Ztk5qgJ9+2TS0AhB6EXg7XfgJZtzTBtzd6L0EEhfJHmn/56DjX3ll9oYgs3yvvWYM7tpto1ceTsp9EQnmfRodkyD5CcJ2qAUgOiJQG7p/EXA/My1iDX95z7/eeKyvDTa6YXo15cS+jzMtQZVPcJZZLwWRYO+2qY8290OC5oF4nAR/1GtAHySHXgAiJgLb0r0ZjEWk8RPs0mOsJYqV4lxvd1zt2f2QabsP7KquAZAQ+UFg8GeDugtgZ3HpmewnwST8tmMG/W/Fzn9ZJL9Rx46EAPSIwEMAjo444S6A5///BqDnwcQgnCAyHgbuq9hWKG/gkbP4Sc84dv4DIjmOOnZkBMAjOmXkbmVwU9eBR32gmvFfxEm/ZvzYUZ9U2jS8+wu9yZBfmDvCacfmPV+x718r0kaUsSMlALWZQCZ7JZguiTLpMnxn0G0VO/9ZGbaatZEyzIsY8P049rb+EOP4cskK+9HkZilsuV/kBMCLWOLqecsEBwVAzIeWS4U/BWW/Xrt62vwbCPvV277hdoyvOCUrSsVJGg6xlQ6RFAAlAr0POQG+FkBtJcH66qsb5i0A/rOvdk3/nXCTU7RiUZ68aQ566RhZAdgiArVLJ68Ow9FaEYPTLCYBF5dty7vNKPSPVyuBie8S5SgDCyq2FcZdpaJCbgg30gLgRaqns0cz6KoYXdbR0ADuqDEN6E6Wn16wumUgSQC6YXo3N+0iyNxyx7YOFIQdedjIC4A3AnsZU/bowgBvJhC5qrz+ZxDnHbsg9OdFv33WM6bQC2Mc24pFnvvNu4cXK2JSRvZcBnlC8B4RZEUBk5kujNqV1T2vcteK4rfqto8QeZxblN8ycGMlALV1ASN3uHceXPgWWxmj05yNyG1/1Q3TK5F2R3Ph9t1L09wPrVrSuajvlv2vRewEYOsQ6kb2m9hym++A/jSsIu76E81fKpOdzEziSncRTKdoFUTHEUX82ApAbTYwLjsRLv03ha8ar7BcqVbbRq95bo5X1zAyz9Ax0w9KJLqXiXKYGedUStZPReFHGTfWArB1YJIZ80JieCWihkR5sOrxvdpN741a9duho3NDEm38Rj3xNdNGRv3DZvwKQ59+IQAe0UPHZj+YSNBlYEwLA/GifIjqirdumCyKEyUAO2e23wjAVgpq1YeZvhzm23pa+SAoAdiePSUASgC2Y8C7v48Y5zIQq+OiSgCUADTyBdLvZgDvIGfC2e36xlVewQjvX1AXdDQyXn22VQKgBKDPJNmmQf8WgB4iRhxkDu1u43OJaAYAoxECw9ZWCYASgEZyUgnAu9iqHU7ReAYYnhhE7lECoASgkaRVArATtlLGCWmXqzOiNitQAqAEQAlAIwzU0XbL9d7IMvPRIIyso0tgTZQAKAFoJPnUDKARtry6hGlzKoiOYbBXoPTgBrsLb64EQAlAI0mmBKARtt7VdpiRG6UxT2XCVAJCUX1XCYASgEZSWglAI2z10VYf25FBggywlgFzBoQMgFE+mugTSgmAEoA+k2SbBkoAGmGribajRk0duH6wlmE3kWG4nhgMAej8JqDq6qIEQAlAXYnS00gJQCNs+dRW5L53JQBKABpJUyUAjbDlU1slANsTKZITdRZg54mrBMCnD3UjMCKTXc0A1AygkVxUAtAIWz61VQKgZgA+pVLLMEoAWqawcQAlAEoAGs8aMT2UAIjhtVdUJQBKAAJIux2aVAIQwEgoAVACEEDaKQEIC+lKAJQAhCUX1QwggJFQAqAEIIC0UzOAsJCuBEAJQFhyUc0AAhgJJQBKAAJIOzUDCAvpSgCUAIQlF9UMIICRUAKgBCCAtFMzgLCQrgRACUBYclHNAAIYCSUASgACSDs1AwgL6UoAlACEJRfVDCCAkVACoAQggLRTM4CwkK4EQAlAWHJRzQACGAklAEoAAkg7NQMIC+lKAJQAhCUX1QwggJFQAqAEIIC0UzOAsJCuBEAJQFhyUc0AAhgJJQBKAAJIOzUDCAvpSgCUAIQlF9UMIICRECkAAYQTepOqLPjOh0gJQADpqwRALulKAJQAyM24PqwpAZA7HEoAlADIzTglAKHiWwmAEoBQJaSaAcgdDiUASgDkZpyaAYSKbyUASgBClZBqBiB3OJQAKAGQm3FqBhAqvpUAKAEIVUKqGYDc4VACoARAbsapGUCo+FYCoAQgVAmpZgByh0MJgBIAuRmnZgCh4lsJgBKAUCWkbpibAAwIlVMxdoaYziuX8j+McYhNh6bOAjRNXfMddcN8CcC+zSOono0wwMBJFdu6p5E+/aWtEoAARlpPm0+AMDEA0/3SZNXlCWuWFv7aL4PvI2glAAFkhZ7OXgyi7wZguj+a3OQMGj4Ei37a1R+D7ytmJQB9MSTg70PHZj+Y0GiRAGgFuT0Djzu2dYQiZscMKAEIKDN0w8wDMAMy32/MEtPJ5VJ+dr8JuMFAlQA0SJhfzfWMmQXD8gtP4eyAAcIvnaL1ecXNzhlQAhBgduhG7qcAnxWgC3E2XXZBk1bb+eVxDrLV2JQAtMpgi/11w/wDgMktwqju72aA8RWnZN2kiOmdASUAIciQZDo7i4guD4ErsXCBib5UKeZ/HItgBAehBEAwwfXC62nzPBC+ASBVbx/VbjsGLBB+6hStguKmPgaUANTHk5RWw4zcKA38JTAOUxuF6qZ8DUBzyHXnlpcW5tfdSzWsMaAEIMSJMHTsicPb2zaNYKYhIXYzENe6q3ijbVD1H+WnF6wOxIGYGFUCEJOBVGEoBpphQAlAM6ypPoqBmDCgBCAmA6nCUAw0w4ASgGZYU30UAzFhQAlATAZShaEYaIYBJQDNsKb6KAZiwoASgJgMpApDMdAMA0oAmmFN9VEMxIQBJQAxGUgVhmKgGQaUADTDmuqjGIgJA/8HA9kR4vGyODEAAAAASUVORK5CYII=;" vertex="1" parent="1">
          <mxGeometry x="599" y="225" width="50" height="50" as="geometry" />
        </mxCell>
        <mxCell id="ugtfvKyXgLZFdfxOpgOD-16" value="" style="edgeStyle=orthogonalEdgeStyle;shape=connector;rounded=0;orthogonalLoop=1;jettySize=auto;html=1;shadow=1;strokeColor=#b85450;strokeWidth=2;align=center;verticalAlign=middle;fontFamily=Helvetica;fontSize=11;fontColor=default;labelBackgroundColor=default;endArrow=classic;flowAnimation=1;fillColor=#f8cecc;entryX=1;entryY=0.5;entryDx=0;entryDy=0;" edge="1" parent="1" source="ugtfvKyXgLZFdfxOpgOD-12" target="ugtfvKyXgLZFdfxOpgOD-15">
          <mxGeometry relative="1" as="geometry" />
        </mxCell>
        <mxCell id="ugtfvKyXgLZFdfxOpgOD-12" value="项目实战之前所学内容" style="text;html=1;align=center;verticalAlign=middle;resizable=0;points=[];autosize=1;strokeColor=none;fillColor=#66FFB3;fontFamily=Helvetica;fontSize=12;fontColor=#000000;labelBackgroundColor=none;fontStyle=1;shadow=1;glass=1;rounded=1;dashed=1;" vertex="1" parent="1">
          <mxGeometry x="554" y="390" width="140" height="30" as="geometry" />
        </mxCell>
        <mxCell id="ugtfvKyXgLZFdfxOpgOD-20" style="shape=connector;rounded=0;orthogonalLoop=1;jettySize=auto;html=1;exitX=0;exitY=1;exitDx=0;exitDy=0;entryX=0.922;entryY=0.069;entryDx=0;entryDy=0;shadow=1;strokeColor=#b85450;strokeWidth=2;align=center;verticalAlign=middle;fontFamily=Helvetica;fontSize=11;fontColor=default;labelBackgroundColor=default;endArrow=classic;flowAnimation=1;fillColor=#f8cecc;entryPerimeter=0;" edge="1" parent="1" source="ugtfvKyXgLZFdfxOpgOD-15" target="ugtfvKyXgLZFdfxOpgOD-19">
          <mxGeometry relative="1" as="geometry" />
        </mxCell>
        <mxCell id="ugtfvKyXgLZFdfxOpgOD-15" value="" style="rounded=1;whiteSpace=wrap;html=1;shadow=1;strokeWidth=1;gradientDirection=east;perimeterSpacing=6;glass=1;fillColor=#647687;strokeColor=#314354;fontColor=#ffffff;" vertex="1" parent="1">
          <mxGeometry x="399" y="375" width="90" height="60" as="geometry" />
        </mxCell>
        <mxCell id="ugtfvKyXgLZFdfxOpgOD-14" value="" style="shape=image;verticalLabelPosition=bottom;labelBackgroundColor=default;verticalAlign=top;aspect=fixed;imageAspect=0;image=data:image/png,iVBORw0KGgoAAAANSUhEUgAAAQAAAAEACAYAAABccqhmAAAAAXNSR0IArs4c6QAAGmVJREFUeF7tnQmUXFWZx//fq06nqjqLOwpdr7qqw4gwBnEXEZnRjAqIA0dw3IKoo+MO6BwH8QDKOoJoOIyjbC4EZHAcFyLIOAoIjIqAhMVRk65XVd0iiI4TSKqqk+73TV4nwU7opGt59y11/31OzhH73u+73++79etaXt0nTc9V8IcESMBKAkIBWNl3Fk0CMwQoAG4EErCYAAVgcfNZOglQANwDJGAxAQrA4uazdBKgALgHSMBiAhSAxc1n6SRAAXAPkIDFBCgAi5vP0kmAAuAeIAGLCVAAFjefpZMABcA9QAIWE6AALG4+SycBCoB7gAQsJkABWNx8lk4CFAD3AAlYTIACsLj5LJ0EKADuARKwmAAFYHHzWToJUADcAyRgMQEKwOLms3QSoAC4B0jAYgIUgMXNZ+kkQAFwD5CAxQQoAIubz9JJgALgHiABiwlQABY3n6WTAAXAPUACFhOgACxuPksnAQqAe4AELCZAAVjcfJZOAhQA9wAJWEyAArC4+SydBCgA7gESsJgABWBx81k6CVAA3AMkYDEBCsDi5rN0EqAAuAdIwGICFIDFzWfpJEABcA+QgMUEKACLm8/SSYAC4B4gAYsJUAAWN5+lkwAFwD1AAhYToAAsbj5LJwEKgHuABCwmQAFY3HyWTgIUAPcACVhMgAKwuPksnQQoAO4BErCYAAVgcfNZOglQANwDJGAxAQrA4uazdBKgALgHSMBiAhSAxc1n6SRAAXAPkIDFBCgAi5vP0kmAAuAeIAGLCVAAFjefpZMABcA9QAIWE6AALG4+SycBCoB7gAQsJkABWNx8lk4CFAD3AAlYTIACsLj5LJ0EKADuARKwmAAFYHHzWToJUADcAyRgMQEKwOLms3QSoAC4B0jAYgIUgMXNZ+kkQAFwD5CAxQQoAIubz9JJgALgHiABiwlQABY3n6WTAAXAPUACFhOgACxuPksnAQqAe4AELCZAAVjcfJZOAhQA9wAJWEyAArC4+SydBCgA7gESsJgABWBx81k6CVAA3AMkYDEBCsDi5rN0EqAAuAdIwGICFIDFzWfpJEABcA+QgMUEKACLm8/SSYAC4B4gAYsJUAAWN5+lkwAFwD1AAhYToAAsbj5LJwEKgHuABCwmQAFY3HyWTgIUAPcACVhMgAKwuPksnQQoAO4BErCYAAVgcfNZOglQANwDJGAxAQrA4uazdBKgALgHSMBiAhSAxc1n6SRAAXAPkIDFBCgAi5vP0kmAAuAeIAGLCVAAFjefpZMABcA9QAIWE6AALG4+SycBCoB7gAQsJkABWNx8lk4CFAD3AAlYTIACsLj5LJ0EKADuARKwmAAFYHHzrS5ddQqCCiAPC7BYg3+KxY6DRarI28KGArCl07bWqbhfRe8TRQXBP0cr8P1KbvTB+u6QqCKzoe4uWTg1sHhKtyzJDDiLxddRhb7MceSlqnh+v+CkAPqlkzN16M3my5HDzOfoLYMIfugrrnMG/O9lCxPre4v2xNmNiX2GZXLgUDi6AoJXQzEcdo6o4lEAUZGOJI//V7nShDEJNL3CTUAyBaCKu5wMvgrHv8HEg363zxbWLVvYcDavcBw5HNC3AFgaSatDSkIBhAQyGWHsE8DMAx+4JFuuXxJ3D5pjZRfOVCCB4N9z415PO/kpgHYopWaMPQJI0gN/ru2xacw9w3FwetK3DgWQ9A51tD5LBKByTq5cO7UjNDEMbnrDhwFyelJfNgVIKIAYNoa5lH0uAMX9PvTUofL4d80xDD9yq1o4X1U+Fn7k3iNSAL0zTFCEPhaA4LKpqQWnLl429vsEAW97Kc2K+3YVnC/AXm1PimAgBRAB5OhS9KcAfB+fGhqtnxEdRzOZJseHl+u0c7UqDjCTofOoFEDnzBI8o/8E0C8P/h2bRif2eerkVOaWpEiAAkjww7nzpfWXAPrtwT+7nw3P/W8BXtZ5j8OdQQGEyzPmaP0jgH5+8O/YJA2vuFagy+PcNBRAnPRDz90fAhDgumypflToeBIWcMMDw08ZHHLug2LvuJZGAcRF3kjePhCA4EFHsGJhsf5LI4gSFrRZcw+Bjx8BWBDH0iiAOKgby5l+AWQcrBws1q80hiiBgRte4SSBXBjH0iiAOKgby5luAQiwKluqn2gMT4IDNyvuGgiOiHqJFEDUxI3mS7EABLdl1VkhpWrLKKKEBg+uEfCnnJ8ByEa5RAogStrGc6VXAOrrW/Kj4183jijBCRqV4sdE9Pwol0gBREnbeK6UCkAxseGxyf2eeeDDm4wjSniClufeqMDfRLVMCiAq0pHkSacAVOUL+XLtA5EgSnCSpjcyovBPFOAjUS2TAoiKdCR50ikAgb42Wxq/MRJECU3S9AonBA98hRwY5RIpgChpG8+VQgEo7suV65FeDdequCt8wQGieIECzxEHz9rpYhzFhDj4yfQ0fpnPyJdkpPY7U63bXC0+f1o1+Iu/0lSOPcWlAOKgbixnGgUgZ+fKtU8aQzIrcKvmHgkf71Hg9W3nEzzoT+NSEyJoVAofFZHgwV9oez0hD6QAQgYab7j0CUCncUh+Wf1209yanhscz9XLV4prUJydK9cv7XWtTW/4lSLOx1RxZK+xep1PAfRKMFHzUyYA1ammLnjaU0YrG0xibFaL74Tq5SHl+EquVD+h21jNavEsqAYXOw11GyPMeRRAmDRjj5UuASjk3nypZvRNr83eyEum4f80zNaI4pvZcv2NncTcNFY8wnH0EwAO7mSe6bEUgGnCkcZPlwAAuSZXqr3ZJKJGxb1TBC8wkOOMXKn+qfniPrR2r6EnLcmer9D3zTc2jt9TAHFQN5YzZQJQ/WSuPH62KRwNr/BmgVxtKn7wnsKeJNDwCm8SSPC+w34G19BTaAqgJ3xJm5wuAfi+HDE0WrveFMUo7mQkIodnR2o3zK5hY6W0V8aZvgCKt5mqLay4FEBYJBMRJ2UCaMreQ/ub+4y9WXHvg+AvDbfm1uzU4JGy7/pHgzzNavFd6us5IniG4byhhKcAQsGYlCDpEkD2j08flBfetcUUvabnPgjgWabi74gbHF+WWaBX+tPyWQHeYDpfmPEpgDBpxh4rZQKYGly64y+nCXRNz90cyUk7io2AZiEyYKIOkzEpAJN0I4+dLgFMw3nWolL1IVOYmp47BqBsKn4/xKUA+qGLj9eQLgFApJwbqXmmWtDy3G9ryp6Sm2Kxu7gUQNTEjeZLlwAcBweYPPxzk+ee4wCnGEWe8uAUQMobuPPy0yUA39cXDY2O32mqBU2v8A5Avmwqfj/EpQD6oYtpfQmQ0UNz7vitplqwaV3xICejP4ZgkakcaY9LAaS9gzutP13PAET0A9mR8S+YbMGk557iA+eYzJHm2BRAmrv3hLWnSwBQrM6V62833YJW1b1WFceazpPG+BRAGru22zWnTADAWK5UXxZFCyiBuSlTAFHsvshypE4AEAej2WK9EgWiyWrhE77KqQDyUeRLQw4KIA1danuN6ROAQt+SL0V3P4BNNfcFGdVPqMoxbWPt44EUQF81N30CEODz2VL9pKjb0Kq471FBcEBHMercScpHASSpGz2vJX0C2Hou3p35cv1FPZfeRYCN3sgzFzj+St/H8QD27yJE6qdQAKlv4ewC0ieAYPWqeFO+XL82rlY88MD+g+WhTSsBPR6KQ+JaRxx5KYA4qBvLmVoBXJcv148yhqWDwJPV4jGqerwCiVhPB0vvaigF0BW2pE5KpwBmaKoemiubuyqw0441vZHDAD94aRD8k07np2U8BZCWTrW1zjQLAJfkyvX3tlVmhIMmK8PLFZnjfdHjBXhqhKkjSUUBRII5qiQpFgDQ2DztH7h02cT6qGh1kqcxsc9wZspZqSorFXh2J3OTPJYCSHJ3Ol5bqgWA4GitodF6L3fv6ZhYpxPUG8lOqr9SHayE4uWdzk/aeAogaR3paT3pFsC29wKwMleuX9kThogmb3/DMHhGkKpzAGfjoQAi2izRpOkDAQAbAOd5uVK1Gg2z3rM0K4VDZ+7uK/Ku3qNFG4ECiJa34Wx9IYDgLfe7s6W6ibv5GOXfqBYPFsUHATV6t6Mwi6AAwqQZe6z+EMB2jD3dhDPOVrSqxdep+h8C5HVxrqOd3BRAO5RSM6avBAAROSI7Yu7OQabbuv3WZB9M2g1B+R6A6c7HFr+/BBBgFJEjsyO178WGNITEjWrhZFEJTiVaGEK4UEPwGUCoOOMO1n8CmCGqeHuuXF8dN91e8jdr7iHwZ44me0UvccKeSwGETTTWeH0qgBkH4J/ypfo/x4q3x+Tr1i1buE9myzkienKPoUKbTgGEhjIJgfpXADMvB4CLsqX6R5JAupc1zNw2XOQcaPx3LaIAeulk4ub2twC2vRrAdwZEPj04Urs7cfg7WNBktficaV+vFEGsH3dSAB00LflD+18A254JyGO+4sx8uXZ+8nuy+xUGlxW31P9PSHzvC1AAad5BT1i7HQKYVfaNOo0z88vqt6e5jc2K+30IXhNHDRRAHNSN5bROAME5AlNwnE/nRmpnGsMaQeBGpXCBiHw0glQ7paAAoiZuNJ+FAtjOUxV3OcAl2XL9EqOIDQZvVIqfjfoTAgrAYEOjD22vAHawTrsIml7xCkBPiGrvUABRkY4kDwXQDyJoeoXro/oeAQUQyQMzqiQUwK6kBXKvD71KM7p6yB1/MKpO9JKnNT68TLfIDyHi9hKnnbkUQDuUUjOGAthtqwR/UMVVAxldPeiO35n0lrY8970KfNH0OikA04QjjU8BtINbBN+Ao6uz7vh32xkf15iG535bDJ82RAHE1V0jeSmAjrAqbvdVr8pvya+W/X79WEdzIxjc8IZfInB+DGDQVDoKwBTZWOJSAF1i96B6lWBgdbbs/brLGEamNT339K2BjR2USgEYaVtcQSmAXsgLMAnB1xx1rhgsVX/aS6yw5gZ3M3Z8GHvPggIIq1OJiEMBhNYGwVWAXJEbqf0otJhdBmp6hZsAOazL6XucRgGYoBpbTAogbPQC/RZ8uSI7Wl8Tdux24zUqhY+KyAXtju9kHAXQCa3Ej6UAzLVIvp6BrBosVX9mLsfckVtj+/yFOhkj701QAFF302g+CsAo3m2HkqxSkVW5kZpnOtfs+A3PvVuAg8LOSQGETTTWeBRAFPgV+L2InJwbqV0VRb4gR7NauAwa/o1HKICoOhhJHgogEszbkwj0/dnS+L9GkbNVLX5AVS8OOxcFEDbRWOOZFoAbXJSSqFNtY8W97Yiyj+dL9c+YXkfTc0/ZekFQcKpwqD8UQKg44w5mXADBG2AvjrvKpOUXxXtNn0PQ9ArvgMiFUDw5zPopgDBpxh7LrAAaXuEegRwYe5kJW0BwBkG+XH+hyWU1a+6rMI2vQDAcZh4KIEyasccyK4Cm5/4PgP1iLzOBCzD9LMDUR4EUQAI3U7dLmvb95YtGJ+7rdv5885pVdywJZ9nPt844fm/6WYCOD+daU04j7NoogLCJxhjPz+g+Jg+9aHruBIB9YilRsQ4idwH6d7HkbyNpdmpwqey7/tE2hnY1pOm5DwN4RleTdzOJAgiTZsyxslODWdl3/aSpZTQq7iMieJqp+HPGVWyG4NyH4Jz3DNH9M4orFJrI9yF0wXQhP/zbQJJGfkxcDEQBGGlVDEEFG3Mj9cUmMzcr7qMQGM2xy/q/IgsGzs0OV36z4/9vVotvha9fhmCByVq7ie04OGBhsf7Lbua2M6fpucH9Dw5uZ2y7YyiAdkl1Pu6rAI7vfFrXM2q5Un2k69ltTGx6biuiW1zfJIpzs+X6D+ZaVrNaPAuqp7ax5EiHqMjB+ZHaT0wlbVSKa0V0eZjxKYAwaW67MOQeVZw2VK5f16y4l0Lw7pBTzBlOBHdnR+pG7zO39XAKNVqLYAy+nJcr1y6bL0+j4n5DBG+cb1yUv5cpXZbdd3zMVM6m564HMBpmfAogPJoKldNy5dpZjz9d9UZGAP8mAEb/Mgf5BLguW6ofFV45O0fSsfLSljP1f0biC6bg63lbstOrluz94B/ayaH1wt6T084NinD/IraTezdjfpcr1ffuYf68Uxue+5AAe807sIMBFEAHsHY3NDhkUgRnzPX6b+YKLsiXQ0izxxC+j08NjdaNHR3VHCu7cKZqBur4WkZkVTd3+52sufur4lpVHGBgXR2F3PrG5LfypfFjOprU4eBW1X1MFYs6nLbH4RRATzTlNwr/tHxp/N/2FKbpuYEA3tFTqnkmi4PXZ4vmDq2YHBt+ru8494ZXg9ziwP/8wtL4t3uJmRQJmBZwwMjESzAKoPvdd+7mAf+CpYWJ/50vRDN4KSD+D6BYNt/Ybn9v/DPoMfcQOLi12/XNmldV4PNrfl6/+LjjMB1CPCRAAj/Jleqhvju/K5ftJwSHfk4hBdD5DrweGT0v54539GBoesOHAU7wfkDoP1sPivhOtlT/29ADzwrY9AonBGfk9ZBDVeVz4uBiE4dpxCmB7ILpp8nwb//YA5t5p7Zq7ofUx0XzDuxwAAXQPrDf+r6ePTTa/fe/TUnA9OfPAaJWtXihqp7UPq4/j1TFv4v4F+dKE7d0M7/dOY31execzMDJCpzY7pxex5n+6G/H+poVdzUEb+11vbvOpwDaIKqq/+Is0FXZwsS6NobvcUjoT+VE3p0bqV3e67rmm9+quj9QxavnG7fL7++A4uJcuX5lh/N6Gt4ccw8RR09WyNE9BdrTZMWEk8FrTF74Mzt903ODI8hC/zSJAtjjDtGbdVovyi+b+FaYG6lVLb5OVa/vNaYqjsuX69/oNU4785ue+xC6+AhK4b80X5qI/CDNoKaZqwZVPxz2GQYi+KYITovqwR/6H41ZDacA5t79f4LKhdnF2VXydDO3jJppqjof6uppneJ+BT4d1YO/NT68r045j1+O244wHh8jenVuZDz0p66drCF46SXIHKXQNwAodzJ31tiHReRqx/Gvjvrmoq2q+xlV/GOX697jNArgCXjkGp3CRfl9zV3SOTvl9mcDxwEIbvywx6d4Atynotdks5tXyTMf3mRiQ8wVs+W5JyrwuW7zicjh2ZHaDd3OD3NeIANVOVZEDhLBEvWxFIIlwMy/DYBuAGQDFBvg4Ffqy1pRvSfbat4jBzyyMcy1tBProbV7DS1dsvD++fZGO7HmGkMBzKai8vftXIbaLez55m30Rp7nwD/MEVkA9R9T33lMRB9V8R/LOs5aKdb/NF8ME7/v8vX/n5ciuC2rzgopVYPvEvCnAwKmLySjAHYSAG7Lles89HIWk9b48DKdcnp+8zM4Tz9bqkf27nwHj7FED2167vcAHG5qkRTALmSjPOrZVFPDjNusFD8J0TPDiJlxsHKwGO0nAmGsO64Ym8YKL3IcucNkfgrgCXS1Pq0DL15U9oLTV6z++eO6ZUvyA5t/0cMbZzvxE6AFOEdnS9XvWw22zeKbnnsNgDe1ObyrYRTAHNhE9ILsyLiRd1276lJMk1qe+2EFVoWc/mHHwV9H9RFayGuPLFyz5r4NPoxfP0EB7Kal0z5WLBqt/1dkHU9goobn/kKA54W/NPlNrlR7dvhx+yOieiNPasG/DTD/LUcKYDd7RhV3Toqz4smlqpnvwCd8r24ac89wHJxuapmq+Hm+XOdNRuYA3PDc8wT4uCn2s+NSAHum/MVcqf6+KBqRpBymvrOwa40KfCdv+EtMSeLazloaFfdYEVzbztgwxlAA81FUeXeubP5a+/mWEeXvm17hJkCCC5OM/0TxPXrjRYSUoFEtHiOq3wwpXFthKIB5Mckj0+qsWFT21s47tA8GbD10Injab+xkobkQKXBRvlT/SB/g67qEjZXh5RlxIt9jFEAbLRPBAyI4rt/fuY7qqf+cyBWrswv890hhotlGS/pqiKm7/rQDiQJoh1Jw6GafS2BTtXiQo/p1ADG+O683Z5A5abBUvafNtqR+WGtdYVQHJDjtN5YfCqAD7P0qgcZ69+WS0au3nvjjdoDD1NBHVeTM/EjtAlMJkhJ3slo82lf9jzjXQwF0SD+QgKr/wVxp4uYOpyZyeKvirlCRqwB9esIWeOOAgzMXFOvB3XD67sf0x6ztAqMA2iW1y7h+ePd60iu8QUVWh33UdJdInzhNMO1P46x8Rr4kI7XfhRY3xkAbveHXOnDeL8DrY1zG46kpgJ66oDcD+qk0PhtoeO6JAnwWgNMTgigmCx70p3FpmkXQrBReAXHen7S7G1MAIWzg4NmALJy+zOSdYUNY5kyI4MyBAejpCjV6inBY690pTgpFsO0bffgHQN5phEmPQSmAHgHumK6qj0hGLhPRy7OuufvD9bLc4K/+1tsXni7Ak3qJk4C5wRHca9TBmpzvrEnaQSPbTvEZPBaQY01+lz+MPlAAYVDcOcajCrk84+hlSbluYPP48Iv9qcwpqfyrP29/tK7qrHEcrFmYmf6ZtHGjlnlDdjmgUS2+zIEerYrggR/6Cb5dLmuP0ygAE1S3xZxU1ct12rl8aN/a3ebSzB155m5E8N8MwRFQvDzq/DHl2wJIwPpuCG7HYObW3N6Vuqm1bL9w6pWAvgRwXpjAT1LmLZ0CmBdRKAPuUNWfC+QOiPPjXKlaDSXqHEFmzpBTeRsErzKVI01xFXjYAdZC9F715V5ngb92YWGio3scbqyU9gKmDnTgLBdHl6svB4ok5q7EPbWDAugJX9eTfwXgp4DeAmRu7kQIwSk9iwemylO+jkJQFtVRODNHXQf3je/2yOuuC0nxxE0KbBJgExSbILoRkC0CDCkwBMEQFEPb/3swxXXyJUAKmhfcJHNSgUkBJoP/DcikQCdVtv23qgzIzAM8cRfspAAvl7g7AnwGwL1BAhYToAAsbj5LJwEKgHuABCwmQAFY3HyWTgIUAPcACVhMgAKwuPksnQQoAO4BErCYAAVgcfNZOglQANwDJGAxAQrA4uazdBKgALgHSMBiAhSAxc1n6SRAAXAPkIDFBCgAi5vP0kmAAuAeIAGLCVAAFjefpZMABcA9QAIWE6AALG4+SycBCoB7gAQsJvD/0gp9pgukkTcAAAAASUVORK5CYII=;" vertex="1" parent="1">
          <mxGeometry x="419" y="380" width="50" height="50" as="geometry" />
        </mxCell>
        <mxCell id="ugtfvKyXgLZFdfxOpgOD-17" value="" style="rounded=1;whiteSpace=wrap;html=1;fillColor=#fad9d5;strokeColor=#ae4132;shadow=1;strokeWidth=1;gradientDirection=east;perimeterSpacing=6;glass=1;" vertex="1" parent="1">
          <mxGeometry x="219" y="375" width="90" height="60" as="geometry" />
        </mxCell>
        <mxCell id="ugtfvKyXgLZFdfxOpgOD-18" value="" style="rounded=1;whiteSpace=wrap;html=1;fillColor=#ffe6cc;strokeColor=#d79b00;shadow=1;strokeWidth=1;gradientColor=none;gradientDirection=east;perimeterSpacing=6;glass=1;" vertex="1" parent="1">
          <mxGeometry x="159" y="460" width="90" height="60" as="geometry" />
        </mxCell>
        <mxCell id="ugtfvKyXgLZFdfxOpgOD-19" value="" style="rounded=1;whiteSpace=wrap;html=1;fillColor=#ffe6cc;strokeColor=#d79b00;shadow=1;strokeWidth=1;gradientColor=none;gradientDirection=east;perimeterSpacing=6;glass=1;" vertex="1" parent="1">
          <mxGeometry x="269" y="460" width="90" height="60" as="geometry" />
        </mxCell>
        <mxCell id="ugtfvKyXgLZFdfxOpgOD-21" value="" style="shape=image;verticalLabelPosition=bottom;labelBackgroundColor=default;verticalAlign=top;aspect=fixed;imageAspect=0;image=data:image/png,iVBORw0KGgoAAAANSUhEUgAAAQAAAAEACAYAAABccqhmAAAAAXNSR0IArs4c6QAAIABJREFUeF7tXXl8VNXZft872RcURGTfcd8Jte4zQTJ34lKtinUhKHWrVWz7aVt1boiZiG39uoh1KRYtwa1StSpmZgLMHRGQJSioiEIi+yp79mXu+Tox/QwYYZa7nJP7zl/+fp73eZ/3ec88nNy55xwE+pACpIBtFUDbVk6FkwKkAJAB0CQgBWysABmAjZtPpZMCZAA0B0gBGytABmDj5lPppAAZAM0BUsDGCpAB2Lj5VDopQAZAc4AUsLECZAA2bj6VTgqQAdAcIAVsrAAZgI2bT6WTAmQANAdIARsrQAZg4+ZT6aQAGQDNAVLAxgqQAdi4+VQ6KUAGQHOAFLCxAmQANm4+lU4KkAHQHCAFbKwAGYCNm0+lkwJkADQHSAEbK0AGYOPmU+mkABkAzQFSwMYKkAHYuPlUOilABkBzgBSwsQJkADZuPpVOCpAB0BwgBWysABmAjZtPpZMCZAA0B0gBGytABmDj5lPppAAZAM0BUsDGCiRtAM5AaSUCjhNJw9on1/FPl+GPqgIz3+Gf6NEZ5skTrwJkbx99pLUjcu8fZS2BBLKrspLUdzip4CjfcZUl/ds0x9YEuFsW0rx07/stS/ZcahmBWBIjfFFVUX5KLEN5H5NXWLQGGJzMM8/083otSPvhcZfwzPFwbgzx1rDbOzMZzkkbQDS5M1D6ZwT8RTJEzI6te7rmK9amDTc7bzz5EPDB5f6Z/xtPDG9j8+SiBwHhD7zx6swHU3F9zj0jh/HMsQtuq1VZOT1ZzroYQJSEK+BjyZIxM17b0rCi/o2to83MmUAurVlq6/3pe6/sSyDW8pDz3T/t1Sq1fg0AkuVkjkAg65oBHzkGZ53LM8fv/Osv4ZhwgbcqWc66GYAzUHo7Aj6fLCEz4+tnbVyi7W35oZk5483FAJ5f4S+/M944HsaPkYueZwi388Dl+zhgz9RlOUVDf8Azxy64va7Kyg16cNbNADpWAV8AwEl6EDMFo1XbVvtMTX9TciWTxAHnVc0pX5YMhNmxP5CLztcQFpudN958ufeM2AapEv9zoFNhTQezsz4c/6vGeGvtaryuBnCpv/R8CZH7pncWotG/XW1bW+fSQ0zjMDBc5Z/JOcdDqx9TOHEBY+xi4zRJHjl1VM77GYX9+H4Y/J0y2RRVLi5NvvpvEHQ1gI5VwBsA8GO9CJqBU/vkujoAyDEjV6I5kMGE5YHylxKNNzPuXHnCrRLii2bmjDsXQmPu5FGZccdZG1CrykoPPSnobgAXLvx9blpdy0E9SRqN1bJq/4Lm8Ne8/wS0rcpfPsBoLfTAz/MUbQeAvnpgGYWRfnHvRWnn9rzQKHxDcBlcq3qUN/XE1t0AOlYB0SWKoidRo7Hqnqv5nDVrpxqdJxl8BPAt95cXJ4NhdOxoecJURHzI6DzJ4GO6tDbn7hEnJoNheizCEtWtnK93XkMMoMMEog8pMvQmbBSetrtlVf3LG88yCl8vXCnChi+rnLVeLzw9cc513zJSkiTuX7PM+smgzxwnZCT9G7qe2h0Vi8HJqkf58qjj4hxgmAE4g2U3IGOvxcnH0uENr236ILKzmesHVwDwzyp/+U8sFep7kufJRW8A8v38Rzo+fUn2TYO5/un3O/IymKF6FEN+TjXMADpWAdEXFXh/2eZbvRnsrZ22rhePX65DOKFWUFXx0lyeeObJEwoB8T2eOHXFJXfyqH2A0JN3np35Jfu+/5FqNdQAnMHHTkemfSqS2E3qrlDrJwfyOef8cZW/nKs31/I8RasA4EyedUs9tceCjHEn8P6w91AJGfxK9Sh/NkpXQw2gYxUQ3axQZFQBRuDWPVW9k2nsBCOwdcNEdm9VxayndcNLAihPnvhLQPanJCAMD0XEvTmTR/K/uuusBMI21a0Y+suP4QYwuupvqT1272oxvMM6Jmj9snZhU2DHRTpCGgFVn56a0m/ROy/UGgEeK+Z5npt7RMCxDQCyY42xYlzGuBOWpJ7aQ6i//VEDd6hQqTRSL8MN4JtVQOmvAfD3RhaiN3bdjK8+YnURrpbZh9fIAJ5c4S+3dBdmnmfiswDsbr311xMPMx2rc+4cfpqemEZjIeDckOwtMD6P0Rk68F0B3y4AON6kdEmn0Q60rqn/xwYR9uOfW+Uv/zjpghMAGCPfOoahxv0ehewJQ9ZJvdKEOu0DW3Fg6Eqv4edsmLIC+GYV8OjlANKcBOaZZSENb25RI5sbeX8H31/lLy+0QqS8wqK5wOAyK3LHmjOlX8bizPGDLoh1PA/jGOBfwrL3l2ZwMc0AvjEBnxo9P8SMwnTJwaCxdto67t8XZ4yNXxGYNVuXmmMEGSMX3cIQZsU43LJhub84sREY476HnQRiqqyYdn6CqQaQP79sCGtlGyybDQkkbl68e37L8n1jEwg1M6Smyl8+0syEoz1F6xFgqJk5482VdtaxC9Odx/P+MPeQshDYHSG5+O/x1proeFMNoGMV8FcA+HmihK2Iq3u6ej1rY1wfGYWIDy+vmPm4GfqM8RSVMt73ejhwW+69I4Xa5w+MrVU9xaaep2G6AXSYgFDHh7VtaPiw8e2tum/E0PvLihHH4OWVL27WG7cz3tnyrUNTUONyL0JnnhmX91uROjJHnLdQo+emMXbBfE/xh0b273BsSwwgP+j7GWPwjJmFJpur/sUNS7SDrVz/jswY/mNFYOZtydZ6pPgxnqKXGcBNRuZIFlvKTVmVPWkY9xu7OtfJGHsr7Ck2/RwNSwygYxXwFQBwvaw+pEH1bevr/r6ee75MgvwV75VHH7bq/hntmViAwIK6A+sMmDNp6EbMTR2iM6yhcBla5Bh/YYnp52hYZgD5wbJLGGPvG6qqzuCNc7bPa6up4/pnL2BscVVgliEHXeTJRUsBgesDNFOGZC3KvHqAIfXrPJ06w/lUWbHknAfLDCBafX7A9y4DuMJAYXWHrp22rhEYcP2zEgK7c7l/lq4nNOd5iu4FgKd0F1RXQGzOvX9kuq6QRoMxqFU9+h7zFQ9lSw2gIPhEn1bWtDMewlaPbf5o//yWD77m/WfBr1lKxtAV705v0EOv0VfemYWtTZsA4Tg98IzCSPvBcYvTz+8l1ks/iD8Ju73/NEqTo+FaagDtq4Bg2eOMsd8ejShP/7/u2ZrPWQvfx4cB4B+q/DN/o4duoz1Ff0GA+/XAMgoDU3FDzj0juX4voYvaV6iykmeUJrHgWm4AUZKugK8NAByxEOZhjLatsap+9hZLGxeLDgylM1dU/COp8xjyPEXnAMBHseSzckzm1QM+SRmSxfV5BIfrw1A6I+x+5DMrdePCAMZWPnaLpmncv1bauVH1L21coO1p4ftwCYQ3qyrKr01mgo32FL2LnD+nwZ5pH+UUDeF652YXPShXZWViMr3RI5YLA+hYBXB/oswhgjdr22qf4/9WIYnBj5cFyt9KZLKMKZw4njFm2d+nsXLOuWv4DsxwcH0M+eG1qG6vBIiWvxDHjQFcNrf0nEgEuV9qdm5kU+XOytY1Bw3fsx3rF+F7xn1W5S8/IxGMPE/R5/85hJTrLdEpI3MXZV7eV7Cf/dhvVLmYixuTuTGAjlXAKwBwYyKT1aqY2mnrdgOD3lbljykvwq+rKsqfiGlsx6A8T9HDAPBYPDGmj0Xcnzt55LGm500u4XZVVrjZo8CVAXgqSno0SY4DyelrbnTr6oNq07ydvJ8Z0BJpaxn28dzXokd3HfVznufmgRFw1ABA2lEHWzgg/aLjl6aNPvY8CykkkFq7QpWncHN6MlcGEFXTGfQ9ggzKElDWspC66V99zBoj0aflHH/Y9Cr/rLtiIZjnKZoBAJNiGWvVGEx3fJlz93BTd87pUGtYlRWu/rHgzgA6/hTYDwDH6CC4KRCRr5s/aXhlE/c/QSHipcsrZi44kiijLy9yoQYhU4RLIknW9YPWOPpncP184vDyMBWHhsZ6NyZRtu6hXBqAM+i7Ghkk9ORad4ViBGycvWV+27ZGrt8QRIDQcn/5ETnmeYrCAMD1ldlS77Sq7JuHcP8exmFT52lVVqKvU3P14dIAOlYBiwBAnNc6Nba39qlq7s+dR8RJyytmdnl19+jCotuRga57CIyY7bn3jtwHDhTndh8GmupRuHzRjVsDcAannowsssaICWQUZvMHu4MtH+1zG4WvE+6mhpzGUZ/Pnn3IXQ2nXn99WlZdZvTB30Cd8hgCk3pK7uKMgr7i/MMAAIhwT8itPGuIIEmCcmsAHauA6QBwR5I1mhpe+9fqTRBhg01NGn+yqVX+8kc6h40pLHqcMeB7T4aEO3LvGynUCz8IsC4kK9xeRc61AVz/ekna7h6O5vjnt3URretqP2iq2MH7DcPggMhpS/0vR1/0gTHuiacxiVn6TnosHUvPP6Eq7YweQv3tH33wGnJ7j/jgNZbajRrDtQG0rwKCZZOBsSeNEsAI3PoXNizRank/PgxeXxEov6HdAAonvs4Yu94ILfTCxCzH6pw7RLvdB+aEZOVKvTQwAod7A+j4UyB60CXXf5t2bo62r/WL+vINJxvRMF0xGf6oHQ/Z27riGgCWffOQaql3mqlHnydbhpTi6D3/sof3JItjZLwYBlD52FjQtHlGCqE3dsPb2yojG+o53yfw370XjOuddCn9Mpdljh/I9VFkh88fRPxdyO19SO95pTeeEAbwzSqgLADAeH/C/m1/vrlVKPrTD9ev0+o9oQzAa839xYltgt3uc1CVFSFeZBPGAJz+kqGIDu7Po+/8BWhesreyZekezlcBBnxldYRMO/PYJemu47k+jv3wciWJTZhfUPySjjIYBiWMAXyzCij9IwD+yjA1DACufabmC2jV+H8eYEDtSUOmSBtzfz5CqOO9GYOPwx6F6z+pOvdFKAPoeCBo+SEK8Uzs1vX1S5re2SbUv2Dx1Gfk2Ey578cpJ+VyvsnqUAUcGjt3XmGxJde1J9IL8QwgWDoJGEZ3qwnzqS/fsEDb18r38WGcqSn1SF2ZfdvQszmjdTQ6r6qywvWtSd95WHm0inj8/65A6RoAFGZZzepa19fN2MD9rUI89Tr71qGbpGNSeX+j8hDJeh+MpM8eX3LIK9Y8adoVF+FWANEi8ueUXcBSWHSzkDCfRv92f9vaOo8whC0kmjI4e2nmNf2FOuiDIXjDboXvE5S66KmQBtBuAkHfbMbgOgvnadypa6et2wcMxNnFFneFOgQgHMydPKqHDkgmQrBtqlw8wMSEuqUS1gCc75X0RYdju25KmAAkyK1CJijx/SnS83otTbvwOLH+9dfgmnCh8m9LhUswubAG0LEKKGEMpiRYuyVhdX+rWcmaNNEebpmiFaZLa3PuHsHtzrmuRGAAH4RlRdgHvEIbQLQhroCvHgCyTJmhOiTRtjSsqH9j62gdoLodRNZV/T91DMtO6Ahzq8RgkDIqLD9UbVX+ZPMKbwD5lWXXM429nqwQZsbXv7Z5vrazievjw8zUI5pL6pW2InvCELGMkeF01eON6aBVs/WMNZ/wBhAt1BnwLUOAMbEWbfU41ti2vW76+n5W8+Apf87tw3dgtkC3+zCIqB4lhScNE+HSLQxAyFuF5u8KtH52QE6kad0tJmVEztLMK/oJ9eAPGLtf9RRPE70X3cIAvlkFlL2IwG4VqSF1T63bwjRxzjkwQtv/nJe3K2fyqD5GYBuGydha1VMs2p0EXcrRbQzgsrm/OyYSaY3eJyDMp/XTA+Gm0C6nMIQNIJp2Qe/l6WN6CvPnW7sETLtM9UyZb4AcpkN2GwOIKpcfLH2AMYzrDjzTFT8sYf2Mr5ZodRFbbhbCTMfqnDvFOuaLAfOH5eJCq+eNXvm7lQFERXEFfTuAwQl6CWQ0TmRX0ycNr27m/lYhI3TI+vHALxyDMoXZ09H+j38k0i98eckOI/SwArP7GUDgscsBtDlWiJlozoY3tlRGtjTa6uAQR5/0ZVk3DhbrmC+AP4Zk5YFE+8xjXLczgI5VwHxgkM+j4F1xYq1sX90z1dEjpCRROCfJU8v92YiDkCaJdLX3AVVWROIbU4u6pQFcMtd3iiMC7Wfei/Jpfv/rypaV+22xCkg5pceSzIIThHrugQCTQrLS5ZVqosyxrnh2SwPoWAVMAwb3idScumeq17JWJtS78HHr68BNufeOFGqfPwB8pMqKWG8pxtiYbmsAnopp6U3SgaYYdeBiWOuXtQubAjsu4oKMQSTSXX1WpJ15jFBfJgQ8LyR7lxkkiaWw3dYAoqo6/b67EOE5SxWOM3n9zA0LtP3d8/gwzEldmfNTwY75QpitupXxcbZRmOHd2gDa/xQI+KI7tUaI0hFtb+sX9bMEuFUoAUGzbxxULfXJEOp2n1TMyKl0PxjdcdotP93fAPyPjgWUhLpVqOmdbZWt63m/VSi+74NjQOaSrOsGivXgj8GjIY9SEl+lYo3u9gbQsQqI3n13lTCt0aCx9qnqFgAmxO0yMehalzv5RAcgy4xhLC9DtqiyMogXMkbxsIUBXBL0DXMw+MooEY3AbVmyZ17z0r2XGYFtNqaQt/sgXD/frfzLbK3MzmcLA2hfBfh9UwGB+8saO0+AuudqVrFm7SyzJ4We+TBVWpdzz4hRemKagLVAlZVLTchjeQrbGEC7CQTLWoCxVMtVj5FAa0390qY528TaJ39YbRnj+qxKPfUYoUzM4YBT541T1sTYJqGH2coA8gNlExiwcpE6Vv/yJlXb3ewSifN/uUrHplZlTxyaJxj3F1VZmSQY54Tp2soAOlYBHwNjwpzKyw62bqh7ccPQhDtsYWDWhMGbHb3SxXmQhtiqur22us7dfgZQUXohSLjQwu9F3Kkb/Tvmtq2tHRd3oIUBKcOyF2de1f8CCynEnZoBPBCWlT/GHShwgO0M4JtVgO8lYHCzSH2rfap6G2isvxCcEXbnTh7VWwiu35L8UpUVoc4m0ENfWxrAxYHH+qWAtk0PAc3CaFmxT21euFuIZwHpeT2Xpl3YW6iHlwzAE5aVgFn95CWPLQ2gfRXg9z0ECFN5aUQsPOqm1yxjjRrXh2hghuPznLuGnxpLPdyMYVChepTLueFjIhHbGkC7CQR8ewHEuawzsqnho4a3tp5r4vyIO1XWFX0/c4zIPT3uQAsDIoiDF7i9my2kYFlqWxvA2KDvOo3BbMvUTyBxwz+3hCI7Grk87cjRO31p1s2DhVr6A+I01e29P4FWdIsQWxtAxyrgAwAQZg8+a2jbXvc8n7cKZU8avlPKdQhzICsA7FNlpVe3+CYnWITtDSA/8Ni5DLQVCepnSVjTvJ3zWlcf5GqfQOqJuYsyPH0vtESQRJMiu0t1F09PNLw7xNneADoeCD4HCEJd8lj71+pqiDA+9tZLsCX3vlEDhfpCIFapbq9YF5IYIDAZQHT9P+e3PVNTsqMPBIX5tKw6sKA5vIuLe+nTLuq9LH10T65/nfhOYyV2kVpQvEiYhhtElAygQ1iXv2wyIHvSIJ0Nga2bsX4xq2uz9G07zHaszLl9uDCvVnc04nVVVm4wpCmCgZIBdGqYK+jbCAyEObE2sqPp04Z/bj7DyjmXeXX/L1OGZAt1USZrjPQMX1Mi1D2SRvWYDKCTss6g7wpk8K5RYhuB2/DG1lBkS4MlPwtK/TIWZ48fZOkKJH5N2VRVLn4k/rjuGUEGcFhfnYGyCgTmEaXdrIXtq3u2OrqDLdtUzgiNOXcNb8Z0h0i35WxWZUWYFZ4Z/SQDOEzlsRVTT9WkyGozxNcrR/P7u0ItKw+YugpIO+OYhen5fYR5fyKqNUp4U6jA+6peuncHHDKALrro9Jc+gYhCXQJZ+2z1Z9DCzHkFNxVrcu8ZKcxR6x0tDquyIsRmKjONhQygKwNQSzKw2dFoZiOSzdW25uCHjZU7z08WJ5b49PwTqtLO6CHUST8Sk86a73nkk1jqs9MYMoDv6bYrWHonMPybSJOhfuaGhdr+VkOX5VKP1Krs20Q75ou9oMrFPxWpl2ZxJQM4gtKuQOlqABRma6u2u+XL+pc3GvqTXPYNg2qkvhnCLP8RoOW4gydlzR4/PmLWl0qkPGQAR+iWM+C7DAHmitTQhre3hSIb6g15IOgYnLkw65qBhq4w9NYaGT4U8nh/pzdud8EjAzhKJ11+3+uAcL0wDY+wxtqnaw4CY/ruykPcm/vzkZngAGFu90GENSG3IswKzoo5RgZwFNXHzisZrrU5aqxoTqI5mxbtCbdW7XUmGt9VXOo5PRdlXNJbqN1+qGlXhQqnCPVil549iwWLDCAGlfL9vhKGMCWGodwMqXuuZiVr1nR5Rx/Tpc9z7h4h1L+kCDAnJCtXctMQTomQAcTYGFfQVwsMcmIcbvmw1uq6qqb3tuvyU12m3PfjlJNyz7G8qDgISG2REfOvKBHqPsg4ytNtKBlAjFK6AqVFADgzxuFcDKt/aeMCbU9LUluGpV5pH2ZPGGLK+wW6icbYNNVTbNtjvuLRkQwgDrVcAd8SABDmzDu2r2VjXfnGIXGU+J2hWbcM3uw4TqDbfQD2qrJyXDI12ymWDCCObjv9ZRchsugZgsJ8Giu2q23r6hJ6BdYxImdB1hX9klpBmC0UA7g3LCtPm51X1HxkAHF2zhUomwHAhLo8svapdRtBg7hWAijh1pz7Rg6IUx5LhyPA8pCsiHUykaWKAZABxNmAcZUl/ds0x9Y4wywd3rJ87wfNi/dcHA+JtB8etzj9vF5C7fVnDFxhjxKOp067jyUDSGAGOAO+3yCAUG+X1U7/agU0RkbHUi5mOVbm3CHWMV+I8FrIrdwYS3005lsFyAASnA0uv287IPRNMNz0sLaNDasa/731rFgSZ17V/9OUYdmWHjUWC8/OY9o0R58PCh/+Ot44u48nA0hwBuRXll3PNPZ6guGWhNW/tnmBtrPpiA/1HH0yFmbdOEio9/0B6JivRCcUGUCiyrVfMFo6DxDHJgFhaqhW17ajfsb66BFeGV0nxubs24bsl3qk6ruPwNgqN6myEtcDTmPpiIVOBpBEv5zvleShw7E8CQjTQxvn7gy3fX6wy30Cqaf0eD+j4IRLTSeVVEI2UZWLy5OCsHEwGUCSzXcFy54ExiYnCWNqeO3T1dXQdtitQg6syb1XrGO+EFANyV5Dtj6b2hALk5EBJCm+O1DSqwUce5KEMTW8ddX+xU3hrw/5iS/90t5L0s7u+UNTiSSbDFme6i4W6l7HZEvWO54MQAdFnQHf/QjwFx2gTIOoe2H9Mlbb1v7SDOamLM+ZNEyse/IYzFA9yu2mCdZNE5EB6NTY/IBvLQMYpROc4TCRrU1rGv61+ZRooqzrBq1xDMho/29BPs0sPXJs2FXSJAhfbmmSAejUmvxg2ZWMsXd0gjMFpvGNre9HE2VeO0CsB38MHlY9yuOmiNTNk5AB6Njg/IDvLQZwtY6QhkKxpkj7/XiYIdLtPvi5KntPM1QYG4GTAejYbFeg9DQA/ExHSII6XAEG16oe5U0SRh8FyAD00fH/UVyB0t8D4K91hiU4AGCI74bd3qtIDP0UIAPQT8t2pPMX/ykz40D9fkCIXthJHz0VYHCy6lG+1BPS7lhkAAbMAKffdxciPGcAtG0hEfEvIbf3l7YVwKDCyQAMEtbp932ECEIdpGmQFHrA7lFlpbceQIRxqAJkAAbNiLHBR8dpTKo0CN5WsKjB5FCh8pStijapWDIAA4V2+n2zEOEWA1PYAXqZKivCHMQqWkPIAAzsWH6FbwSToNrAFN0eWkKtYL57ilD3M4rUFDIAg7vlCpQ+CoDFBqfprvCvqrJyU3ctjoe6yACM7gJj6AqWRY+qorPq49Q6RYoMmFtQsi3OMBoehwJkAHGIlehQp79sIiL7R6LxdoxjiGVht1exY+1m1kwGYJLaroAvuvFGqEs2TJKmqzQbVVkZamF+26QmAzCp1WMDpRdrgAtMSid0GgSYFJKVF4UuQhDyZAAmNsoV8E0HgDtMTCleKgYh1aMIc9CqeAIfypgMwMQO5r9bNoClsi0mphQuFXPg+eFx3uglrPQxQQEyABNE7pzC5fc99J+NQlNNTitKuudVWblTFLLdgScZgAVddAXK1gMwesh1qPZNLc1pfRb96De1FrTEtinJACxovTNYdgMy9poFqblNyQB+G5aV33NLsJsSIwOwqLGuQNkcAHa5Rel5S7talZXTeSNlBz5kABZ1+VJ/6RgJcZlF6blKi0wbH/JMmc0VKZuQIQOwsNGuoG8aMLjPQgo8pH5HlZUf8UDEjhzIACzs+th5U4/T2iLRfQI27gM7XZWLV1vYBluntvHE46Pv+YGyXzBgf+aDjcksEP6supVfmZyV0nVSgAyAg+ngCvg+BQB7PQRjsFv1KMdzIL+tKZABcNB+V6XvKtDgbQ6omEaBSXBvuEB52rSElKhLBcgAOJkYrkDpvwDwWk7oGE1jqSorYt1EbLQiFuGTAVgk/OFpL3mv9AyHAz/hhI6hNFDTCkOFU/yGJiHwmBQgA4hJJnMGuYK+PwCDB83JZlmWV1RZudmy7JT4EAXIADiaEAXBB7Lb2DHbGEAPjmjpSgUjODR0uXejrqAElrACZAAJS2dMYH6g7G4G7Flj0C1H9amyQgekWt6GbwmQAXDUjP9SyQ/4FjOA8zmklgQl3KDK3mFJAFCoAQqQARggarKQ+ZW+AqZBMFkcnuIZ4q1ht3cmT5yIi61fQeW7/S6/7yVA6CYPy3C+Knsv41txe7KjFQCnfXcGHh+J0LaOU3px0dKAXfK+XPxBXEE02BQFyABMkTmxJK6ArxQAxD4bH3G66vbelZgCFGW0AmQARiucBH4JK5HeDzo2A0D/JGCsC2XQmIaRgUG5ZK91JCjzkRQgA+B8fjj9pbcioqBn5ONvVNn7B84ltjU9MgAB2u8MlIYQ0CUA1c4UP1Nl5QzBONuOLhmAAC3PD5ZdwhiLXi0m0AevU2XvGwIRtiVVMgBB2u7y+/4OCD8Vgy57W5WLrxb2DtIvAAAFdklEQVSDq71ZkgEI0n9nRclAlNofCHL/YZJ0TrjgkZXcEyWCdj6LTrzuuwJlDwOwx/hmjn9SZe//8M2R2P1XAVoBCDYXXAHfFwBwEqe0vz7Yu8+AFXl3tXLKj2gdpgAZgGBTwukv/QkivsolbcSfq27vM1xyI1JdKkAGIODEcAV97wGDQq6oIyxR3Uo328HIlcKGkCEDMERWY0HzA2U/YMCWGpslTnSHJKvjHulWOxjjVEDI4WQAQrYNID9Q9hQDdi8X9Bm8rHqUW7jgQiTiUoAMIC65+BnsfLekN6a2/yyYYTUrBpFRYbmk2moelD9+BcgA4teMmwhX0PdLYPAnawmxUlUunmItB8qeqAJkAIkqx0mcK+D7GADOtojOelVWhluUm9LqoAAZgA4iWgnhrPBdjRK8ZQ0HNlGVi8utyU1Z9VCADEAPFS3GcAV80U03PzaZxjxVVsaZnJPS6awAGYDOgloBN9ZfcqaGjlWm5pYcF6kFDy8yNScl010BMgDdJbUG0OkvfQIRHzAlO8LfVLdytym5KImhCpABGCqveeDO10tysIfjKwAw+srtBilFGj7/skd2mlcdZTJKATIAo5S1ADc/6PsZY2Dsu/gIv1bdyhMWlEcpDVCADMAAUa2EdPl9HwKCIVdvMwafhj3KmVbWR7n1VYAMQF89LUdz+R9zA2oBQ4gwuFb1KG8agk2glihABmCJ7MYmdQV8LwPATXpmQYB/h2TlGj0xCct6BcgArO+B7gzGVfpGtWmwVl9gdrYqF5v7U6O+BRBaFwqQAXTTaeEMlvqQoVeP8hDgjyFZMecnRj0IE0bMCpABxCyVWAOdakkKNjuiO/SGJMl8V05rZNi7V5Y0JIlD4RwqQAbAYVP0opQf8N3GAF5IBg8R7gm5lWeTwaBYfhUgA+C3N7owcwV8KgA4EwFjAB+GZeWCRGIpRgwFyADE6FPCLF2VpZeChuFEAFACd6hAqUwklmLEUIAMQIw+JcXSFSidAYCT4gFBhJdCbmVCPDE0VjwFyADE61ncjC8Jlg1yMLYeAByxBmMqjAyNVWpiHU/jxFSADEDMvsXN2hn0PYIMymIJRAaPhjxKSSxjaYzYCpABiN2/uNjHdKsQY1+pnuIRcQHTYGEVIAMQtnXxE8/3l93IkL1ypEgELArJ3lnxo1OEiAqQAYjYtSQ45wfLKhhjnq4gGLC5Ybm4IAl4ChVMATIAwRqWLF1XsPQ8YLikKxxEvDDk9i5ONgfFi6MAGYA4vdKNqctf+jQg3tMZkAE+F5a9P9MtCQEJoQAZgBBt0pfkxRVTj0+RItGf+HI7kOulFGkEHfOlr84ioJEBiNAlAzg6A77/QYD/jUIj4oMht7f9v+ljLwXIAOzV70OqdQV8K6Pff1VWzrKxDLYunQzAxu3P9z96DTgcECrwWnSzkI3F56R0MgBOGkE0SAErFCADsEJ1ykkKcKIAGQAnjSAapIAVCpABWKE65SQFOFGADICTRhANUsAKBcgArFCdcpICnChABsBJI4gGKWCFAmQAVqhOOUkBThQgA+CkEUSDFLBCATIAK1SnnKQAJwqQAXDSCKJBClihABmAFapTTlKAEwXIADhpBNEgBaxQgAzACtUpJynAiQJkAJw0gmiQAlYoQAZgheqUkxTgRAEyAE4aQTRIASsUIAOwQnXKSQpwogAZACeNIBqkgBUKkAFYoTrlJAU4UYAMgJNGEA1SwAoFyACsUJ1ykgKcKEAGwEkjiAYpYIUCZABWqE45SQFOFCAD4KQRRIMUsEIBMgArVKecpAAnCpABcNIIokEKWKEAGYAVqlNOUoATBcgAOGkE0SAFrFCADMAK1SknKcCJAmQAnDSCaJACVijwf4AsrYhyZRqDAAAAAElFTkSuQmCC;" vertex="1" parent="1">
          <mxGeometry x="239" y="380" width="50" height="50" as="geometry" />
        </mxCell>
        <mxCell id="ugtfvKyXgLZFdfxOpgOD-22" value="" style="shape=image;verticalLabelPosition=bottom;labelBackgroundColor=default;verticalAlign=top;aspect=fixed;imageAspect=0;image=data:image/png,iVBORw0KGgoAAAANSUhEUgAAAQAAAAEACAYAAABccqhmAAAAAXNSR0IArs4c6QAAIABJREFUeF7tXQm4HFWx/qunz9wkJCggu8iW6UkCssgiu6KCIIssBhQkTE9iABFU3AAXEEXcQXZiMj0B2dQHishTQFBABNmRQKYnYdWAIgpJSHKne7pezmSSF5J7p08vs9zpPt+XL5CuqlNVp6e6+5yqvwjpSD2QeiCxHqDEWp4annog9QDSAJDeBKkHEuyBNAAkePFT01MPpAEgvQdSDyTYA2kASPDip6anHkgDQHoPpB5IsAfSAJDgxU9NTz2QBoD0Hkg9kGAPpAEgwYufmp56IA0A6T2QeiDBHkgDQIIXPzU99UAaANJ7IPVAgj2QBoAEL35qeuqBNACk90DqgQR7IA0ACV781PTUA2kASO+B1AMJ9kAaABK8+KnpqQfSAJDeA6kHEuyBNAAkePFT01MPpAEgvQdSDyTYA2kASPDip6anHkgDQHoPpB5IsAfSAJDgxU9NTz2QBoD0Hkg9kGAPpAEgwYufmp56IA0A6T2QeiDBHkgDQIIXPzU99UAaAALeA1Pn8Ppepr4vMrwjATuzhy1AvBFAWwBYCGABA/8g5pcZ9HeN6GGmzD1Wjl4NOFWiyU+YxxtluP4+jXkXZt6ciTYlYHMAmwFYF+CXwPQvEF4k4DEQPeHpmXvKW9PriXZcQOPTAKDgsOkVfocD9zQQDgXwHgWWIUhoHhHuBnv3O5q47Zrx9K9wcvqTq/Acb0I153AQ9gK0fQHeJoylDPyVgFsGB/TLr9uS/htGRpJ40gDQYrULz/Hb4bjnEHAygFFx3hgM/JaIylZO/2WcckeSrMJzPEobrB/OGk8DcEDMui8B4Qqh6d+asS29EbPsvhGXBoBhlrJYdfZk5hubr/btXPDFzHQj4F1VzmcfaudEvSJ7qu3s5xFPBdPRANZpr178IhOOLeeyD7R3npEpPQ0AQ6ybWXW+AcY3u7Ckv2fCd8s58ccuzN32KU3bPRTgrwF4b9snW2MCJpxZzonvdXreXp8vDQCrrxAzFefVr2LmT3V54e4jwrdKOXF7l/WIZfpi1T2cufHD3y0WgWGFEF1qjc+cDiIOK6Lf+NIAsNqKmnbtWoCO66FFfpwJnx+pbwSFivsRIv4hgIm941OyLEMv9o4+3dUkDQBN/5tV5ztgnNXd5Rhudr6ehTijvDW90pv6vVUrcx5vAc+9FMDhParv1yxDnN+junVUrTQAAChW3ClMPLujng8+2UIQn2vlshcGZ+0cR9F2vs7AeZ2bMdxMDDq6bOg3hePuH67EB4DCM0u3oow+B8CY0MvKuB8Ehxg6EzYAsB6AjUPLa834lOfh5NkTxJ/bJD+U2ILtHECgK8Oe3ytM+k8A/wXjP9LXADIA9lHgG47k9YyuT5i5DUm5iR2JDwCm7dwN4P3B7gCaB/BPWcOT9Tf1e6/Zkd4cir/wzOC7oWmHEeEwAHsEm8OHmnGhlRdnxCozhLBPz+GxS4RzCYEKIdhbsTzAjN+A+LaykX18KMLpC3iMs7B+ADTvWICODJyrwfi1lRdHxKz3iBKX6ABQrLrHM/PPAqzYEgafXTayPwnA0yA1q7wh2PkEM51KBCMo/zD0T5BXP7Y0YVQlJnmBxBQqtd2ItBvieuozwwbxpUTihqCp0yc8wetkRrknEUF+2ysnbTHTIeW8flsgw/uIONEBwLQd+eo/SWk9mV9gr/7+8sTRzyvRtyAqVpx9mKgI8CeC3KzDiWTw6WUje0lUvYLwm7Yjj/W+FYRnGNqlzHQdNG9mHMk6RXvZNh4y9xGwqaJu91qG2E+Rtu/IEhsAClX3MGK+RXFFX/Wovufs3Kj5ivRKZI0aA3K/DuB0JYbWRLcK1s0Zefp3DLKGFdHc4b8u4vd3Qz4DF2Uc/VuztqP/xKnz1HnLxnteRmb+yf0YhcF7WEb2QQXCviNJbgCwnTsJ+KDKihJwQMkQd6rQhqGRPyr2nPMif0czXgHxEe26mc2q82EwbgDw9jB2ruQhpsvBmfNLE2hBFDmteKfa7iEe+FYV+QS+oWRk5dtY4kYiA8CUCm+eIffvKqvNRJeVc/pnVGij0kyzByfWSfsRGAdHkUVEnyzl9GujyFiT16zWPg+mH0eRycD/6J77pZkTRj8XRY4qr2m7JYBNBfplox19w8u3o8UKtH1FksgAYNrOF5cXofxAYSXf1Bz9XXG/ovrNa851PwrNuxigd/nRDnedGd8tG/rZUdNez72b9ec3d8oEOj6sLgDNh8fTrQnirvAygnNOe5Y3rruu3LPx3RRkoinlnH5N8FlGNkcyA0DFeRiEXfyWjhjfLOXFuX507bguS2VRc88hwpkR5P9mtKMfF/bJNuUZ3iCjubesqNEPNwj4RskQcWwWhlLArDo/BOMLCsy3WoaQx7WJGokLAA1EH+G+prLKLPRNu51+W5y7LM9axgKwp4rOQ9A8BU3/iDWeXgrCP2Xu4A4ZTfstgHcG4VtJy8DtpOnTgs4bZq5WPCdWl22rcWaegtzFliHGKdD1FUniAkDRdo9msAoIx02WIWS9ek+Mgi03CSFPDMKM1zTiA2blso+pMBfnOfuzh9+ErdVnxhfKeRFpv0BFT1Uas+LcBcL+fvRMvGccR5F+8/TS9cQFANN2Lwf4FL9FaMdGmt+cftdl/oBH+HmAM+7VRS5kxqHlvLi31TzFinswE/8agPDTZ+3rNJ/YO7qUzz4RnLd9HAW7dhqBLvabgRlfLefFd/zo+ul6AgOA8yiAnX0WkUVGX68XoaSOe4HXyw661xBwSIgbcZCYjizl9f8dirdQdScTszzj14PLppIYmzltxma0JDhvezkCfAbcYhnio+3VprekJzEALFXYFX7IMsTuvbVUb9WmWK19jpnCVQYyfdzK6zeuLtG0a+byU4dSGJsZdHzZ0GXg6Nlh2rXnANqqtYL0rGXo2/asEW1QLFEBwKwOTgJrMv3XZ9AVlqF/2o+q29eLtvMhBm4GMDagLszE08q5bOMHb1Zrp4DpMgBB74fXmPngkYBlaNrO/wA4ys9P7lJ97HDFXX68I/F60AUfiTau0rn5ivtzPyMIbJaMbNmPrheun1gd3E5j+t+Q4KVfASMDQuDvXgKe1Eg/ZGaOlBKquu0rs+KcpWInM+8+EgJaXP5MVABQvQmAkZUb3jivz7jyu75TmHu3jXb0Y8PmF8R18waRU6y4RzKxPwDIEJ9HQeYZabSJCgDFinsZE/u+2gvWN2x3UU07bpROYBoS4celnFBJrGmHiaFlFuzaTgTyPQbttSPM0AYrMiYqAJi2I8+2ZXefVmPQMoRv6qiifztOVrCd7xPwpTZMzGA+3cpnJdbfiBvy9GRg0PWtOpQVimVDfH7EGRhS4aQFgEcUWntVLUPEBdgRclmisUU6IRhm6n7IlTdtxxcOPGmVgQkLAG4V4PE+P6+ePwJUCQ/NDU9ZERgioectMwwC9DHL0JVKa1V06xaNaTsS/28jn/lvswwRJseiW2ZFmjdRAaBgOwsUsuh+bxnioEhe7RFms+q8DwwJdxUW8HSR5+HgXgMgDeveQsWpKMCx/dEyhG/acFgdeo0vUQHAtB3ZOvptrRaBgF+UDHFMry1UWH1UN7+Gks91b4fyxIG/hZ271/hMtSrQBy1DxAvg2muOWE2fpAUA329AEN9o5bIf7+E1C6SaWXG+CcI3AjE1ibtZDh1GXz8e03b+qnBU+pRliHf7yeqX60kLAHUAWuvF4+stI9tL7cFC32tFu3Yyg64ILUCmBhJPK+Wys6LI6BXeNACsvRJJCwC+bwAMvrZsZD/ZKzdtWD3MinssiCV+X+TBRMeUc/ovIgvqsgDTdiRQqF9n4scsQ7yny6p2bPqkBQBZqTbax7u/tAwxuWMr0IaJClXn/cS4I1xV35AKufDw4U5DesXtmqLtPMHADj5y++IUSNV3SQsACwG0RH1h4LdlQ/glC6n6t+N0xUptRya6P8LO/3A6v6kR76sKKtJxwxUmNG2lY+C/WIYIDYGmoEZPkSQtALwK4B0tV4Bxl5UXSnDhPbWSAKY+zVt6uvuwr43hFX8Vmr5Lt2G+wqpv2s4/AGzWr+sfxi8JCwBKT4AHLEOExd8Lswax8MjWWPpoV37jbh+LwOGFPCHG6nv1IvCHn92m7bwBYN1WdBK6vGyIj/nJ6pfryQoASufANN8ydL9swZ5bf9N2bgdwQDDFqImCy79qdttVZR9xyDnTH2bhrOvW/A2kkmXoU/3p+oMiUQGgoNYNaKFliJbJQr229KbtfA/AlwPoxQAdbxn69ZLHtN1PAA0oMPXBOM/Ki3PUGbpL2Wxp9qKvFoQfWTkh+0YkYiQtAPySAF+k38WOPvCL7UjhadH9e6Rgu8cROFAXIAKfUjKyV66ufcGufZZAFwWxiIg+Wsrpqv0Vg4iOnfbEebVdNI/k/ojf+JplCNlhOBEjWQGg6l5KzKf6rqymv2skbHQVqrU9iOkvvvasRtDoGJQXZw3FY9qO7JYU5Om3FMT7WLmsBFrt6dFEO/ZtA87EU1dCpfW0QTEpl6gAoIoIRIx9S3lxX0w+bouYJgqQxDfcOMAEv7dy+sHDtQs7l1l7vurerto0tTnvAs3R393p9mkBbG6QFiu1U5nIF8uACB8u5YTcT0nESFYAqLqfBLNv/7eer31nJrPqyj5771e9S5lhj3H1XfxgvKbP57c59fqjAG+jLBu4Z6ucvv+5RJ4qT6fpilXnR8w4w2/eDLxJM42BZ/zo+uV6wgJAozz2j76LRzjHyonzfOm6RFC0na8zEES/hRnP3Um1K2+zHZn8XlZGGybgeyVDROlj2FZvFqvOzcw4wm+SxaP1Mb/YgiR0fCJGogJA4ZmlW1FGV2hNTZZl6MVevAOaNf7+QWw15Rk4sGwImRqsPEzbPRRgCaGmPJjpyHJel0eKPTcU04BfswzROlGs5yyLplCiAsBk5szYqjuocObdk/ngzXbX8rt/A+VlJz7DymVDNRAxbedry30VpLPvYo/qO83OjZqvrF8HCOXexgtVVz7Vsz7TJQoLQPoiUQFAGmzaztMAJvrcCD3ZKda0nbuDfPeD+Gorlz0xym+sYDtKR6erzVF1l+o791JzjcL8ZTmqZ2w/PzC4XDayph9dP11PXgCoOL8Cwbf/m5vRt7xmW/JPHOnQ3WDajnwSyyey6nhoLOn7XpIj+cYTekx+iUePXepKII0AKcY82zKyhdCTxsxYsN2jCCw7A7UcRDirlBPf9aPrp+uJCwCFinMBEXw3q1jDweXx4ne9sNjmXOcD0PCHALq8ykLfobw1vRKAZ1jS5t6JxNR/u7K8Hmqwobxp6tER1gRddkZOzEhcACjatQKDLL8V7pWngVnlDcGuxOVTPu8nDR8ojRfycyG2Uai4HyHi3wYQuBCavn0vJFSZtiM7Ah3ppzt59QmlCaMqfnT9dD1xAUA1JbQnqsLkeb/t/gGEICi1X7cM8e123KTFqnM+M84OIPvBLXP6Xt3ODzBt5yUA7/TR29kyp4/qtq4BfBsLaeICQLMqbJkCNuDzlpHdOhYvhxRi2s5Xl6P6BPkx/9HK6R8YLtMvpBqr2Jq76fJTRDkBqdvAoifM4410z5X9APxG4k4ApEMSFwCk0Ypnwhgc0Ne/bkv6r9+d047rxYqzDxPuDSabrgJ4GRGN8dgbQ6DRxBjD5AuDNuQ0xFjKhCVgXkKatpSZl4BpHRBPC6KX52GfbvUWKMxzDiIPsnGqzxgZLeH9rAh6PZEBoGDXLAL57lK3Oy98WpXf6XrOptC0TcjzNiWijRm0KRFvyox9A533B135ztK/SoQ/M9PLBH7ZY34FmvYKPO8VXRMvt7PFuGouQz+hHwdZ2kQGAOXeeYQLrJwI8s27lu+nL+Axg0ucicTaJHg8iQiTAJrUzLX3gSgPspQjmtYD6FmAnwZhDkBPA97Ti0eJZ6Km5Zq2I8uVm8Anw/vI03jX2eOzsndkokYiA4BqGS0x/lzKi31U7wi5wZipa9uBeNLyTcR3g3k7EG2pyp/SDeUBfl4GBGY8CY2ezsB7KggwqVlxXgZhEz/fWoZI5G8hkUbLm8G0nTdVkHPFWH2dNfHvGqW4VN+HNd6FGDuAaHuAt/W7ydLrsXqgCuApYjzJRA9rTub+NUuSpz/Nmzq6u0Bh1kctQ+yiQNd3JEkOAEoYehroUGaWYJLvBeG9zLx7+lTvzd8Bg5/TgAeZ8FcQPQimzZa/hSk0NKGrLEM/uTetaq9WiQ0Aytlh7fV/Kr0XPMB8kpXPzugFVTqtQ2IDwFTb2c8D/tRph6fz9aAHiHcZCbBm7fBcIgPA9Aq/w9WcjzLTzHY4NZU50jzARcHiNzPy9O+RpnlUfRMTAIpVZ0/2cBAIByu0iI7q117hl70QJbpxDeBBQJN/N/8fNWLUmOA2N0NlrXwWoCzgNf/GQLOGfkyvGNROPRj4KzF+B+LbLCP7YDvn6hXZfR0AGj96xrEAZLvvDXvF6RH0uJOB2zXwIiZtMepYhMZ/c+NvXcsu1jQsmrEtyU3L2MfxVV4342Gchto4gMYR0zjKkIQNGwf2xnny34D9AIzY3oqrOe2fYFwH4hv7ORj0XQCY8swyI6NnCsz8cQJ1NZc/5l/gvwcHdKNbqcmqtsjEp9pi56n+8j3NB/h6TavPnjV+1DxVX4wEur4JAMWqezgznwbgQz3meJlv8DSInwVTFUzzkOEqM21AzMpNNQj0sZKh+4Ja9ILtzfbkyuXIEnuBgIXksQGiHHs8HqBtQNhOoZ17p03+vQa6ZJahBymN7rSOyvON6AAgE3J03f0UM2SzD79yT2WnhCRcvPzV92EGHtKIK55HNrJ6dThQDtWCpKYut1qG8E1nDal3W9iKFfcyJv60knDGw1Ze7DYUbSOZR7gGe2yQRnkwdgcgk3a6vC/BLxLTxbquz2zXJ5eS7yISjcgAMHXesvGep58BsMRvGxXRB2HYl4HxKDT8hUCPoe4+HARIwrQd2cdP9vNTGW+SpxulCaSS0aYiryM0n57DY5cKR+b1v0tlQgafXjayl6jQShqzOjiJvMyuTLwLA3sQGoGhG2MpA1dlXP2iWZPohW4oEGXOERUAChVnX6JG66rDoxgdgfcrGvEdQXLR15zrhPn8Lr3uStQZpcDFzNPL+exPI+jcNdaAUGaLydPzUQJdcW5tV2h0cMCeCbH5h4BfeMw/KOezD8UmtM2CRkQAmGq7h3jMZ4OwV5v90Vo80QlWTv9ZFB1M25E4gx9WlHGfZQhZFjxih2m7EqNguooBcaAwFSq1TxFRd7P6GHeBcb41QcjuTT09ejoAFOe6x7DGXw+GSBvG3/yi4qvqLy1DTA4zg+QpVN3JxPxzRf5lHtW37zWMfUXdV5E1PwWeBmgLFd6oYKxm1bkN3Mj18Bv/ALC5H1Gk64xHWKNvlnN6oAYrkeYMyNyTAaAJ4yxbX8ld4DYMfpFZuwOE27KZzB9qtWXrqXUMwjIW+nrlrUlCigUajR+C7lZVSlObgr9iGeL7gSbpUeKC7RxAgGLDTX6JhTBC+1i4i1TcoGn1nIeBQa67kxst49v5dsl4mDR8tRebjvZUAGjeKHJzbGeVRQxGwy8BdCOIrx8q77tgOw+qbCQR0UdLOV35+G6ljqbtXATgs0o6M/5m5cUOSrQjhMis1m4Ak0zK8h1E+E4pJyQeYqBRsN3jCHytAtMTliF2Wp1uSoU3z2jO4WD6CIAPtun48T4ifLmUE4FauivYE5qkJwKAPOpxdfcnDIR+vR7GA68z0bWaxzf4tfsu2M6XCPB94hLzNaV8dkoQjxfs2k6N0wLVoWFva7y4X5V8JNAV5/JmrLkyiWa0ir7M3sRyfmCuCu1qQVYJ/huMs628uKCVbLPqfJhBhxHzCQDWDaKHHy0zzcrqmS/0wvFhdwOAhL2e55wMJrkYb/NznOJ1Z/lZ8W1MdHV2YeY3M3YlR4WvuTuvcoyzbLSjb+jXZnvVnCugvR8CNc6uFQZfZxnZ4xUIRxxJoep8hRhqnXcY91t5sbeqkYXn+O3kuP8CIPx45Ou/akbf5DmcHSfqhy3HGpAt1uTegu4nX/H6P8H0WSuv36hI3xayrgWAqXN4fU+40vi4MvdeZ8aVpOk/tnL0ahhvmbYjMeHe48vLVLDy+mxfugYCce1kBl2hQgtgKQt9m7g6+ijO2TGyFZDs9blNPETfeZloSjmnX+NL2EB4qp0O0E8UaNd6/VfgaZAUnuNN4LhnEHBSjG8Fv1w8Wp8SFftQ1YY16boSAOR5LWt0cyzZe8wvMOFH2bFi1prQXUGdUqw6ZzKj5athQybjLisv5Hdiy1Gcy+NYc2U7cqVuvsz4QjkvfuwndyRfD5QbwHhFjNO3VVlXs+I8rPSWpfD67+dfWRSVhTMVHn05wKZuK7FzOVM/vLztKAlz1tHR8QAQ4zntnQS6Ms78+KK9bBtGRqm1dYb0LfzgrAu2830CvqS4os9YhpikSDuiyUzbkTBdH1MxgoFvlQ3xjVa00+zBiXVosuuz7/CoPj7Oo9UmwrRMTot6pLiEiD4RZoPZ1+gWBB0NAIF2wodVmq8jzzsvSOptEAeZFefPKkdCfr0Dmw015dNfaTBh/3JO/FGJOCaiyXP+NXbUBhvyNZuQLFjq2JD9EOrsynbdKhuCy+qsj786T/Lcfshh2o48OZLp1X7jL5Yh2pJMtuJTD2cp5pMMryfxGVYue6GfIXFd70gAKDzHo8hxZdSPUif+e657XypPHJCNMts2zGrtFDBd7j8BPWsZ+rBIwGaldiOIjvGXIz8p+OdWPqt0RKYkbwiiE233kAz4fczYddheg4S7mPEIMvTH8rb6bWHnUuEL1PaM+Gorl5WbcGuNZrsy2QXZH++B+NNWLqu6H6NixltopC7Pz6sfDeYvqhwpDzcBEf30XeMzJ3eiT2HbA0DzO/iOBqpuuPEMAaeXDHFnOPZgXM3dZKV2YOTxbqUJ2YfXnMG0a+8F6AHFmZcIVx8/YxK9rEivTDa1WtvZY+1TABeBBrpPkLEMYIshZpQNejwIoyqtabuyzn4bFXqN+D1D1WAUq86BzPi9ioxmEtfrKrRRacy57keheRcBtFUYWbKuoGQItQdImAmaPG0NANPn89tqdff2kNFQotx8zTKyF0ewLxSrajtpABdbhlgruce0HfnjVwt4hHOsnJBZj7GNRrVkXTsHRJ+MQygRXUPknqd6dKY6ZxPD4deK9H+yDLFWU1LTrl0LkER8ajniqDPwm2Oo64HedNYWcJNliKPDzKvK07YA0NgpZVeCQvgfq62t7UNcd48pTxz9vKohcdIVKu4RRCxPKfzGa5Yh3rE60YrIz7/yY2xeX2AZIurm0VumKti1zxJIZh3GPhj8ubKRVTlqU57btJ17gEYfRP9BOMjKiVVP++Y9pgR/xkSHdysnf8rcwR0ymiZrQPL+Rr6Vggi/KuXEkUH5VOnbFgBM25Gv/YHP+Bn4QdkQKhs6qjaGojNtR34GvN2PmZk+Uc7rN6ykM21ZAy/7/ymMAPkECtJgVt3ZYA6Upagi9y00zFdb+aG/xwPLAiDbqWkerfUZNYysxy1DrEoTV9+vwX8tQ6wfRr+4eCRUmvOmcwWYQqxP+zoXtyUAqL6WreHcVwk4rlPf+n4La9ru5QCf4keH1TLWihV3ChMrJQghxnz/yfe/NHrsBpvcCsIHfPWNgYCAP3hCPzRMwc5Q0xfs2s8IpJT9SB4dW5qgNyoqTduRR38TFUz6iWWIzynQtZ3ErLjHgliWKwdNL25LcVjsASBg5tsKhzPuqnv6MVdPpNfavgKKEwTJ32fwzmUj+7hZqT2v2jaMNHygNF4o4+a1UtusOH/o1I9/pR4yCJQMEfgNbyg7zHm8BTz3RbWloXmWoefMqvM+MJSOTTPwJs00Bp5Rk99+Kmkvee6tDAQq+CLGvn41LUG1jzUATH2at/R0V74CrxNAkVvFQv0o1Zz9AHIjkypnl4EshvcYgVQ3LG+zDHFIZAUbqcauxeBCHLKCymDmcjmflbBskUeh4lxAhDNVBBHxNPZwoNIxa8CaApX546Bp7l/I/Yw9lOUxv7B4jJgYZ9pwrAEg+JOIZ1tGtis3r4rTzUptOoiuUqEF8E8AGyvRkredlRtQylxr/eSvfQZEyjh6SroFJCLiz5Ry2csCsq1F3jwufhbAWzZVh5Er8RE3U5mTmE4s5fWrVWg7TXPCE7xOZrT7a1pRfqw6fmgZQjW71FdmbAGgUHVl6WSAOnkqWbnMNBCxr5ZdIpALpI925Q87yBuNj7bxdKINmmnYThdqrrvVrEmjVSopW6pRrNROZaJLY9R14VjSN7okR4MxyoxV1GlVHljMrkQMOkBRcB2avrU1nl5SpG9JFlsAMCvOkyC8W02p3n7yr26DWXF/CuJpanb5Ui0WrG8dRw86066VAIrl9dtXa7+QRjSrlNNj8ZFpS8wAHjbDMoiuBLqkZOinB+HpFm2w49DhMyOD6h9LAGjubK46CvNRYo5liO2DKtot+qmV2u6e7DUfwyDGN0t5cW5UUWaVJ4Ebey09MzLQJ800KPJGW7HqHs/MkYBXVzklpk+tTji5gUhE7pPLk8uUjisJ9W1Lxij5yRRpxBIACrZzp+J3zDLy6ju1q5AnkidaMAds4jGcpEUio28RBwpMwXYuJKAnjrX+/8eGC62cOCOONTBttwrI7kARRo9u/rWyKEACGsLCpq05f+QA0OjcoruyUstXVjsyySLcIsqshWqtSEyzlBmGIIzr6S9Fm1X3dTDHhaAUxazVed+wDOGbOKUyWRz+ZtDxZUO/TmW+XqIJ8DBdYOX0d0bdQ/P90fo5p1hxvsCEH/rRAa2r5/z5u0th2o6Em/KvOBtazSUs9M3LW1PkQpRAgBoddlmsuQ127YWwpbUMvFw2hNIpQYdd5Dtdce6yPGsZJSxEz8M+syeIP/sKbUEQOQCYtiN3/n371o10tJsugEYpAAAgAElEQVRC1Tln+XlFqO93JpxbzolvRlmolbzFqnMuM86JQ1bcMuJ8ywmVUPb/Bn3NMsT5cdvXKXmqgCl+mBQq+sYRABY2+sP7DFfTN75mPMmn6IgcTQxDef4ctKz2DXepvvk1O8YDumHajjwyioKr0E7/x9bEVIJxriPc5wnYNKDCg5qjbzZrO/pPQL6eIQ9wpP4byxCR2uRFCgCy3NepuyqvtU9bhmhTk4/OrVuh4s4k4qlBZozz6S/nNW2nZ/MmpH6WISLdU6v7NgDQ5yo2CbldzsdzJBlkneOkXdFNyZVVjlprudE/qyMtllnlDcENKGa/cbNliKP8iHr9ehDsuaYtsT79kxYA5FvAWNHYYFbJDmy4vNfy/sPe04qFTo5liGzYOSRfpADQxHbzzUhi8LVlIxsLOEUUY+PgDdTcsw1gH0l6A2gGPAm4+QOltVNEa1aS1WUiVVAazdE3iPK5Ey0APMsb111X4rH5jUhNNf2Ed/J6kAAQ56bYShvTANBitRl3W3nRkZLodt9zpl27DqBP+M0TdW8tUgBoAjLW/ZRk4J6yId7nR9fr14Mc0TRteZ2FvnUcx39JDABNMNm/q/ZV6KtPgIpz17Dgrav9UKycrkXJBYgUAJqvaIsVimXesHL6elEU7YXgUKy6M5j5U0F0ifstwLRrstW2CghGEDXjoo11s9e0HYkMJSG/lQeDy2UjnhJl5UnjJpTt5GSylz9oyELLEJESwuIIAI+qdPNlxn7lvLg3bl91St6UZ3iDTMaVT6NRAed8g4W+VVxvAabt3gRw2zDiAtq2Jnlsm72TX+LRY5c2QEKUNwBXKUP6RmHbw0W0Pxb2qbaznwf8yU8YA38tG0INfHYYYZEDQKHqXkrMp/opC4ycCsChbDFt52vLN5m/5W/n2hRxvgVERJkNo74yDzO+Ws6L7ygztCAM1Eh0DTlx+jsOW4LKUIbUY1xo5aPVX0QOAKbtfgJgpZzrqDuWQR0ZJ33EVODY3gJOnOvsrWm4L07bYpNVx97WxOhtzZvn4PJ0KWxtwauWITaKza4OCmpWBco3Td/BTEeW87oqAvWQ8iIHgCZoxr/VXo1phmXosrPqiBpmxT0RxOUoSsf5VCra7gIGB82Qi6K+Ai8tsAw9Fohzs+KcBULENwkuWkbWUlC8p0iUn/7Am2NJ3yAq2EnkACC9FwzVdehuOj21CmsoY9rOYwB2iqhjbG8BhYpzPhHOjqhP3OznW4aQn0mRRgxP/5Xzh24DHsmACMyFqvN+YigCxcaDLBVLAAiC0ArwSyzE7uWtSSV/III742EN2Oar5aRxvQVMfZa39Fy3K01ThjPQzehbXrMtKSL7Du+mQsU5mwixFPIw8Z7lXFa1RVs8N0xIKdPmLt26rukPqR55ehrvOnt89pGQ061iiyUASGmm7cjItVbrpmEUfNRdqu8XV4FMVCe04jertdnhmjkMKXURSN82jh1q0679BKBegbuKBXe/edIiOyr7FpeprDkxX1PKZ0M04lCRHh+N7EeJmvsgEQwlqYxfW3lxhBKtD1FsASAwdNbytM0tF+gfPnd/cuMwpB0yIlQADqsOMV1eyusKpyatLZo65431PTGmJ/oojBrQ179iS1JqqNrKqqLtXszg02Jcy8F6Xd+8l/pNrGlbo2PQYlf2N9hN0W6PvPqkuFC1YgsAUvmiXbueQR9XNAQgvtHKZdXplQXHQ2jajnoeOiCLopR2npm9ieX8gBLoQytLCpXaCUTUXchr8k6wcgORMfwK85flqJ6xFVdOGYKdGF8s5cWPFOV2lKyR67DE/a1Kxt9KxRh0ZdnQ/TtWKVoSawBoPjGrqsCGDR0ZvxaL9Mk92RjErr0I0Ba+vmT+GRP+GqAxSGx182bV+TEYn/fVsR0EzBda+WwsOIDFqnMzM5Rea5n4VGLso5Irv7w1+otWTmzVa1mosg+Cp7kSS3P3AEuzwF2qG3F+OscaAKQhhYr7cSK+PoBRjdZgAvqxccBlB5q3BXFhnnMQefhfFXkrWzYFaQ3GhP3LOaHU2spPh6Lt/JyByX50sV5n/rmVzx4bh8wguQ0Mfq5sZLcJsvFMhA+XcuL2OHSNQ0azg5Zsi75jIHkePmhNEHcF4vEhjj0AND4FKu5lTPzpQIoyXvGAT87Oiz8E4msTsWk7/wNABcPgGcsQjW7AgZqDArEeU3U0CMT445d+M21HKZ1c0hLRJ0s5/doVDxunorJxxsD/lA3xsTbdKoHEhm0OSsA3SoYIlYnaSsG2BIDmoiphBa6pHAMXvTlaPzvO/meBVghA81NGcYONP2sZ2VU9AYO0B4+7bZVZdX4IxheC2huInvlHVj4r90ZiGYWqewIxq+1jrNFRuVBxziCC0vc9C329uOoxwhg+vcLvqJFzkWoX5LfOQSXL0AMhUanq2LYAIDc41lnq/jHgN05Tb36RQdPKhrhD1ZA46YK0qFrzxgqC7Q5gAQt927jabK8IvOqp2cF95h1nGQPBPu98JjFtR6a9KmYQ0mGWod+6UmTz2FBmoSoMPtkysqp9HhXkqZOYds0E6MchU5t/bxniIPXZglG2LQBINY57gdcbGHRlBWA4PEDmn2c08YWZOVLKjQ5m+vDUBdt5UClwMf/MymdPWFOSaTsy+US1Sit2BNtmo81vAIjlSU3AD0a9XT/v8o1Iln7HNgIWNt1rGWK/tXxdrd0AJpW9iPssQ+wbm/IKgk6sDm6nsSZ7Harmx7xFKjH+vGiMfkA734bbGgCkNYXneBOqOQ+AaEsFnw1JIoE13xylf7+djlg5caEyOIFIU2txRXi/lRNrlW0GzB5cCk3Px9XscXUHSt9rjvspBhcB2iqQ/5mfZ6ISnMGflrcbG3vWZrOhjDz2G6ui13CZb8WqcyAzZJtt35Hx3G1mThgtE43aOuTrvoP6BVF6ShLwpJ7R94ujk1QrY9seABpB4JmlW2kZ/dcM7BDW87LZAxF/y8plrwgrQ4WvWHXOZ1bJs6f5lqEP274qYE7ETZYhjlbRLyzN1GptZ0bmfQzeBcx5ABPWkDUXRBUCPUKo/2lWLivrH9o2TPUnNzDMm9ZK5UzV49o2YDSu7iBZx7BMd7/I1HjzitJR+l7B+lGdOBXrSACQTlqxJ+D8NNwmyOpupmdX5NS3p+e78jcp42wrLy4Y7hfSzO1Wbt7IGg4ujxe/a9svrocEB+1ulCF9i1afgQXbOY+Ar/ubGB1Ge6g5mtBlnwEaD471/PVoSfF9yxBfiShDmb1jAWBVtK7WTgHT5coaDktI8wDvO3GWfAY5W66z/s6r8yQhq4cdBdv5PgFfUrO1PTen2tydpQrY/NO3yjBIsNWY3zsrn/1rHBY3HmrL3NOJIZOhlLJAW8y7mJimlPL6zXHopiqj4wFAKlao1HYjIglkEEP/NpoP8AzN0WdGgUeWeplV9xIwy0jeeiiizx5f5XWz7M5XhrVq8yuqn1mduB5w4+9fox1928u38998VN54JfzIyolIm6NFe9k2QGY6A9NUq/da+pbxNy1TP2rW+FHzOrEGq8/RlQAgFZBHOFrGvVGxrbiqX25i4Mqwx4cF21mg0oqKiKeVclmlbsFBe9zF1fdd1WGdpDPn8RbwXLnxp4aryHySlc/OUNGxYNc+S6CL/Gn5xeVvjYE3pFe85tePhASFJezvP48qBc9ePFqc0okN7qE06loAaCgj0U/nOSeD6bsKCKiqHpV0/yDgZ269Xrp64iilApMA6ajO4IC+8XWq1W8rEF5lppsqoMhtliEOCWLsSKE1q85tYBysoq/cBS/l9J1Uc/inrehR8bJKsxsi7FXKib/46tG4P939VpSDs8wkXNeXR51gAYFOLxm6zDjt2uhuAGia3TwSugxA7Gi3EjkVjBuR1a9rBUJiVpwfgxSKakLUYpvznL3gQb2Ns0dHWBN0mSveN8O03UMBlo1NlYbyj3Q1aQXbkcU1H/SdwAdMc8rcwR30jHYse3x8lOPr4fWgK2qUOfPaHMnGul0dPREAVnpAFuBoHr4X5biwpTcbcEt8nZsRt6zZqXh5tpZiP3o6zjL0wNlwAbDe5KvRS4tHi3y3XgvjviNXQHw7FaXKSjk58dVWLntiUD3MSm0aiH6qwPd3yxBvqfI0q4OTiLWjGZDl6Y3ajjaMO8jjs0sTsg+3QXYokT0VAFZaYFbdj4H5PADtbIDxNIA7AbqDiRerYrGRp69bmkCLgnq7+ZYjN3nGKPHGAPmsNE8HiALWKCwRrG8Z5gw8SA0HAweCaR0iHAT2DmrPk36Vcx8gxpdKedFzaM49GQBWBYIGGq93HkDv6sB9qjLFLZYhPqpCOBRNUKz7OI+swuocla954qN87BYVwCNI78aotinwPw7CmVZOKGUqKsiLnaSnA4C0ttEiOuucCqavxnLkEsWFTAUrr88OK+Lcu1l/YXP3iQCvmHO2/Ie+Uy/DprXyRQh7H1+c03f9BZFvv8nh5i1Wa1OZaWbYNYqHj55l4OvlXOZ61U3MeOYNLqXnA8BKk+SZ+oDnnsGEkwFsHNzU6BxEOIvBt1u5rNzVDzWKldqOTPS4KnNcSMKq88VJZ1adb4DxTVWZXPd2KE8c+Jsq/Zp0J86r7aLV6cDoPQXCacAMWwNfXMpn5Yb2iBgjJgCs7s2i7R7N4AKAQ7vo5QcYkEVOj+pcf3imMaBWQLQCAOPbAOQbjdLwyNt+dm5gjhJxjxDJTTWwpq4z4zwrL85RVX+aPTjRpcyuYH4PAXtgxZ9ujKXMdB0zW7MnCPWTnm5oOsScIzIArLSjOJc38zT3ZELjrWDDLvv0TQYeocaxI1c0IrsudHu4o0fTduQmpNomJ+NhKy9UUWO77IYV05u2I7/7VXUetqtwY/NUuAY8zkGjCczYjYBdlTdT2+QN+bSHxj8ZUxNXq2QqtkmNyGJHdABY3foGFqGElCbsFdkr8QpYsnwrYw6InwVTlcDzWSMbHq0f5FycGV8o54UElej5oZ6Vt8IUDXSop/F/yWODQduC2QBoG1ADR2J0jxl8EzxcFjc2X7ds7JsAsNKBMokjk9GmLI/Qx6mk9XbL8SHmXUqob18yRilXGIaYIzKLLP2mjC7fbnrthxvFtqeYcb2u6Vd3GpwmitIqvH0XAFY3WpadMtFxRCxr7cN2mlXxY4do+HmAngbxInjaIoAXLa89lyg9izTwIpD8NyyS1+suakRc04CaBx7U5H/TQG2QUMtkUMsOoDZjM5JvJ5DNKWqDyNbryA4wsh4PZj2mrAYa8IAsM2UzOrJgkh17xoG9cR5oHHEDzGMcQOOgeePkdQZPJNDWHXJIG6ehZ2XfCsD7mZUbkAGtL0dfB4CVKzaZObOO7e4l4aHBOAiE96jkjPfliqdGDeeBOjHkxu5vCXxbKZ+Vx7V9PxIRANZcxQaYpO4cEw8uQd/fIwkwkIuDA+JXygVefeSRRAYAuX7FirMPEyRgaToS7oGVjV2S6IbEBgCz4pzVrYSRJN5ovWyzTPAq5YQsSU/cSG4AsJ3fAviI74p7dAQRv+YBuxNYQn2/t82FI74qpQRDe0C2DdOAB2WfRhA9yEybE/PPFfwVW69Ghbl6iiTJAUDWYvv2oa+R/rY167blHoKu1/dmj3chDTsw0/YAD4sQ3FMr3ifKyEQcIjzFhCeJ6RHNydy/JiRcA56b3FcVTH7DMkQfnBIpWLoGSSIDgHI+/hqtqPzcK3PRM3VtO494e1rRDCXX/OPHml4f3gOV5T1mbGbMIY3maPDmBIEsN21HIkLJdWg5RmK6tZ9NKteTGQCUK8boCsvQgzU5HcLrDSw8drcB8zYyw43BW2tMWzHRpgBv0u20VpUbpU00iwF6BeB/gPgF8ug5gJ4F+FkX+nN+qMsqOhXsmkUgWTfSekSs9PQT36vXExkATNu9HOBT/BZl9U60frRRrstKx4w7uInIZDbxmDZl8jYhpk+CGjnv/TD+AvANTNrL8PiVTKb+cmbMwIKViUjtNNC0aycBdKXfHLIpbdkQn/ej67frCQ0Azv0A9vRbTE2r57oB1Sz1mlbld9bZfTJIowkGXUngQSIa47E3hkASfUj+UUPhXcMhxFjKhCUMXqqRtoSZlzBogMCy+Ep1vMpC36EVHqOqoDB0Bbu2E4F8uxwxcE/ZEO8LM8dI5klcADiXWXuh6i4DIHwWbqFliLd1c3ELFfcjRCxPK1THnVZOP7BdIBTSd89X3bsJWKtJ5zAKMmn4YGm8uFvVgLjpAqz3EssQUdp5xa16R+QlLgA0O7Y+5eddYvyulBdKENZ+sqJcN21HYt1/NoCMb1uGUGiTFUBik1S9b2KTgXCBlROyXVZXh1lx/qxSJepRffzs3CjZyCUxI3EBoFE2TOyP6hsQoKJdd0wDEk24DwboK7C8mTIOLBnizjh1mmq7h3jgWwPIfGjLnL7HuUReAJ62kBZs50ICPucrvA/h2P1sTlwAKFacc5ngizxDTEd1uk/bcIvVLLGV6DpqiMLAGx7Vd4nraXZiddm2GmckjJlSK28Ar9dZ3z6OXXy/G1jl+nLId3M5sGxJgfYrliG+r0DXNyTJCwB27XoGSez3loPZm1jOD8z1o+vUdeU3l/9X6OnFo/Vdo/YWkKXCzmJX4tiroRfJrgZEh5dzunITkHb7sFCt7UFMvp2AmGlWOa/Lfn+JGYkLAKbtyCfZjj4r7G2Z00UvvL6urmeh6l5KzKcGuDtvsgwhsRBCD9N2ZOuqo1QFEPC9kiHOVKXvBN2n5/DYpcL17+XAuN/Ki707oVOvzJHEACBPAAZ8FuAZyxDt6g4Teu2nP8zCWde9JxAAJvNpVj57aZhJzWrt82BShiGTR2lb5fT9ey1wSttN2/mnQgvv1yxDvCOMr0YqT6ICQLM7zwKFxbrZMoTyU09BXmwkEgiVNVe+xSiDoDLxnuVc9oEgShQqzr5EkMFGcfCLmiN2jtqiXXGywGQF2/mTyvGlGKuv04kEpcAGtIkhUQFgaqW2u0ckd9Rbjxh6yPtNEeV685tWtpnKKMr5t6bV91RNampu+snvftUCmUEQ7xWlX4KiHaHJTLtWBsi332Cv7f2ENliRMVEBoGC7RxHYtx0zE59azmUvV/RhV8iCvp6D+QUBsatfz70GWlLGeTRIOzYGHV829Ou64gjFSQtV5xxinOtH7jE+NDsv/uBH1y/XExYAaqcR6GLfxSMc1Mv93Fbqb1ZqN4LoGF97VhIwHl48Rt9vuJOB5o6/REmSmImKg66yDD1IarCi3HjJClX3BGK+2k8qMZ1Yyuu+dH5yRsr1RAUA03a+B+DLfotDXn1CacIoWYba02NF221XdqPZOYCiv7EMcfhQ9KbtyKO7IN2W7rUMoZoWHEDF+EmV9zQYZ1t5cUH8GvSmxIQFAMXvQKGvV96aXu/NJXurVs2NTYlgq7wpCNAMy9BPWl1SoeLOJOKpAWz+++CAvsNIAdIsVAYnEGkq7dt+YhnCP2swgKN6mTRhAcC5BcBhPgviWIbI9vKiralbswW3fHX3O95cxcrAl8uG+IH8h6BtywG8mYG3W5B+iN3254q9DfffvnoQX23lsr6bhb5yRghBogJAseLcxwS/RI9/WIZ45whZv1VqFqruZEX8u1U8Mt0ZGurM/KsAfRK85U1RDyob4o4R5SNmMquubDvud88P+4k0ouxVVNbPGYpiRgaZaTsyn94vwecxyxABNsF6x3az6nwHjLPaqdFI6lG4ph8Uk4FGzL5GHOuctADwDwCbtXLcSAeGMG2lz5yQ9w7PtoysP7xWSOntZivYtWf92pYR8GTJEH6p4u1WtWPykxYA5DfgBq282ys4AGHvAHkyMG6pK1tc7RBWxjB8fxEL9ffN2JWcmOV2TJxpOxIHQoK1thpzLUMoFz51TPk2TZS0ACB39v1Qfn5pGWJym/zdEbGF53gTqrmPgSABR2MY/PzggHjPSNnxH85g03b+CmC31g6heZah+6IIx+DUnhCRtADwpn9NPV9vGdnjemJ1IijRaJOuaTL/P2qb7oWcqe9a3nZUNYI6PcFq2v5YkLK5SNnIbtMTCndAiaQFgEEALY/4CHxDych+ogO+b/sUpu0eCrA8+gy7znUQPmjlxJ/armwHJjBtRwZE2d2pxeCXLCP7rg6o0xNThL0xekL5oEqYtrPE94lIfKOVy/oChgSdu1v0kXogRigl7pa9reZV+QRI3wB6ceVi0sm0Hdkmyq/ee8TvAazuLuUuSGv7eBnI28XKDTwdk/u7Lsa0ZZGTT9p0wG5QXTcqogIJewOovQjQFj4+u8MyxIER/doT7M3yZwkO6tsDcRiFX/c0/tDs8dlHesKgiEqYtjsfkN2ZWo4HLEP49oyIqErPsCcsADgyF3yCj/cfsgyxe8+sUEhFivOc/dmD7CkQdRPwTWYcXM4LmWo8oodpO68BWL+VEQz8oWyID41oQwMon7QAIIEh9/DxT9UyhBHAhz1Halbdj4H5F3EqxkxHlvO6TBkescO0HVZQvq8+Af3sTVQAKFadm5lxhI9TRnSHGLNSmw6iq/wWPsx1Jp5azmVV4LXDiG8rj1nlDcHuvxQmudgyRJBGLAoie5ckWQGg4l7GxL7dfgcH9PVHWtLLZObM2Hn1i8D8mbbebowLtzT0L/Yi8Gcru0279l6AfHERmXBmOSckbkQiRqICgGk7XwXwbb+VJeadSvmsrLEfEeO4F3i9gUH3ZgCdam55Z430o6/N0cIR4SBZ8qzaEYroBCun/2yk2BVVz0QFgILtHkfga32dxvRxK6/f6EvXAwRmdXASM93qV+QylKqysk8DiAk/DG4KzWOuH9ZLzVNa2VCwnfMI8O+ZqGFva7yQ3aMTMRIVAFTPxHuxucVQd2Mz00+CcQY+5lsd+65QrRWJaVaIO36hBjpulqEH6WAcYproLGbVuQ0M32avox193OXb0eLoM44MCYkKAHJJVHaCR8JRUOBOvavdj0Pt6Bcr7pFMfFOY25aBb5UN8Y0wvJ3iUUsC4+ctI7t1p3TqhXmSGABkZptfuefgWNLfdkmOZO1AT42pc3h9T7jyhxrme3+R5+Hg2ROEBBJdazRzByQw6DohjP49C/3jvYilOLVa29ljklmAfiNRaEDSGQkMAG4JYNPvTmCmQ8p5/TY/uk5eL1adPZnxSz9Qk2F0+o9G/KFZuexjrXQ+cV5tF82j2/0SZoaWwS9qjMmz8llZdtszQ3XzlxlfLefFd3pG8Q4okrgAoIoPD6aZVl7/VAfWQGkKVUjzYYT9nTP1D6iW9BbnLsuzlpEpxGGxEc+3DPE1JcM6QKTYEFb2Nd7DMrL+naM6oHOnpkheAJBgGY77soKD33SX6htfsyNJDIGujROrg9tprMkTCT8km+F0nCtc/QMzJpGKzatkrIAbr98D8PhQxjP+liHv2G4jBzcRk1XeSN60cvo40PL+QQkaiQsAcm1NW6kmAAQ+pWRkr+zW/aB8dDW8gg8ODugHh01qau43/M4fRaelh75mGeL8bvlQtScgEX5Vyokju6Vnt+ZNZAAoVJyziaByU/6Thb5VeWuSLcU7Nopza7uyRrI9ld9m5fA6Me5ePEY/ZLg2YKrGnPAEr6OPcn8Dwv6qPGvRMf7GxFPKRlZ2Ne7YmPLMMiOTycgCMM1vUgmRXsrrMpkqUSORAWBKhTfPkPt3lZXu5MZQM6NPNrA8XUW3FjSx57MXbfdiBp8WUa/vk6d/uzSBFkWUo8SuevYP4F+WITZWEtpnRIkMAM3PAJm88hGV9Wx3anADxNN1vwiGrFOIUr67hEBTSobu2wFZxe41aYpz3WNYY8sfV7Gl9IVEuJShX2TlSAK0tGWYdu0kgJQ+30ZK4lc7HJXYAFCoOu8nxt1qTqV5mpv50KxJ9IIavRrVtLlLt3ZJfDVgT77hhM/hTP1I1Z1+NQ3XpppmD06sI3NL6M3B1UQS6BLdzVwQdIPST/eC7RxAwK9Vg6lw9c3i1sFPx165ntgA0HgLqDgPg7CL4mL8G+BD4zgmmjpv2fi6p32VQPE02SC+evEocXLU731FP0DuC4jRrsVALPDpTHSZjsx3Z+ZI6bOslZ7FijuFiWer2kJEPy3l9Omq9P1Gl+gAUKy6hzOzfFIoj7DlorIeneEcRkxypzlIC+5Wuv2XiU4q5/RYwT9UndHMqbhEodeCkkgCfsFEtwxmM78Nc3Jh2s63AATKP/CoPn52btR8JQX7kCjRAUCuZ8F27iTgg0HWViLHEnAReeKXpQm0YCheuaGXXVZ/HxHvDcb7Qdg1yBy+tIT/ZV0vlremV3xp20hgzuMtUHdnRzolGFq/+wD8kTX8ecygft9wBTrTqvxOD87HmPFZgLYKYmqSv/1X+inxAaB5VFQJcuO8hZbxCgHzmeACyACQu8nyz7qhZbZmXALmz1r57Mw2yQ8ltmDXTiPQxaGY1ZheZ8a/iCBRfepgCBBkktJGauxrUf1DjNWNGZuRhIpP7Eh8AJArv7xfwJeXbxiNABQYvq7O4stX50k2Oe25UbSXbcPIyE8CpdOVbhpAwAElQ8h050SPNAA0l9+0a9cC1KstweZ6HqYNV8XXa3fwCpwC/EQBgrtLqnPRMrLyODPxIw0Aq90CYfYD2nwHvc7Ad8qG+EGb52mLeLPqfAOMM1WP49qixBpCmfHdcl6c1Ym5RsIcaQBYbZWmP8zCWbdRax/XLn3Ye+B1JlzkQL9wJOHuDWXs9Aq/o0bulwk4NWICUVhfrs7X1bqEOAyIW0YaAIbwaMF2LiTgc3E7W0HeIgYuckj/4Uj/4a9pqwwEruaetXwjT2Y7jlLwRZwkS8D0aSuvK+cHxDl5L8tKA8Awq1OoDE7QoM1kwt4dWMDHAL5qtCOu7Xc8usJz/HZyHRNMJwHIt9u3DNyukz41jiSjduvaDflpAPDxejOtVOLd7RPzAi0E8a80D5f1GoJOzHYOK86c63yANEuRfwcAAAIJSURBVJzMKz65otRADDXHvU2swjs6Zc9InCcNAIqrZs5z9oJHJwIsTwrGKrKtSVZh4JYMcOssQ9wTUkZfsplV58MAHQrmo0JCnkm/LAToWo29clKDatCbIw0AQT0mswfnOQeBsSN5vD1A24BoE4Bl23GZ/PNvZvyHCP8h8PMe0eNgPJpx9EdmbUf/CTFd4lga2YVefUcC78zATmC8C0RvB3g9ABs0f+ivEvMrrPF8ZnpKIzxRygmJZZiOAB5IA0AAZ6WkqQf6zQNpAOi3FU3tST0QwANpAAjgrJQ09UC/eSANAP22oqk9qQcCeCANAAGclZKmHug3D6QBoN9WNLUn9UAAD6QBIICzUtLUA/3mgTQA9NuKpvakHgjggTQABHBWSpp6oN88kAaAflvR1J7UAwE8kAaAAM5KSVMP9JsH0gDQbyua2pN6IIAH0gAQwFkpaeqBfvNAGgD6bUVTe1IPBPBAGgACOCslTT3Qbx5IA0C/rWhqT+qBAB5IA0AAZ6WkqQf6zQNpAOi3FU3tST0QwANpAAjgrJQ09UC/eSANAP22oqk9qQcCeCANAAGclZKmHug3D6QBoN9WNLUn9UAAD6QBIICzUtLUA/3mgTQA9NuKpvakHgjggTQABHBWSpp6oN88kAaAflvR1J7UAwE8kAaAAM5KSVMP9JsH0gDQbyua2pN6IIAH/g+584Vpr3LS1gAAAABJRU5ErkJggg==;" vertex="1" parent="1">
          <mxGeometry x="179" y="465" width="50" height="50" as="geometry" />
        </mxCell>
        <mxCell id="ugtfvKyXgLZFdfxOpgOD-23" value="" style="shape=image;verticalLabelPosition=bottom;labelBackgroundColor=default;verticalAlign=top;aspect=fixed;imageAspect=0;image=data:image/png,iVBORw0KGgoAAAANSUhEUgAAAQAAAAEACAYAAABccqhmAAAAAXNSR0IArs4c6QAAIABJREFUeF7tnXucHEW59781uwkBBIUPIHINOxtAhJ3p3XBLpidEERV8uRwQQYQD+ipKuATxgtEjgiICinJJQHwVDqJGEEl8FQ8qRnYDyCHZmZ4QJGRmlosErwgGJJLdrpNOsocl2c32TFd118xU/7efqfo9z/N7an7bU/30UwJ7WQYsAy3LgGjZyG3glgHLAFYA7CKwDLQwA1YAWjj5NnTLgBUAuwYsAy3MgBWAFk6+Dd0yYAXArgHLQAszYAWghZNvQ7cMWAGwa8Ay0MIMWAFo4eTb0C0DVgDsGrAMtDADVgBaOPk2dMuAFQC7BiwDLcyAFYAWTr4N3TJgBcCuActACzNgBaCFk29DtwxYAWjBNfAE3W9tQx4n4Lhn8QMGFvoMLZzBo79vQTpaOmQrAC2S/ifpecsQ/vESgi/+u4bDXrVBAIaveyVyIUxYkGfpcy1CTUuHaQWgidO/ks6tUrzhxA1fenEcsNWm4W4iAMMf/yu4KxCIhf/gpbuOphz8ba8mZMAKQBMmtUL2GEnqOIEMvvS7bCnEMQRg5JQ/g1woSS3MU/x5E9LV0iFZAWiS9D9FdvpaUsdv/NJPCRtWCAEYCbVSIhYCC/IUHwhrw44zlwErAObmZlzPykw9EIaODzbzgKnjThhlQI0CMAJBLgGxMIVcMJ3So/XYtnOSZ8AKQPI5qMmDKge+2WfCyRu/9O+oabJSAXgd2H0SFr7K0B1H8uifovpk58fHgBWA+LiOZKmKc7qE9f/tJbRFAhsxuf47gFE9GAo2D4OfCC7e91T5aHH0MWAFQB+3kZGrOMdK5PFs2MHfMTKgvjuA0Vx7fsOTBLkgR+mnOny3mNEZsAIQnUOlCE/g5NuQJ2z80u+jFDxeARhpbSCoL5DIu2ewrFd3TBY/PANWAMJzpW1kla79JKlTQBy/7vY5q81QcgIw0nLRRy5sgx/mKK2IM1Zra3MGrAAktCoGyL7JJ3VmcIsvYEZCbqB4D6DGMOT9gtSCbeFWh+ILNU62wxUwYAVAAYm1QFToPmvjl/7YWubpGpusALwWlUT8NNgvcPFu0RWrxbV3AImsgZU4x7ZBUJIb3OJvn4gTYxg1RQBGuPcPEAt8/Ltm2M1D7UvF3gFooniAnkMl/mkbv/R7ajITGdZAARgZ0zMCFkjk911KD0cO1gJsxoAVAIWL4nG69plI24f89b/rxYEKobVBGS4AI+MOqg0X+MjvzqA0oI2QFgO2AhAx4avo2WYNQ+cEL9+AzEWEi316AwnASG4WC+TCSUyYN5Wl/4ydtCYyaAWgzmSWcc4QiJNBHlMnhBHTGlQA/pc7AT+XyDtcSrcZQWiDOWEFoIaEDdD9Lh95Bhs287apYaqxQxtdAEYQ+0+QC9oQt03Du9dYwg1zzArAOAlZScZJkfrIxhr83QzLX2R3mkgARnKxKmhmMoT89gy8QmSSmhjACsAoyX0aZ7dXEbNSyBMkvLWJ859wIVAczIrfC/y7oW1ujsKqOCw2kg0rABuztYgj2ifz4jkSTpVwWCMlMYqvTXoHMBYlvwP5w0F2nDeT3w5G4a1Z5ra8AJRxTgHOHNkos1mSGyaOFhOAkZQEDVBvzVOaH4anZh3TkgJQJjMTxMfGapTZrMkeLa4WFoBhOjY2QOWmHN6iVsp9EGvLCMBTOAcMImaBPGm8RpmttAisALwu20ED1B9L2ubmKTzWCuugqQVgBT07TcQ/x4cPAqEbZbZC4jfEKO5cRdDEh/e1TsyhI10p4Pa1tM+bydK/hp7VYAObUgAqOB8DPlxvo8wGy2Hd7vqIw59lrWgj9WDdIC0xUS6RiO/k8W5qtnCbRgDKdJ8gkLOAyI0ymy3JY8TzYJrC9OCzxWQflMjDWyTuqGHeB8x18e6OCmTC/IYWgDLZ6QJxjoD3q2yUaUJiYvDhpDSFuwI7fWTfB/KOGGw2k4khkD+SpOY18hkJDScAZbo7Bf4sEEFJrpZGmc20SseI5ak0hckjP+sj8zRg7GvLhufkeYm8rZ32udPoLxvu6+vcawgBWMmh26d49Rzgo4D2RpmNlMD6fJWz0xSvHTm3l8yFAq6pD8/OGsFA8KryzauZNO9oHv6H6cwYLQBB+yw2/K7vMZ3IBvJvKE2hfTR/+8jIBoqjEVxdmoK50w1uc2acAAQHW4II/tsf3QgZbjQfBfLqDoqfHkMAvg58otFiagR/BfIef8N+gVEHrBohABWcqWwo0jmzEZLZyD6maH/LPjzyx9FiWETXHu2IZxo5vkbwXcKtKVLBy0lLkvY3MQGo0LMX+MF/+o+b1igz6aRotP+DNIXTtoS/mMyPJJys0QcL/RoDwR7BjbB2nstjwSZs7FesArCSzq1SbBf8pg+++OnYo21xg+2IqXvTv3TLAtB1mEQ81OJUJRC+qICctysvz51COXg/IZYrFgGo0H2aRM4SYItNYknrqEZ60xRCHUDSS9eDAmFzlVCuJPKhDT8Rit/X7YJWAdjw255HdAdh8cdnIOhUPIVicHLvuFcvzkkC/85xB9oB2hkQpA7WuVegVQBW0bPTK/h/0c6SNTAeA5U0hc7xBo383BYG1cKWvrHrKg13yVPQ9h3SKgABLRUc+2xZ3/oIiSxnpSnOCzl4/TBbGFQLW/rGunhav6NawQNayjh/ELC7Poos8pYZEGvS9G9dK0sSxGIywbvC2tdIrb610PhVLp7W74725FZwFgPr3zqzV/wMCMRXOuj/XD2W+8jYwqB6iFM0RyAeylGcpghuVJg4BCDYyfyAziAs9tgMbE1q593qbGhhC4MSX1nzXbxTdXqhXQDKdF8ukHN0BmGxR2dAwm2dFP49Cj99ZH6ELQyKQmGUuVe6eBdHARhvbhwC8FGB/NZ4jtjP1TOw7mTdbAcFLwryYmxhUBT+osyVyHPylG6MgjHeXO0CUCVzlCRlj2oaLxPqP78vTeFIFbB9ZB4AtP4WVeFns2EIxDE5ivfojEu7ADxO134TaHtcZxAWe3MG2pDHTFa0eHrpOkkgbGFQzAtNwIE5vOU6zWoXgAGOmOTz4is6g7DYmzIgV6Qp7q+Slz6yT4HcSyWmxdoyA4I12+dYsVonT9oFIHC+ghOc4V7zs2idgTcztkSc3Un/zSpjXEx2tkR+QyWmxRqbAQlDebxRG7eo5C0uAfg9oPQ/kkoSmgzrpTSF7VTHZAuDVDM6Ll7VxdP+xmwsAlDF+YWEd48bsh2ggoHL0hQuUQG0KUYfma8BF+nAtpibMbDIxXu7bl5iEYAyzk0CztYdjMWHdgZ33Jtlf9fBhS0M0sHq6JhB16A83lm6LcYiABWcoJjhCt3BWHy+m6YQnIik7bKFQdqofR2wj7x0BqUv6rYWiwAM4Jziww91B9Pq+D7+gVM0Pzbqo+tQEL9rda51x59CnDWd4q267cQiACtxDk+BPX9OYzYl3NtJIZZ9FlsYpDGRG6EFvD2O48pjEYCncXZbC8/qp611LQj8d3Xg/TIOBh6g60Qf8eM4bLWuDT/tsqyqO/5YBCAIwjYG0ZlK8Wia/oN0WtgUu4+up0DYwiBNpK/m5UlHx9AcNE4B+BOwiya+WhxWfChN/y1xktBLdrawhUG6KH/JxVNeyzGas3EKwMPAIboYa2HcF9IUdog7/i9C6kgyayWk4rbdAvaWu3gHxhFnjALQfQfI98URVCvZkPCFTgpfSiJmWxikh3WJvCdP6Rg96K9HjU0AqnRfJZGfiiOoVrLhM/GNUxI6hfZ3dO2x1h4lpny5ScSNeYrB4Tnar9gEYCXZWSnEDdojai0D30pT+FiSIS8mM1/C+5P0oQltX+ziXRlHXLEJwMZTf38WR1CtYiNF6q37sDTRXgu2MEj9apPIU/OU5qtH3hwxNgEo03WgoG1ZHEG1hg358zTF95oQax8Z2/lZYSKG8KcdwbJYzmeMTQAGyL7JR2h5SUUh9w0DJRHv6KT/NyY4bAuD1GZhAnLPwyj9QS3q6GixCUBgvoKzluCFNXtFZaCYpuBEBVE53xYGqWMzh5cSEMuJWrEKQBmnLOyx4JFXioAzOih8LzKQQoA+sheA/KZCyFaF+ouLF1vBXKwCUMH5NfCOVs2sorj/kqYQ2wIJ63NQELSYTHCHZwuDwpI26ji5xKV0cCSIGibHKgBVnP8nQev76jXE3pBDfeScKRSN7K2wmOzVEvnJhiTWEKcl3JXHOykud2IVgDLOfwi4LK7gmtHO1qS23Y2lQZNV4677OXDPFG1PG+dYYzl0jYsXW9u1WAWginN6cFxVY+XDJG/l3DTFc03yaFNfesnMF7YwKEKK5AUupesiANQ0NW4ByEu4vyYP7eARDMh90xRXmkyJPUosWnYk4vg8xYXRUMLPjlUAnuLgjkEGK+HdsyNfY0AsSNN/gkpGgnw8zRpUN56whUH1Z0kie/KU+utHqG1mrAKwnAMmTmKrf9Xmoh0dMODDEVMoKL17qpL98rP4uJQ+r5LlXrpOFLZjUF2UppBvnk7pz3VNrmNSrAIQ+FfBeR6I/f31OrgxacqSNAXlj4YqOKtWrRcAbzfVwfaReRLYWzVus+O5eLF+J2M1FiSvSne/RBpVxdYAi+oDaQpKuyqvxDk9BbcFArAuLWesO4VGaWFRH10XgLCFQTUtLvm0SylW0YxdAMp03y2Qx9fES2sPfi5NQfl/6DLOIgFHBAIgYFFO8Sk0GwqDsq+CbGvt9NUUfZ+Ll69pRsTBsQtAhe5vgJwd0e+WmS6Qn+qgGBzJpeyqkD0YxH8HgBvvAEghDplO8RFlRoBeslcLWxgUmlIBt+fwTg89QcHABAQgOxuEPWU2ZPJ8Vk+aorg7bAXnRmB9I5FhAZBwUx7v4yHdCjXMFgaFomnEIHm56g3Z8TyIXQDKZI8XiLvHc8x+HrwOJq7tpF/p3dJKDt0+xat/ASaOFADgVcGanVSfR99HJti7OMXmc3wGJOKjeYrfHn+kuhGxC0AFZyqg9FZTHR1mIbUx1DGZ0oBKrwbIXuCP2JwbvgPYYEPOdildq9KeLQwKz2ZwgnYe797wM6KPjF0ABjh4V5/B56K73vQIP05TUN5FuYLjAV3D7L1eAETJpZhRzexiMn0Scqpxmw1vEHnQTEqPxhlX7AIQBGdPCRo/xRKZ66T4wPgjw48o0/1ugfzFyBmvF4D1dwHvcSn9V3jU8UfajkHjcxSMGETsMJPiC+FGqxmVlADYIpEt5E/AQx0UpqlJ8WsoFTY/m2FzAeBOF+9k1bZtYdC4jK5Z1wl463FHKR6QlAAEJa2xPu9UzJtWOIE8uYPinSqNDJCd7CM2208YRQBoR+xzOMVApJVdfXSdD0Lp/oIy58wAWuHi7R+3K4kIQBXnPyWcEXewjWBvXcOUZzopKD90s4pzmYT/2JSD0QRAwpfyeF9QydcdvK/tLTwRvAdiC4NGIVbAL3N471LJeRisRASgjHOZGGUxhnG4+cfIC9MUlZfQVnCCLrO7hxEA4FkXbw/VXNvCoC0xKr/tUvqoas7Hw0tEACo4HwK+M55zLfi5/zRv3Gomvx1UGXuF7Gkgbh8Nc7Q7gGCcQJyWo/gDlX70ccBeMOEplZjNgyU+71K8PO54EhGAKpmjJKlYn3fGTWw99gTiax30Kz8/sYxzn4C31yIAwH0u3pH1xLGlObYwaHR2UnD6dLxRRVp1DkbiJSIAK3EOSMFynYE1JnZq7zRLlfbUK9PdI5BLxuJjrDuADeP9qS7Llqrk8rccdHgbqQdVYjYDViDQObxFcceSkACsL0d9Me5gTbYnYX4nhVNV+1ihey7IMU+a3bIAyHkupVmqfeoj04ctDHodrRMQ+x6WQLu3RAQgiLyMs1rAG1QvrkbFSyEO34f+36n0fzkHvGESWwV1/5PquwOQa7aHnTKUXlbpVy9dJwmE0secKv1LAmtr2redmkC358QEoEL3MpAHJkG2gTb70hSU10WUcc4XsMVn71u+A1h/PtX5ebzrVXO2mMyAhMmqcRsU7+8u3o5J+J6kAPwM5DFJBG2eTXFimv6fqParilOQkN0S7ngCABRdPOUdnO6n64KU7Ri0PjUCijkNHIdZTwkKQPYGEMp/X4YJ2qQxAlHtoD+t2qewT1pCCEDwSPCoHMVfqfQxKAzalSf+JWxhEAK5MEcpkS5ZiQlAlewnJeJqlYuqEbEE4rwO+m9Q7XsZJ9QBHWEEAJjv4infoFxM11USofyxp2ouY8C7zsW7IAY7m5lITADKOKcIUNroMgkCI9p8NU1hq4gYm02v0LMX+KEKbkIKQHCq+96u4keUfev9HAzlp2qODMO7yMW7JgmfEhOACpkcpILHQa18fTVN4bOqCajQ/UWQl4TBDS8A4lKX4hfDYNYypo/sD0Aqv7uoxYekxwZHqeXw7kjCj8QEYKy305IgISmbg/h77If3rGr760qtg2KiPcPghhcAnnHxlL+k9ADO4T5+SxcGSUQur7j3Q5jcB2MSE4BFHNG+Fy8G58m35CXgex0UlL8RWcEJ/puGruGvQQCQyFPzlOarTlirFwalSE2eTiGRn0KJCUCwiKo4z0pQ3vNe9QLVgycPSStuwx34WcEJdutD1/DXIgDAr1y8o1Tz0eqFQYPsMEH1C2Bhc5SoAJRxHhRweFhnm2WcRC7qpDjqyzlRYnySjDNEqqaDJWsUgOAcoe4ZeIUofo42t5fMgGjNwqBVLt5mr2mr5ncsvEQFoIIT3Kq23AaQjzx+ioYjoKs410s4t5bFU6sASLghj3deLTbCjG3Vo8QE4qEcReXt38JwnugewMbb1SuAi8M62yTjnlh3zt9+qmNZQs82O+AHdf/b1IJdqwAAL7exzc7TeOiVWuyMNzbYE2rn7wFm+3hjm+xzLTUWYTlK+A4gew6IuWGdbZJx56QpBCfzKL3KdJ8rkDXX7NchAMHe8bkuReV566XrKtF6hUFXuniJ/RNMVABW4hybgoVKvwkGgwl4uYOCljcgKzjBe/vdtYZfnwDQ7+L11GprvPH34ew9EV9pM9LxbCb9uYTz8njKK0HDxpWwAPR0p/CVNpwIG3gS4wR8uYPCZo05o/pSwQl2/euq1a9TAIJHgkfmKd0X1fdN57daYZBEnJCnuEA1j2HxEhWAMl27CNr+FNbZRh8nWLtrB48qjzfKZmq9AgDyBy6l01TnpNUKg4YQhxyh4XFw2LwkKgCBkxWcNYDyeviwBMQ3Tt6Sphg0Q1V6lTlwT8GEutuI1S8AwUk2cs+ZlIJuw0qvxWR6JbhKQQ0Fk7TvlmdpYkflGSAA3Y+DVL4rblq+2/C7J2t4fj6A8wUfLq033igCIOGSPN5l9doea14vzkkCv+k7Bq07p2Eoj5foUw8DBCB7Lwjl1WWqF2U0PPHLNP1aDn2o4EQ6Zi2KAAh4Moe3TzRuRp/dIoVBVRdPeS+IWvKRuABUyX4rOBe9FqcbbewQ4v/sS//PVPtdpvv9AhmpNj+KAATx6HqTrY/sBSCVH5CiOgcR8Ra5eMorQmvxyQAB6P6cRH65FqcbaayExzopvE2HzxWi3z1FFQDgXhfv3arja4XCoHU9EW/N452lmrta8BIXgDLZMwXillqcbqSxEnF2J/03q/a5ipORUIyKq0AAmEBb5jD6S1F92XR+s3cMEnBZDi9U3wbV3A7jJS4AUZ5h6yJFIe6LaQpvUoj3v1BVnGuDjr1RsVUIQHDqr0txdlRfNp3/AM7efnMXBp3t4in/51BLHhIXgBX07N+O//tanG6cseLSNP3Ku+gMMHmSzw5B3X/kqkI1AsDq1by889GUg9N/lV7NXBgkEMfkKN6jlLAawRIXgI2HV6yu0e+GGD5Iauf9WPpX1c5WUPcOhSIBCCoDz8lTUv6Ow/1kp6WQD6jm0Ay8VNal4CXpS+ICEARfwfkzsHOSRKi2LRHf7qRfy9ONCo5U5a8qAQj8cfG0rKc+Mr3r4ZvsmshWOx3Kf/8tybC0JKzWgCo4jwBTa51n8niByHRo2BgLYg7umlTFHiivqmsmj72kCmskTh/Z94FMpGmmjng2Yr7k4m2nET8UtCkCEFR9nRTK48YYdE+agj31SGGu+shUAS1FRwrdrAVquYuX+NF4pgjA14FP1MKeyWNTiPfsQ/9/mexjo/nWS3a2QH6j0fwey1+JvCdPKfF/EoYIQPeFIBM5GEHDgvLSFLZ4Hp8Gm00PubEw6J/AhGYIViBuzFEc89j2uGI0QgBWkjk5RepHcQWt2c6H0xS+q9lGS8L3kr1aID/ZHMGLz7sUL086FiMEoEx2mkA0/KOedd1d/tZJYaekk9qs9pupMEggzsxR/M+kc2WEANRyll3ShG3JvoD/6KDQtO81mMB98xQGpd7pUvh10pwaIQASUlWc4JSgVNKERLH/MoM7drHs71Ew7NwtM/Ag2WlDTVAY1Ib/1mksezzpfBshAAEJZbIVgehImpB67Uu4qZPCx+udb+eFZ2Ax2fslMh9+hnkjBWu2z7Ei8QpYkwTgNwIx07xUhfPIxz9wCt7ycKPtqCgMNEFh0F9cvF2icKBqrjECUKH7FpBnqgosThwJP+2kcFycNlvdVi+ZqmjYwiC5xKV0sAk5NEYAqjhfkvB5E0ip1QeBPKqDYl1tuWu1ZcdvYGAx2dmyQQuDJNyVxzOi8tUYARig+2wfeVMDLvClaQpN9R5DI+RgCT0TXmHw5cYsDNLTP6GevBkjAE/Q/d425P+vJ4gk50jkmZ0GPM9NkoOkbDdqYZBEfDpP8eqkeBtp1yAByGbbEMqPndZM8h/TFN6i2YaFH4OBRWQntyMHGo8g+QGX0g9N8NsYAVhBz07tG063baBLzklTDE44tldCDDRiYZCPP2MGy4IeB4lfxghAwEQFJyii0dJDTwfT27PN9jvzQOLPcnXE1iiYvWSnC+TiRvF3g59+2mVZ8Hpz4pdpAhB0uc0kzkoIBwTc0EHhvBBD7RDNDDRaYdBqXp6ko39iPTQbJQBlnIUCjq0nkLjnCNr272DJirjtWnubM3D/+rdJaZC3SeXTLqW9TcmjUQJQoXsuyMTfkQ6RnJ+kKZwYYpwdEhMDfWQqQCOUkve5eMaUMRsmANnPgvhKTGumbjMS8Y5O+n9TN8AWJlZxFunAHQvzWfw4zVVcvP+rw2AvmQsFNEBTGfFDl+IHdHBQD6ZRAlDFOV3CbfUEEt8c+XCa4mE67A3Qc6iP/zsd2GNhquwKHMZvXZ2Dg8KgNQy+JGFiGD+SGiOQV+cofTop+5vaNUoAnqRn5hC+lv+sqgj3EadPof92VXgjcao48yW8Xwe2KQIAaDsNZzHZq6XxHYPkbJfStXHmeEu2jBKACpl9IWXyxtof0hT21JU8lf3+w/oY9x0AsMLF2z+sf7WMe4js5EHDC4NSyJOmU7qrlrh0jjVKAJbQs80O+EF9t5GXRHymk/6rdDhXxjlfQOz/GRIQAFIIZzrFyAebjpYH0wuDBPLwHKVYf+Y1zB1A4GgF52lA23/ZCF9euTWpN+zG0qAzrfKrilOVCbzemoQAAN9z8c5QTiJgemHQBOSeh1H6g47Y68E06g5ggwBk+0Dk6glG7xxxbZp+5SfgBj6X6e4RyCV6/R8dPSEB0HaMWBClwYVBa3J42whQdrRb1DVjoAA4wUsSp0QNTPV8iZjSSX9ZNe5G0bsdxGk6sMfDTEoAgqPN83jXj+dfPZ8vJnOyNLMwSNv+Rz08BXOME4Aq3Qbu5Io70/SfXC/J481LYvNv2KcEBeDJPJ62o77MLAySv3YpvXO89RDn58YJQIXsBSC+GScJ49kSMKODgpa3tyo4QSPReeP5oOvzpARgQzzyMJfSwzpiM7EwSMCtObyzdMRbL6aBAuAEJbY/rjcgDfMeSFPQtidRwXkCmKLB71CQyQoAd7h4Wuoe7uCAiW9hQvCmpkGFQfJyl5JRbe+ME4AkquG29E1Jwan7UJgf6ttU46AVOJl20PI4LKwrCQsAObyUrk2xPjJfAy4Ky4XucRJ5Tp7Sjbrt1IJvnACspGuPFG3P1BKExrFPpilo+51qQifkpAUA+KSLF5wOrfy6n659Uggj3rvf+JPnWJeSUW3vjBOAgKgqTlDTva3yFVE74EVpCtpeMEly82+YCgMEYJWLt3vtqQk3o4+MMU+VJLInT6k/nOfxjDJSAMo4ywUcEA8FY1pZ67N6uymU/6XDjzLZjwjEzTqwa8E0QAAQyHyOUl8tfocd20cm2L/Rgh3Wh+FxKeSbp1P6c63zdI43UgAqdN8L8iidgYfAviZNQdvvxzLOYwLeGsIPrUNMEABggYt3gq5A+8gET3BcXfghcf/u4u0YcmxswwwVAOc7wIdiY2EUQ2sZ6tifkpaOs0/hHDAIRhwjZogAMMiLW8/kyTU6cm5IYZDn4mV1xBcF01QBuHRd58QvRAks4tz5aQqnRsQYc3oZ59sCtDTGqNVnUwRAIj+Xp6StGUzShUESeU+e0jG15kf3eCMFoEr2IzLB38cSmeuk+IAu8k3Y/BuOzSAB+Fue0k66OF9M5kKZbMegm128s3XFVy+ukQLwJM57huCeeoOKOK83TWFGRIwxp1foPgvkd3Xh14prigBs8Nt/p8uyX9caQ5jxyzlg4vMJFgZJuCSPd1kYX+McY6QAVOg5CPxSnEQM2xLIkzso3qnLdgXHA7p04deKa5YAyF+4lI6uNYaw4xMuDPqwi2eM8L+23sOyF+O45bxtx0lM/FuMJodNldMUtJXlmtjxyCwBgAlMeuNhPPwPHblPsjBIwrvzePfqiCsKppF3AEFAFZzngF2jBFf7XDk7TVFbV54KTlAG+rHa/dI3wzQBAHGpS/GLuiJOqjBoEHnQTEqP6oqrXlyTBeARIM5jt1/poHM7wZ1D9ZI53jyTNv+GfTVPAFjt4m0/Hpf1fp5UYdAgYoeZFF+o129d8wwWgO67QR6vK/DNceVVaYqf0WWvSvcHJfJ7uvDrxTVQABAl0T5UAAAJX0lEQVSIY3IUtW0CJ1AY9JyLt1u9OdI5z1gBKONcL+BcncGPxJ5E+16784i2l5AqOEuB7rjiCWvHRAFYV7V3n4t3ZNgYah13P5n3p0DLG56j+SLgkRzeIbX6Gcd4YwWgghP8N/5qPCTI2zsonq7L1hMc1NFGe3B0lXGXoQLA1rTvPJWlf9VFWMyFQVpLnaNwZLAAdJ8GUssBHJsS5iMOn0K/tlbNVZzrJBh5krCpAiAQV+QozomyuLc0t4/MJwAtryFvajc4STqHZ2T+jRWAAZwZPvxW1wIYxpXIRZ0U367Tjombf8PxmioAwKsu3la68nIPnVttx7YvAtpsjPD9sy5eLHeztfJlrAA8TU96Lb6WLryvJ0mcmKb/J7USF3Z8GecUAcE76UZeBgtAwNe/uXh36yKuj0xwBxDcCWi9UnD6dLxY7mZrDcRYARhg8iSfHQKF1tjTTa5IU9RyTNVwIio4QdNLIzeAAh8NF4DFLp6213gfpmufV2PoGCTg7Tm8WE99DisExgpAEECZbEUgtJ35LhHnddJ/Q1iyah1X5uA9BYPBSUfGXoYLAG2wxzS8Z3UR2EtmvtB8IOsExL6HUVypK4YouEYLQAXnfiAfJcCx58rVaYraCk4CuxWy14C4UI//alBNFwDgGhdPW2MW3YVBEoa2oX37qZqOlIu6CkwXgO8DH4gapJ0/NgMNIACNnr6nXLzJpgZhuABkrwTxaVPJawa/rABoz+IDLp62cyWiem+0AFRxzpNwXdQg7Xx7B5DgGtB2+ImKmIwWgDLdJwiktkd0KghsdAx7B6A9g1r3MKJ6b7QABMFV6Z7l418hENtFDdbO35wBKwBaV8U1q3l5ztGaWsur8Nx4ARgOsoITNIz8rIqgLcZrDFgB0LIa5vvIOTM0dZVW6XHDCEAQ9DNkdl9L6isSzlBJQitjWQFQl32B6PVhTl5jQ1l13m5AaigBGA6+SuYQSSq4I3iHakJaDc8KQPSMCyhLxBxXYy/J6F6OjtCQAjAcSrBJmEIGdwRay3l1kW8CrhWASFl4Jfji5yl+MxJKgpMbWgBeuyPoPlfCV0DajcIaF5MVgBoJ2zhcIq92KX1G19Hm9XlV+6ymEIARG4VXABfXTkPrzrACUFvuBXxfsnaOy2NGv+MRNqqmEoAg6BVkdm8jdYUAbR1+wpLbCOOsAITLkoBFIOfkKGlrHBPOE7Wjmk4AhukZoOdQHz/YKNTa7ENtOuJHswIwLudPSOScPKW7xh3ZgAOaVgBe+1nQ/W+sFwKxXwPmR7vLVgDGpPgluf6Rnne99iQkaKDpBWCY2zLOeWL9RiFvSJBv40xbARg1JV918Vqi6KxlBGDERmHQm01b/3/jvuHjOGQFYCRB4rZBXv3MTB77Y6PlsV5/W04AAqIGOHhXn7VXg/hgvcQ1yzwrACDhvhSpi3MUljRLXsPG0ZICMExOUFHoI74qEDPDEtZs41pZACTy95AKCnkWNFtew8bT0gLw+o1CGdQQ7BuWuGYZ16IC8CIbSnfnNUse643DCsAI5jY2IAmEYNt6CW20ea0nAPJyl9LnGy1Puvy1AjAKsxWcltkobBUBkHBrO4MXTWP587q+TI2IawVgjKyV6dolRerrssk3CptdACT8Eto+lae/1IhfUN0+WwEYh+EKzlQQV4Fsyo3CJhaARyXi4jzFn+v+EjUyvhWAkNnb2J8w+GnQVBuFTSgAzwuYk8P7VsjUtvQwKwA1pn8A5/zg1WPZJBuFzSQAAi7L4V1SY0pbergVgDrTX6E5zixoEgH4ziBrZ8/ksZfqTGfLTrMCECH1K+jZqR35TZCnRYBJdGpjC4D4RRtDn5jGsscTJbGBjVsBUJC8J8k4PqlrJByhAC5WiAYVAE8gPpWj+KtYyWpCY1YAFCZ1JdnjUoirgSkKYbVCNZIASPirgE+7eLdoJaWFwK0AaEh2laBHobwS2EYDvFLIRhEACZfk8S5TGrwFa8y24I2StzLZq4JbVZP9bQABuPk51p53Mo+9ajKPjeqbvQPQnLnlvG3HSUwMusoYecy5wQLwM/AvcFlW1Zyiloa3AhBT+qs4GR+uXddcckZMJkOZMU0AJBQgdWGewv2hArCDIjFgBSASfbVPrtD9XpDfADprn61+hkEC8CeBuChH8fvqo7SIYzFgBSChtVEhew6IrwFbJ+TCerOGCMBnXbygzNpeMTNgBSBmwjc1V8FJ9DCTZAVAznMpzUo4BS1t3gqAAemv0PNG8IPuNLFvFCYhABLx04n4sw6j9AcD6G9pF6wAGJT+Cj0HCfzrZYwbhfEKgFwyhDz/CJY9ZBDtLe2KFQAD018he7REXCcgrdu9mARgFYjZjXh8tm7+k8a3ApB0BrZgv4LzMQHBOwbaNgpjEICLXLxrDKa5pV2zAtAA6S/TfblAztHhqi4BEPCNHN4ndPhsMdUxYAVAHZdakR5n+nYTeHme6sNM1AuA+HEKf9Z0Sn/WSogFV8KAFQAlNMYH8hTOAWthnqqKQoUC8DD4s1yWLY2PDWspKgNWAKIymND8Mt3vFsgbiLhRqEAAnkkhzptOcWFCVFizERiwAhCBPBOmVsl+RJK6DuSkevyJIAC+hAvyeIEI2atBGbAC0KCJ29TtMs6XBNR84k2dAnCli3dxk1DX0mFYAWii9Ht0bbsdbXMl/HvYsGoTAPmDQVKzZlJ8ISy+HWc2A1YAzM5PXd4N0LP/EEPzwpx6HFIA+nz8WTNYtqwuh+wkYxmwAmBsaqI7tpLMUSlSc7f06vE4AjAgSM3KUfhFdG8sgokMWAEwMSuKfarifFhCIARbbQo9hgCsBc518W5W7IqFM4wBKwCGJUSnOytxLk3BF0ba2FQABHwph/e6MTp9stjJMmAFIFn+Y7c+wBGTfF4IKgrPCowPC4CAWyfRPmsqS/8Zu1PWYGIMWAFIjPpkDVfI7CtJzQsEIIWclaO0IlmPrPUkGLACkATr1qZlwBAGrAAYkgjrhmUgCQasACTBurVpGTCEASsAhiTCumEZSIIBKwBJsG5tWgYMYcAKgCGJsG5YBpJgwApAEqxbm5YBQxiwAmBIIqwbloEkGLACkATr1qZlwBAGrAAYkgjrhmUgCQasACTBurVpGTCEASsAhiTCumEZSIIBKwBJsG5tWgYMYcAKgCGJsG5YBpJgwApAEqxbm5YBQxiwAmBIIqwbloEkGPgfVJUCpida3rAAAAAASUVORK5CYII=;" vertex="1" parent="1">
          <mxGeometry x="289" y="465" width="50" height="50" as="geometry" />
        </mxCell>
        <mxCell id="ugtfvKyXgLZFdfxOpgOD-24" value="HTML" style="text;html=1;align=center;verticalAlign=middle;resizable=0;points=[];autosize=1;strokeColor=none;fillColor=none;fontFamily=Helvetica;fontSize=12;fontColor=#FFFFFF;labelBackgroundColor=none;fontStyle=1" vertex="1" parent="1">
          <mxGeometry x="204" y="280" width="60" height="30" as="geometry" />
        </mxCell>
        <mxCell id="ugtfvKyXgLZFdfxOpgOD-25" value="CSS" style="text;html=1;align=center;verticalAlign=middle;resizable=0;points=[];autosize=1;strokeColor=none;fillColor=none;fontFamily=Helvetica;fontSize=12;fontColor=#FFFFFF;labelBackgroundColor=none;fontStyle=1" vertex="1" parent="1">
          <mxGeometry x="349" y="280" width="50" height="30" as="geometry" />
        </mxCell>
        <mxCell id="ugtfvKyXgLZFdfxOpgOD-26" value="Git" style="text;html=1;align=center;verticalAlign=middle;resizable=0;points=[];autosize=1;strokeColor=none;fillColor=none;fontFamily=Helvetica;fontSize=12;fontColor=#FFFFFF;labelBackgroundColor=none;fontStyle=1" vertex="1" parent="1">
          <mxGeometry x="498" y="280" width="40" height="30" as="geometry" />
        </mxCell>
        <mxCell id="ugtfvKyXgLZFdfxOpgOD-27" value="GitHub" style="text;html=1;align=center;verticalAlign=middle;resizable=0;points=[];autosize=1;strokeColor=none;fillColor=none;fontFamily=Helvetica;fontSize=12;fontColor=#FFFFFF;labelBackgroundColor=none;fontStyle=1" vertex="1" parent="1">
          <mxGeometry x="594" y="280" width="60" height="30" as="geometry" />
        </mxCell>
        <mxCell id="ugtfvKyXgLZFdfxOpgOD-29" value="JavaScript" style="text;html=1;align=center;verticalAlign=middle;resizable=0;points=[];autosize=1;strokeColor=none;fillColor=none;fontFamily=Helvetica;fontSize=12;fontColor=#FFFFFF;labelBackgroundColor=none;fontStyle=1" vertex="1" parent="1">
          <mxGeometry x="404" y="440" width="80" height="30" as="geometry" />
        </mxCell>
        <mxCell id="ugtfvKyXgLZFdfxOpgOD-30" value="VUE" style="text;html=1;align=center;verticalAlign=middle;resizable=0;points=[];autosize=1;strokeColor=none;fillColor=none;fontFamily=Helvetica;fontSize=12;fontColor=#FFFFFF;labelBackgroundColor=none;fontStyle=1" vertex="1" parent="1">
          <mxGeometry x="239" y="435" width="50" height="30" as="geometry" />
        </mxCell>
        <mxCell id="ugtfvKyXgLZFdfxOpgOD-31" value="Angular" style="text;html=1;align=center;verticalAlign=middle;resizable=0;points=[];autosize=1;strokeColor=none;fillColor=none;fontFamily=Helvetica;fontSize=12;fontColor=#FFFFFF;labelBackgroundColor=none;fontStyle=1" vertex="1" parent="1">
          <mxGeometry x="284" y="520" width="60" height="30" as="geometry" />
        </mxCell>
        <mxCell id="ugtfvKyXgLZFdfxOpgOD-35" value="" style="edgeStyle=orthogonalEdgeStyle;shape=connector;rounded=0;orthogonalLoop=1;jettySize=auto;html=1;shadow=1;strokeColor=#b85450;strokeWidth=2;align=center;verticalAlign=middle;fontFamily=Helvetica;fontSize=11;fontColor=default;labelBackgroundColor=default;endArrow=classic;flowAnimation=1;fillColor=#f8cecc;" edge="1" parent="1">
          <mxGeometry relative="1" as="geometry">
            <mxPoint x="259" y="530" as="sourcePoint" />
            <mxPoint x="259" y="580" as="targetPoint" />
            <Array as="points">
              <mxPoint x="259" y="560" />
              <mxPoint x="259" y="560" />
            </Array>
          </mxGeometry>
        </mxCell>
        <mxCell id="ugtfvKyXgLZFdfxOpgOD-32" value="React" style="text;html=1;align=center;verticalAlign=middle;resizable=0;points=[];autosize=1;strokeColor=none;fillColor=none;fontFamily=Helvetica;fontSize=12;fontColor=#FFFFFF;labelBackgroundColor=none;fontStyle=1" vertex="1" parent="1">
          <mxGeometry x="179" y="520" width="50" height="30" as="geometry" />
        </mxCell>
        <mxCell id="ugtfvKyXgLZFdfxOpgOD-38" value="" style="shape=connector;rounded=0;orthogonalLoop=1;jettySize=auto;html=1;shadow=1;strokeColor=#b85450;strokeWidth=2;align=center;verticalAlign=middle;fontFamily=Helvetica;fontSize=11;fontColor=default;labelBackgroundColor=default;endArrow=classic;flowAnimation=1;fillColor=#f8cecc;exitX=1.028;exitY=0.4;exitDx=0;exitDy=0;exitPerimeter=0;" edge="1" parent="1" source="ugtfvKyXgLZFdfxOpgOD-36" target="ugtfvKyXgLZFdfxOpgOD-37">
          <mxGeometry relative="1" as="geometry" />
        </mxCell>
        <mxCell id="ugtfvKyXgLZFdfxOpgOD-36" value="项目实战之前所学内容" style="text;html=1;align=center;verticalAlign=middle;resizable=0;points=[];autosize=1;strokeColor=none;fillColor=#66FFB3;fontFamily=Helvetica;fontSize=12;fontColor=#000000;labelBackgroundColor=none;fontStyle=1;shadow=1;glass=1;rounded=1;dashed=1;" vertex="1" parent="1">
          <mxGeometry x="189" y="580" width="140" height="30" as="geometry" />
        </mxCell>
        <mxCell id="ugtfvKyXgLZFdfxOpgOD-44" value="" style="shape=connector;rounded=0;orthogonalLoop=1;jettySize=auto;html=1;shadow=1;strokeColor=#b85450;strokeWidth=2;align=center;verticalAlign=middle;fontFamily=Helvetica;fontSize=11;fontColor=default;labelBackgroundColor=default;endArrow=classic;flowAnimation=1;fillColor=#f8cecc;entryX=0;entryY=0.5;entryDx=0;entryDy=0;exitX=1;exitY=0.5;exitDx=0;exitDy=0;" edge="1" parent="1" source="ugtfvKyXgLZFdfxOpgOD-37" target="ugtfvKyXgLZFdfxOpgOD-42">
          <mxGeometry relative="1" as="geometry" />
        </mxCell>
        <mxCell id="ugtfvKyXgLZFdfxOpgOD-37" value="" style="rounded=1;whiteSpace=wrap;html=1;fillColor=#b0e3e6;strokeColor=#0e8088;shadow=1;strokeWidth=1;gradientDirection=east;perimeterSpacing=6;glass=1;" vertex="1" parent="1">
          <mxGeometry x="429" y="515" width="90" height="60" as="geometry" />
        </mxCell>
        <mxCell id="ugtfvKyXgLZFdfxOpgOD-40" value="NodeJS" style="text;html=1;align=center;verticalAlign=middle;resizable=0;points=[];autosize=1;strokeColor=none;fillColor=none;fontFamily=Helvetica;fontSize=12;fontColor=#FFFFFF;labelBackgroundColor=none;fontStyle=1" vertex="1" parent="1">
          <mxGeometry x="439" y="580" width="70" height="30" as="geometry" />
        </mxCell>
        <mxCell id="ugtfvKyXgLZFdfxOpgOD-41" value="" style="shape=image;verticalLabelPosition=bottom;labelBackgroundColor=default;verticalAlign=top;aspect=fixed;imageAspect=0;image=data:image/png,iVBORw0KGgoAAAANSUhEUgAAAQAAAAEACAYAAABccqhmAAAAAXNSR0IArs4c6QAAIABJREFUeF7tfQuUXGWV7rf/6gQSgoBPFIUwgih4eTP4QAeE0UFhAL2JDiHprjqVruqOgHRkRl3Xa3vHubNm7nQFE+mq6q5Tp5JoBgkqCALiOKCiIqi8xDcRXwMoCATIs+vs699JmBDS3efx/6fqVO1aK4vF6r2/vfe3//PVqfPYP0E+woAw0LUMUNdWLoULA8IARABkEQgDXcyACEAXN19KFwZEAGQNCANdzIAIQBc3X0oXBkQAZA0IA13MgAhAFzdfShcGRABkDQgDXcyACEAXN19KFwZEAGQNCANdzIAIQBc3X0oXBkQAZA0IA13MgAhAFzdfShcGRABkDQgDXcyACEAXN19KFwZEAGQNCANdzIAIQBc3X0oXBkQAZA0IA13MgAhAFzdfShcGRABkDQgDXcyACEAXN19KFwZEAGQNCANdzIAIQBc3X0oXBkQAZA0IA13MgAhAFzdfShcGRABkDQgDXcyACEAXN19KFwZEAGQNCANdzIAIQBc3X0oXBkQAZA0IA13MgAhAFzdfShcGRABkDQgDXcyACEAXN19KFwZEAGQNCANdzIAIQBc3X0oXBkQAZA0IA13MgAhAFzdfShcGRAA6eA0M1HN/weCjGZkDCXwgAweSos1gfgI+PwGlnqhka7d1MAVS2gwMiAB04BIpePl3EzgH4H0ByrsT4PKzme3r1y5Z+2wAezHpIAZEADqomcVGbhEYlwJ0SoSyHgK46m/rGRkrjG2P4C8uKWRABCCFTdsz5cHVudOaPi0n4PzY5RC+z75fqua8f4+NJQBtz4AIQNu3aOoEB+vZ1/iklgP6W9/45wuKVWk0N/4d48gC2DYMiAC0TSvCJVKsO5dBYQiMV4fzDGdNQInVrFKlt/L7cJ5inQYGRADS0KXdcix4+fcSeAjAWxNM/TcMlKpZ99MJxpRQCTAgApAAySZCDDTyJzFPHvgXmsCLiPEtfUZQzrrXRvQXtzZjQASgzRqyZzr96/pfqrZOLAdIH/yz2yFdInyWCaVKr3t3O+QjOURnQAQgOnfWPQterkg7DvwjrQcLH2ALCCPbJ1By8+6fwruLRzswIALQDl3YI4cBN3c2Z9QQmM9qw/T2TOlnPvulsZw3loJcJcU9GBABaKMlUahnj1aUGWKw00ZpBUqFgVuI/VIl5301kIMYtQUDIgBt0IYPr1m839MTs5cTQZ/uH2AjJQKeZfCPCXQIA6+yEWMn5riPZmks2/ipxRgCbYgBEQBDREaFGag7vbzjwD82KsZMfgy6IsPN0mjO+622HfByQwzSDxDZEoInQDQyZ+5TpRUL12+eKT/5e+sYEAFoEfdFL3+6vp/PwLm2UmDg2ozikdHe+u17xlhWcw5r9vAQmC6xGP8epWik3Fv7rK0YghuPARGAePyF9s6vyR/e4+sDDx8M7RzQgYF7FNNIOTfzgVeoOW+nzOQZyHkB4aOYXcdNlKp595tRnMXHHgMiAPa4fR7y8PCwenj+b4eIoU+9D7YSlugJ9rk0d97GkbCn3kXPWczAEAHHW8lNgzKvzPhUujLv/tpaDAEOxYAIQCi6ohkX3dxCVqQPrlOjIQTwItTUdiqNLq39JID1Xk0uu/qyOZs3Pa1vP2qROigqzvR+9HuCXypn6yU7+IIahgERgDBshbTtr2dPVcgMgXhhSNfg5kT/wcwj1ax7c3Cn6S37vf7XKzT1z4KlpjBfgMP4LhSPVPrqX7AWQ4BnZEAEYEaKwhsMen0HN9EzRPqblKDCIwTwYPySSR/49UoA60gmxfrSdxH5+kLlOyMBBHO6ijM8Ul1S/34wc7EyyYAIgEk29S22Rn6Zz6yHcxxuGHoX3HYoGpnVbJZW5bw/WorxPNj+erZfkdJnBEdZirddv21IW7aVKgNr/2AphsDuhQERAEPLorh66Tnwff3b+XRDkHuDuaqJZmk827jLYoy9Qjs158WzeibnD+ga97USn/BL+FSq5GplK/gC+gIGRABiLoqB8fyxrO+nA70xoaZzv4MVjVR7a9dYjBEIurjaOYEYQ8y4KJBDJCP+T4YaqWZrN0ZyF6fADIgABKbq+Yb91f4DMrOaQ/rqPpjnRYSZ3o3wMPsoVbLuCBHYSoyIoAOec76+bQjgbREhZnRjZq9HZUau7Bt/YEZjMYjEgAhABNqKnpObvFVGdHQE90AuDL6yOaFGaktrvwrk0CKjgudcSjuE4FBLKWwEuKT223dkdOHoM5ZidC2sCECI1hcazpnkQ1/ZPzuEWzhTohvAGEnThh3F1cVD0NyuebksXLFhrOl+wC9VsvVGGC+xnekkUxiakYHBtc4RPEHLGVyc0TiqAeNHIB5J8wIfrC99i698faEwyIYk0ZgiukGRXxrtrd8aDUC8dmdAzgCmWQ8LhhfMfslhBwztfGnnZZaWztMAlbb5/kjdqT9tKUaisIVG/u8mB5cyTrYYeJSYR8q5+gaLMToeWgRgihYntIgbO9+dv7/TVlpC4vkoGKXH520cWb9wfbPTOEyiHhGAPVhO5DQWuA1KjVR6x29IosmtjJHIzyfgTmYqVXO1z7ey1jTGFgHY2bVkLmTxQ2AaqeTcz6RxscTJOZELqMB6ApXK2dodcXLtJl8RAADWb2Xpe/g+l/xZPSNji8ce7qYFtmettm+hMpgV0Ugzkyl1O9dB1llXC0ASD7OA6Bpu+qWqU/9ukIZ0g00iD1EBDzG4VM3WV3UDp1Fr7EoBSORxVsL3d9zPd6+K2pxO90vmMWr6Bvl+qezUv9zpfEapr6sEIJEXWhiP6YGY/jY1MlYY2x6lKd3mk8SLVMS0Ru9fUHXq93Ybv9PV2zUCkMArrZrnKqM5Us02fiGLLDwDCbxKvQmgkX0xUboi23gyfIad59HxApDEUAsCbvZBpWq29rXOWyLJVpTQMJWf6GnFo301N9nq2i9axwpAImOtwD+lybHXbq39WpvujJIYpybCDXScACQz2BJb9AU+2mf2SHlR+Yl0H2rtnX0iA1WBalOp0njv+M/bmw3z2XWUACQy2hr0uclhlrI1tvnVOAViMiPV8ZgeSzZ749zSqktWbU2suBYH6ggBSGJzCyLczk0uVZz6l1rcs64Nn8ymKvxDBRopZ9113UB0qgUgie2twPgdkV4QtSu6YUGkocYktlUD85f08NVKn/vtNHASNcfUCkACG1xqTj+t2B/ZtalmVJLFzw4DyWysyldkmJ/bWNVOJa1DTZ0ADKzOH8s+f9ry9N3raPI0sPat1rVGIgdhIImt1QE8BPAn0zysZSouUyUA+iIfgDVBFkYUGwLu0ReCKll3bRR/8WkdA4V69mhFmSEGO7ayYHClmq0P2MJvBW5qBGDAy13MoJU2SGLgSUUYaW7NlMYKY5tsxBDMZBgYcHNnc0bpSc1n2YhIwPXlrPu3NrBbgZkKASjWs+8Aqa/bIIhALmUwMrok+qaaNvISzHgMFLxckUB6WvGR8ZBe6E3Aok65S9D2AjDQyJ/EzDb2jfs6+TxSduo3mV4ggtceDPSv63+p2jqxHDuEYLbJrHyf3zbm1G83idkKrLYXgGLD+R4Yf2mMHNl+yhiVaQHa+SWiReBCUzkT6K5ytmZuXZpKLCROWwuAvt8LsJnxz4wJIoywbEAZcol0jnnBy793clox8FYTVSnQ+0aztS+awGoVRpsLgHMlgMG45DDw+QzUyGh2PPFNNePmLv7mGSjWncugJjc6fXUsdMIXKn3u/4yF0WLndhcAvVV05Hn8zPw9PR+unHXXt5hnCd9mDAzWs6/xSemdji+Nkxpn+JTqkrqNa1Rx0grs27YCoN8L95GJOkDzEQKXXvHrQ0eGh4f9wGyIYdcxMLg6d1rTp+V/fgbk/CjFM9Piaq722Si+7eDTtgIw4OXfxODQgzQZdKVivyQ7xrTD8kpPDsVGbhExfZSBY8JkzYyPV3Pup8L4tJNt2wpA0XM+AODfQ5Hl8ycrTn04lI8YCwM7GdBPE5JS+q5TmO3exytZtz+tJLaxAOQ+AtA/hyHWBy4Yy7rXhvERW2FgdwaKnqPvOp0enBX+aiVb/5vg9u1l2b4C4OaGoegT4eiiM9K0rXa42sQ6CQbCCwBuq2TdM5LIzUYMEQAbrApmahkQAWiT1hXlDKClndC796jZ/gnk+3N8peYQ+XPIpzkgnsNEc9DkuVDY4gNbaOc/gHb7f9pCmzfdWx5cl6qZiSIALV12/x1cBCC5RhS94nzw1jcyqWOI+TgmOomA1xnK4Ndg3Avie0G410fPPWN9Yw8awjYOIwJgnNJogJ0mADsea57+k1H0X1cmNJl2wM0dxUTngaBfbTXyaOxM9T3398ndk/AlKPVl9cyTt40uW/9MYF/LhiIAlgkOCt8pArDUW3p8Br7eN+CkgLVbu6jUX+1/qZrd1Ae8/ndewHzsmhFtho/rifxbOTP7i5UlFf30Z8s+IgAto/75gTtFAPq93IcUaEUYWptQJ4xnx+8J4zOd7YLhBbNfPP9Fl5B+7DXu8++mktoLDhF+BaaVr+h79cphas0TnCIAFhscBrpTBKDVdRQa+SXE+nl3PjEM/6201a/aQmFluTf5R2xFAFrZ+d1it/rAMUVDq+rQ78CD+VMMpPYhFRBu4iZ/NMkdfUUATK38mDitOnBipv0C91bUMdBw3gPGGAOvMl1PC/A2KFaLR3Pj30kitghAEiwHiNGKAydAWqFNkq6j6Dk5AB226y39gYGLkth9WQQg9BK345D0gWOnCiDJOga83McY9E+2amktLm8m0IVly+96iAC0tsvPRU/ywLFZclJ19HvO+Qro9H0LNzbRPGs827A22UkEwObREAI7qQMnREqRTJOoo8/rO3AfZG4l4PhISabL6WuVrPtOWymLANhiNiRuEgdOyJQimSdRR8HLryDwhyIlGMxpG4BnATwDwjPw8ezkf4H9GdhfAfP0f/X/B4OLa0X/WMnW/ndclL35iwDYYDUCZhIHToS0QrvYrqO/4bxHMW4IndhUDowfgXAnge5XxPc31az7wzyd17+6/1BMTByaUXQogw4F+8cafrdgMnMinFPuc79irO6dQCIAphmNiGf7wImYVmg323UUPUfvlaj3TIz8YeAeYroGPXxdZYn7o8hA0zjqrdwnFL0DxB8gwMQp/J2VrHuq6VxFAEwzGhHP9oETMa3Qbjbr0Dvf0Nbm7ynGrjcMumIrJj7ZyDaeDF1cRIdCzXk7ZaA32dRj3yJ/bOzOIwIQuR1mHW0eOGYznR7NZh0DXm6IQSNR6yFgYStHphcbziowPhg1fwb+pZp1PxLVf29+IgAm2YyBZfPAiZFWaFebdRQ9R78wdFzopPRv6BYf/LtyXtZwzmwy/iNKDQw8UM26b4ziO5WPCIBJNmNg2TxwYqQV2tVWHTk3t/9sRRtDJ6Qd2mx6cpQ3JnfVrYjfNdpXvyUSD3txEgEwxWRMHFsHTsy0QrvbqmPZ6qWva/r+z8ImxMCT1ax7UFg/2/bFRv56MJ8TOg7RSKWv9uHQflM4iACYYjImjq0DJ2Zaod1t1RF141R9xb+adU8IXYhlhwHPWcDA1WHDEOgb5WxtxmlLQXFFAIIyZdnO1oFjOe0XwNuqo9DI/x0xrwtbDwPXVrPuBWH9krAvNpzvgPHmULEYm/ztmQPHCmPbQ/nJGcAkAzIW3MSqmQbDlgAUG/nlYP630OkT/rXS5/5DaL8EHKJeC1Cs3mrqdWE5A0ig0UFC2DpwgsQ2aWOrjsgC0GYXAHfneuf8xLvD8u+DLxvL1q8I67c3exEAEywawLB14BhILRSErTr0ZpZgirArLQ9XsvVPhioiQeOC59wd4aWmdZWsu8hEmiIAJlg0gGHrwDGQWigIW3UUGs6ZFOH+OQEPlA3fOw9FyAzGkV5sMnhWIwJgspsxsGwdODFSiuRqq47JnWxJPRAlKWYeq+bqhSi+tn12ji6/OcQYdfjIvGEsO/ZTE7mJAJhg0QCGrQPHQGqhIGzV4dScF8/K4PFQyexmrEVAKTVW7qv9ICqGTb8gG6no+FswcY/J9xhEAGx2NQS2rQMnRApGTG3WUfSc3yPu4E/mq5lwu5pQ3ygvrd1npOgUg4gAtEnzbB44SZZos45C3flfRPhHY/UwfgLC7Qy6ee5++9+0YuGKzcawUwIkAtAmjbJ54CRZos06Cl7fkYTMzy3WcxuADWDaAOIHobDB35LZMFYYe8xizJZCiwC0lP7/Dm7zwEmyRNt1FDznCwS8N8maADwFxgbQ5L8H4WMDE21Q7D9YztU3JJyL0XAiAEbpjA5m+8CJnlk4T9t1FD1HTwPSU4Ha5qNvNTLwY4AfINCPffYfqOa8H7dNgtMkIgLQJl2yfeAkVWYSdUR+ky4pEnbG2SkMPwTj28jgzkqvG/qpP9spiwDYZjggfhIHTsBUYpklUYceDaa2Nn8HYJ9YySbv/BSAb4NxtyL64cQ29c1WX18QAUh+Eew1YhIHThKlJlVHwcu/l8BfSKImizG0INxCjFuamcwtY71jv7EYa+/rznNuBRDm9eLbKln3jKTzNBVP3gY0xeQUOEkJgA5f8JxBAq60XFJS8Nt5hxhc//i8jd76hev13gTWP3IGYJ3iYAGSPHCCZRTNKuk69LbgzHwTgJdFy7j9vCavHRB52yfYc/Pun2xmKAJgk90Q2EUv94k/jysYDuGixxucUcnW9L3rtvkkLQC68P61/a/MTDSrDJzbNkSYSeQ38NmrOPWQ6yJ4cBGA4FxZtRQBiC9k+hYhES5iNrIRh9V+hwS/sZJ13xPSJ5C5CEAgmuwbiQDEF4BdXep3c+9Uii6Ku4OQ/a6HiMB4jJhPKzv10INRp4siAhCiBzZNRQDMCcCuPg2udY7gCT6bic4G42yb/UsKu8fnQz7j1P/LVDwRAFNMxsQRATAvALu3ZGD0woP8uXPPJea/3fnu/fyYLWuJOwO/qmbdvzAVXATAFJMxcUQA7ArAnu1ZvGbxfvs39z3aR/MYhjqawMeA8ToQjojZSuvuzPhUNed+3EQgEQATLBrAEAFIVgCma9nkT4dtfCQUjvChjiTiI8DQ37qHI8bGpAaWyXMQzLS4mqtFmJH4/CxEAEx2JQZWxwhAh9zOnKqVxdXFQxS2He77dDgRDmfWokCHg3A4mA+NsQTCun69knXPCuu0p70IQFwGDfmLALTPGUDUlp4+fHrPUYfNP5x9dbiiSVF4AwhngmF0Q89d+TH7x8R961AEIGq3DfuJAKRfAKZaEoM15wg/w2cA9A6AzgN4jpnlE3/kuQiAmU7ERhEB6FwB2H1x9Df6X6vgfwA+fwAU78zAxMhzEYDYh64ZABGA7hCA3VdLoeF8lHx8DIR5UVeR2m+f/UcXjj4T1V8EICpzhv1EAPYuADk3t/9spU6C77/wlVUF3r0NROph5olbKtnGQ4bbYw2uWHNOQIauB/iQKEFUD44cXez+Moqv9hEBiMqcYT8RgL0LQJSXi/xtmZe1etBGmOUx4ObOZkU3hvHZZUugt5eztW9F8RUBiMqaBT8RgCkEIPzACjBTrpqreRbaZA0ywjfxZC4ELCxn3fVRE4sQVwaCRCV7Oj8RgCkEoO5cB4J+fDfMZ7SSdZeFcWi1bZQznR0CwJeUs/VVUfMXAYjKnGE/EYC9C0Ch4awlhn6zL8SH7qpka38ZwqHlptH6D30R5CPVrPsvUQsQAYjKnGG/aAugDQeCGH4SsOg5euTXYFi6414cCxsvrn2xnvs0iC4Ji8NMC6q52jVh/XbZiwBEZc6wnwjA3s8ABhrO/2XGR8PSHffUOGy8uPYDnnMVA+8PjaNwYpxx4yIAoRm34yACMIUAeM6FDHwuNOuEmyp97rtD+7XIIcKBOJnprFlzD1h10aqNUdOOEFcuAkYlezo/EYC9C8Cg13ewj8zDUTgn4vPKffUvR/FN0qe4eskh8GfpfQ7CfRiPVXJurGGoIgDhKLdmLQIw9ZOAAw3nW8w4LTT5hMcqffEOkNAxIzgMNPLLmPkzYV0Z+F41674prN/u9iIAcdgz6CsCMLUAFL38/wE46gCMH1Sy7skGW2UUqtBwziSGPkuZGxaYwH9fztb/X1g/EYA4jFnyFQGYRgDqS98F8m+OQf1t/n6Z88cWjumdeNrms9RbenyG+LqocwR8lTks7m5CcgbQJstBBGD6l4GKnqNvdb0vRrvugFL/VOkdvyEGhjHXfi/3IQJ9goADo4AS8MVy1o3Dx2RYEYAo7FvwEQGYXgAGV+fO8H36z7jUE3A9KzXWKiEY8JwFTLQEzOfEqYUYfeWcuzoOhghAXPYM+osAzPw6cNFzGgB6jdDOuJsJtxLoetu7K/XXs6cqpd4CYAEYb46bPxF+pWj7KVf2rnk8LpacAcRl0JC/CMDMAjDoLT3Fh3+nIcp3h3kUxHfBp0dA9DCDHwHoEQX8EYRNtB2bthJvyszNPIunsWmsMLZpbzkU1xRfzth2aKapDmVA/zuZmf+KCK82mbOpgaByBmCyKzGxRABmFgBNcaHufJgIsa58x2xVS90JVClnawOmkpAzAFNMxsQRAQgmADu/tdZ01LZfgdcO3b+Vm2d6Oe+PgV1mMBQBMMVkTBwRgOACsFME7gVwbEzaU+POwDYFvL+cda81mbQIgEk2Y2CJAIQTgJ0i8LyRYDHob3fXXzNhSbXP/abpREUATDMaEU8EILwATIpAw1kFxgcj0p4GtzuYfSfu/P+pChUBaJMlIAIQTQB0+/R24BlFn+eID9W0yRJ4YRqML2+Fnzf5m3/PICIAbdJ9EYDoAqBbmB/Pv6Knh/XdgcVt0tI4aTwIopWVvtrKOCBBfEUAgrCUgI0IQDwB2NWigUa+n5n7d24BnkDnjIZ4CuCV/raelUlNNRYBMNq/6GAiAGYEYA8hcAC0/2xAoicAvsrnzMqx7NhPo6+i8J4iAOE5s+IhAmBWAHY1qdBw3q6Ac5lxLoCjrDQvGuhWADcw01cmfL7Ozbt/igYTz0sEIB5/xrxFAOwIwO4N6q/3n6ho4iSCOpHBJ4LoRDD3GGvizEC/AfGdDPXFrTzxpUa2sWVmF7sWIgB2+Q2MLgJgXwD2bMbFN168z9aHnz0lo9TJDD4FoPkAz2Ngf4Ler4/nARR6J18GniXGfQy+Xyl1Hxj3bcbE/Y1s48nACyIhQxGAhIieKYwIQPICMFNP9N8XXL0gc9ATB81T+6p5pLbN87dhf1JqHgFbfN/frIAtimnLVqYtc+bM2fyS2Y9sGV64flsQ7HawEQFohy4AGPByFzMo3G0f4osqffXwE3Mt1twpQmaRoraCLnrOrwDMD5qUqUEkQeOZtiPTgKbwBhrOe5gRalqN3h+eFRbHmQtvKv9dOCIAphm1hxepV4x/reTcf7CXlV3kthWAfq/vfyhk7otQ/haAShm1rWRiQESE+M9zibSo0H47HMXloZ39C55zLgFDAF645fpMiTMNVnK18kxm7fr39hWAav8BanYz8kUiBn5OjFIl51ZbSb4IQCvZnz52YW3uOLVdDTHxkqhZEuGccp/7laj+rfZrWwHQxBQ9R/+evzAmSV9joPTnefFxpuhGTkEEIDJ11hydmvPiWQpDIFwWZfz4rsSI8POel889dtW7V+lnGFL5aWsBiHIdYKouEMj1uVmy9RbZVHFFANrruNj5aLQ+3Y//EJTPn6w49eH2qjBcNm0tALqUyLvg7I0HxlP6bGD/nm0j/7Zk7bPhqIpmXaw7q0AhX89VOLXS69qY9RetiA7wGnBzZ7Mi/Y3/14bK2cLoObaarf7CEF5LYFIgAPksM9cNs3Ofvj5gYoz0THkVG8414HDz+1WGjh5dUvvJTNjy95kZWNZYekyTff2Nn5vZOrgFg66oZmtaUFL9aXsB0OxGOYgCdYX4Br+J0phTvzWQfUijgc8NHMTbtulRXa8J46rYP3Q05/02jI/YPp+Biz+76EXbt+4zhB3f+i8yyQ8D91Sz7gkmMVuFlQoBmBQBz9kMYF8bRBHRlfD9UjlX32ASv9jIXwLmT4fF3ILmQe34mGzYOlplX/ScHANDBBxjI4eJCTq4trT2qA3spDFTIwDL1vSf2mw277BI0KMglA5+6MHS8PBtEybiFD0n0qDOx/fb2LN+4fqmiRy6CWNg9dKzWJ/uM862VbfP/pvGct73bOEnjZsaAdDE9Ff7D8jMbq5lTL7KaunDd+kHiSpZ96o4AYqeE3FUN99fyda7ZrpvHI53+Q64uaN8whAR6cEnVj4EfK/Zk7lgbPHYw1YCtAg0VQKwi6Oil/tngD5ilTPia5hQqvbWvxs2TnH10nPg+9eH9Zu0J5Qrfe5gJN8uc7rs6svmbN709BCY9UW+F1srn/iaZ9X2vrUJ3TmyVsdegFMpALoOvTlm06flBLzHMmHriLAuyNNeg+P5N/gZ3wHR8qg5EVGu3Ffzovp3i1/BzS0hIv0wz3HWaibcDcaKStZday1Gi4FTKwDPnf418lkwL2dLF3x2xSHC7cz8FYAegsLP/C2Zn2Gfra9UlDkWEzgOivTutifF7mcTJ1by7t2xcToUoOjlTyfwkN2fgXicwKXN8EvtMKTEZitTLwCanMlrA/s09cUfLQT72STMJnYn3V4yzVN/o/e1inv0qb7tn0fVplKl8d7xn5uuoR3xOkIAdhFbcHPHqYwaYo7+ckdLm0R0aRKjr1taY8jg/dX+WZnZzSGG/p1PLw/pHsb8xgyhdGWf+/UwTmm37SgBeE4I6vnzSLE+I3h7ahrE2DBr9pYTVl30uY2pydlyogOecyHrF3YYJ1sLxfgRgUrlXHded+lIAXhOCDznUgL0BblQT+JZW2zTABPj4+Wc+6lWxG63mP1u7jRF+m09usBibk8RobS1ySvqTv1pi3HaGrqjBUAznx/PvzrT4y8n0IfatRP6t39m08a3jS5b/0y75phEXk7NOWxWZvIV3UttxmvVm6E2a4qK3fGAoHVsAAAG9klEQVQCsIsY/a1CavK24flRybLlp9h/62jO+44t/LbHZVBxdX7X/fxX2cqXCLf4jBWtmg1hq644uF0jALtIGqjnL/KJtRAcH4c4U74EHihn6xVTeGnDGfCcBfq5fQBvspc7692FSpVsfdxejHQid50A6DbpJ8i2PLNxuU/QQnBgy1rXhlOMk+JiwMu/aceVfSywFZOAZ/U3vtpndqm8qPyErThpxu1KAdjVsME1+Tf4Pl8MxiLTr4zOsCj+xIQLqn3uN9O8eKLk/kE396qJHRf49MFvc/2tJkWlcm8tymDZKKWl0sdmA1JDSNHrmw/qWQSfF4HwBsuJX8c9/Inq4rp+U7CrPgXPuVQBlzFwmK3CmXErwS9Vcl6okfK28ml3XBGA3TqkHzpRsycWTZ4REJ1luHlrlWJvtNfO8BHDuRqFK67OXUBMQ8w4zSjw7mCEX06+xdmX3hHd1riZBlgEYApyCm7uZBDp+XF/TYQzojRHv0LKPt/MwA1Vp/79KBhp9tEc0o6JPHEnO09JA4O3EVCaxVxalfP+mGa+WpG7CEAA1hevWbzf3OY+f0XMR4Emp8k+b6IsA08TaOOfHzp6mok3MvPvFOMrpicMBUi1LUyKa4ov5+Z2PZFH/86fZS8p+hwRVpT7aj+wF6OzkUUAOru/iVdX8JzBnQf+ay0G/5b+1i9n3WstxugKaBGArmiz/SJjba8VPL2HwLSikquF2zQ2OH7XWYoAdF3LzRZsYnutABn5+rn9ZiZT6rSRXAFqt2oiAmCV3ujgA3Unz8SHgPmOSs77anQkO56mtteaMTvmq31wqZMGcc5Yc4IGIgAJkh0k1IDnnO8zLtnjzsNaBVUazY7fEwTDto3R7bWmSpbwXSYqVXtr19iup5vxRQDapPuTr8AqumTqR2NpM5hL232U3Lz7p1akbWF7rReWQfgdM6+oZuulVtTYbTFFAFrc8YLn/A0B7wfQFzCVnxFRqdxXGwtoH9vM1vZaeyamt9vKcLMkuyLFbllgABGAwFSZMxz0+g5uIvN+Ai0E+C0Rkb9GPq8oO/WbIvrP6GZze63dgzPwRX2Rr9LnfnvGpMTAKAMiAEbpnB5s56uvp2PHN/5LDIWuN0mVxvvGHzCENwlje3utHbnSXQDH3oTFZN3dhiUCkFDH9e41rEi/l27hw3qOYGmbj1Lc8VZJbK8FxqNQKB182GtKw2cMG9mGzQKpXQEpApBgmwtefiWBL7YWMsaAyyS219rxpY/PTP50MbwRqzVOOxxYBCDhBhc9ZzFAHwP49RZD3zi5rVmAEdeJba/F+DJBlcq58W9YrFugQzIgAhCSMBPmy1YvecmEP+vyP0+suRyAMoG5NwwCVXxMlKrZxi/29nfZXssW8+nBFQFoYa/0WCyAL2fgvdbSIDzGQGn2y+eWVr171VYdR7bXssZ26oBFANqgZYVGfgmBLwfjjfbSoR8CfAeYX2l53r4uoau217LXM/vIIgD2OQ4UQe9vqGY1L2eC/mkwO5BT+xl15fZa7deG4BmJAATnKhHLwprcyeSry8G8MJGAJoLEuPtgIrxgRGdABCA6d1Y99b54PibPBtpi/4IpipXttayuAvvgIgD2OY4cof/6/rnqDxN/D6LLQZgbGciCo2yvZYHUFkCKALSA9LAhB72lx/vw9S1Da8M1g+Yk22sFZSoddiIA6ejTZJZFN7dw59mAve2yp+RDttdK0VIJnKoIQGCq2sNw+OoFsx/ZdIC+SKjPCA6wnZVsr2Wb4dbiiwC0lv/I0Ys1542k+HImWhIZZGZH2V5rZo5SbSECkOr2AcXVSy8A+/ohojebKkW21zLFZPvjiAC0f49mzHB4eFg9ethv9SPF+mdB9DkDsr3WjFx3moEIQAd1tN/re71CRr9urLfcflnw0vh+QK2bxU1XttcKzlonWIoAdEIX96jh4nr2ZdtILaAdQqAnEL3gQ8AffeBOBawrZ911HUiDlBSAARGAACSl2UTPH2T0zGfwfIDnM6vfkc/3VPLuj9Jcl+RuhgERADM8CoowkEoGRABS2TZJWhgww4AIgBkeBUUYSCUDIgCpbJskLQyYYUAEwAyPgiIMpJIBEYBUtk2SFgbMMCACYIZHQREGUsmACEAq2yZJCwNmGBABMMOjoAgDqWRABCCVbZOkhQEzDIgAmOFRUISBVDIgApDKtknSwoAZBkQAzPAoKMJAKhkQAUhl2yRpYcAMAyIAZngUFGEglQyIAKSybZK0MGCGAREAMzwKijCQSgZEAFLZNklaGDDDgAiAGR4FRRhIJQMiAKlsmyQtDJhhQATADI+CIgykkgERgFS2TZIWBswwIAJghkdBEQZSyYAIQCrbJkkLA2YYEAEww6OgCAOpZOD/A+HJYvEcEWioAAAAAElFTkSuQmCC;" vertex="1" parent="1">
          <mxGeometry x="449" y="520" width="50" height="50" as="geometry" />
        </mxCell>
        <mxCell id="ugtfvKyXgLZFdfxOpgOD-42" value="" style="rounded=1;whiteSpace=wrap;html=1;fillColor=#bac8d3;strokeColor=#23445d;shadow=1;strokeWidth=1;gradientDirection=east;perimeterSpacing=6;glass=1;" vertex="1" parent="1">
          <mxGeometry x="579" y="465" width="90" height="60" as="geometry" />
        </mxCell>
        <mxCell id="ugtfvKyXgLZFdfxOpgOD-48" value="" style="edgeStyle=orthogonalEdgeStyle;shape=connector;rounded=0;orthogonalLoop=1;jettySize=auto;html=1;shadow=1;strokeColor=#b85450;strokeWidth=2;align=center;verticalAlign=middle;fontFamily=Helvetica;fontSize=11;fontColor=default;labelBackgroundColor=default;endArrow=classic;flowAnimation=1;fillColor=#f8cecc;entryX=0.5;entryY=0;entryDx=0;entryDy=0;" edge="1" parent="1" source="ugtfvKyXgLZFdfxOpgOD-43" target="ugtfvKyXgLZFdfxOpgOD-46">
          <mxGeometry relative="1" as="geometry" />
        </mxCell>
        <mxCell id="ugtfvKyXgLZFdfxOpgOD-43" value="MySQL" style="text;html=1;align=center;verticalAlign=middle;resizable=0;points=[];autosize=1;strokeColor=none;fillColor=none;fontFamily=Helvetica;fontSize=12;fontColor=#FFFFFF;labelBackgroundColor=none;fontStyle=1" vertex="1" parent="1">
          <mxGeometry x="594" y="530" width="60" height="30" as="geometry" />
        </mxCell>
        <mxCell id="ugtfvKyXgLZFdfxOpgOD-45" value="" style="shape=image;verticalLabelPosition=bottom;labelBackgroundColor=default;verticalAlign=top;aspect=fixed;imageAspect=0;image=data:image/png,iVBORw0KGgoAAAANSUhEUgAAAQAAAAEACAYAAABccqhmAAAAAXNSR0IArs4c6QAAIABJREFUeF7tnXm8HFWVx8+v6j0DJIwGZVRAkGEVQQEH2TGku1+ICMgAQRYhXf0ycWEZVPYtDCqIO4oakq5OEBBBcRkhJF0dgoIwGkBkURBRGVkjizEhkPeqfmN1OvqSvOqu7q7qrup36q98Pn3Oued8b79fqqvuPRfS4BqYw23dPplq0HsvBbuJyJ4BLk+JyNMCPgZP7hcYS8sW7mgUXz9XAkqgewQQNHTGZhbCi0TkwDbSWy7C2yDGDzkktzoz8dc2YqmrElACERPYQAAmlbhRH72rRGBFPJaI8EaB8WUnj3uij60RlYASaJbAOgJQ/eP3+BOBZJoN1KT9UhJfqRRwXZN+aq4ElECEBP4pACSy83iTUI6KMH7dUBT5o0F8rm+llBachtc6Na6OowSUwBoC/xCAXNH9JIEvdAUM5RkIv7hiU+Mbd0/Dqq7koIMqgTFIoCoAmTl8M0z+XkTGd5nBMhFeYfQZ31x0ElZ2ORcdXgn0PIGqAGRt91IRXJCUakl5CcLLnIL5+aTkpHkogV4kUBMA73kR2TxxBVL+IAY+5eRxc+Jy04SUQA8QwOQipxrgrYmuBbIIHvLlAp5OdJ6anBJIGQFkbdcWQT4FeS8HcXq5gHkpyFVTVAKpIICs7T0uItulIts1Sd46bhxOvOUEvJSinDVVJZBIAr4AMJGZ1U/qcZf4wO0FPJrC3DVlJZAYAmkVAB/gcggO1w1HifkuaSIpJJBmAfBxuxReWMkblwuQxjuZFH5lNOVeIpB2AVg7F47p4diFg3ixlyZHa1ECcRPwBcDfx79F3APFHt9fTgx8Ep48NdQnL/QbsmzRSfDXN+ilBJRAAAFfAH4kIof3MKEXRGSZiDwnIi8I+Dw8WUYxltGQZQblGdeUxxefDF8I9VICY4oAsiXOEPLqMVX16MUuh8hDnvARiDxCMR50V8k9Sz6OFcpGCfQqAUy6ihP6Nqb/27m/V4tso65hEVkq4BJ4xu3ol7t0k1IbNNU1cQTWbga6QQTHJi67ZCZ0N8HvGZ5xgy5NTuYEaVbhCazZDlziISAXhHdTyxqBuymYX7EwW4kogTQSqArAMTfSfGkF/Y02/5rGIhKQ8/+J4LKXhmTuvTMxlIB8NAUlEIrAPzoCZWz3cgjODuWlRkEEngJxWbmAqxSREkgDgX8IwFSbm68mHwVkYhoST3iOfyJxqft/Mn/JLPgPEvVSAokksE5X4KzNI0T4w0Rmms6kfgfBDN2vkM7JGwtZb3AuQIr6A6Rpfm4ednH6khn4c5qS1lx7n8AGAjBwDcd7w3xERLbu/fI7WuEqCi99ecj4gj4o7Ch3HawOgVGPBptscz9DeOfItuFKMSIClN+IAUtPR4qIp4Zpi0Dg2YA5272Igkvaiq7OQQQo4GxZbZyj5yXql6SbBAIFQNacFHSbUAa6mWCPj/2sEKc7BdzY43VqeQklECwAIjKpxDf0kQ+JyJYJzb830oIs8lz85+JB/Kk3CtIq0kKgrgD4RQzM43s8j3frZqHYp/QVIWdN3NT40k3T4MY+mg6gBMI+5MuU+DGQurqtA18ZitxLA8cung7/qDa9lECsBBreAawdPWd7N1Hk6Fiz0eBrCawAcaqegaBfiLgJhBaAw2Zzk1V9XCqQd8SdlMavEaD8cNxGsPQMBP1GxEUgtAD4CUyZy+1dgw+IyCZxJaRx1yNAeUYE05wC/HUZeimBSAk0JQD+yBmbR0N4U6RZaLBGBDwIPzf0pHGRbi5qhEo/b4ZA0wLgB8+V3LkkCs0MpLbtE9AHhO0z1AjrEmhJAGr7BR7riXbi6ftGrKTgQxULP0lf6ppx0gi0JAB+EQM2J3vCStIKGiP5kORlFcu4QE9EGiMzHlOZLQuAn0+26F4pwKkx5dZOWH9F3S8ofALArkLZW0Te1E7ARPpSbhs2cNySPF5OZH6aVOIJtCUA+97Ijcf/jQ8LZNtkVMrrTRpXLCzAf1OxzpWxeTKEXxWR1ycj14iyoPzBNXHY7dPxcEQRNcwYItCWAPicMkXuC/DnXWb2CIATynn8ql4euSK3IKodj/bqcr5RD/+qECc6BXw/6sAar7cJtC0AtZ8CVwhwZrdQUXhtxTI/HGb82gane0RkpzD2abKh8HMHPmmcN2sWvDTlrbl2j0AkArBGBLxHurlKkMCRlTxC9TMcsPk2T3hfTz4XgCwaFhyrzwW690eVppEjE4DarsGlXSue8swqwU53FfC3MDlkS9xHWN3l2HsX5bE+A1Nuy+OPvVecVhQlgcgEoPZT4GoBZkSZYHOx+HXHMkO/lejxXY7P0sWUygz8ujmGaj2WCEQqAJNKfEsf+QcR2ahLEP/exQzvdvJ4MMz4s2bRuHPragPUnnse4NdPkb8ZBqaWp+OuMDzUZuwRiFQAkvBA0D/N18njvWEXyOSKPJzgj3p46l8T4Hgnj5t7uEYtrUUCkQtAZg7fDJPPhG020mLeDdxwqmPh62FjZ23vNyKyc1j7FNr5d0YznTzmpDB3TTlGApELgJ9rxvYqEJkcY951Q/u3vi6w45I8ng2TQ7boninAFWFs023DTzuWeWG6a9DsoyQQiwBkbeZFaEeZaPOx+B3HMo8P41dbIPRUGNu020A4v2yZ09Neh+YfDYFYBGD/IjfdGFweTYqtR4GHbHkQoTYsZW1vhYiMb320FHlCblk5HsfcPQ2rUpS1phoDgVgEwM8zW/QWCOSQGHJuJuQT/Suwy4LT8Fo9p6lXctzQBL7aTOAesHUmTsChN03D6h6oRUtokUBsApAr8XSSX2kxr8jcQF5aLpgX1Qs4UOJhHvnjyAZNT6BbJ07AkSoC6ZmwqDONTQAy87kjXD4adcKtxHOJnW8vIDCXnO3dRZH9WondAz4/dizjiB6oQ0togUBsAlD9GWB7vxOR7VvIK1IXQn5ayRvvGy1ozuYghWP79Rjk+07e0JbvkX7r0hEsVgHIFN3PADgvESiIk50CrhmZS48vBW4KO4Szy5b5kaac1Dj1BGIVgOxc7iFGddddEq5l5hDevXAmnsmWeLyQp4jIvklILDE5kOc6BfPyxOSjicROIFYBSNLPgBrJZSIyTkT+JXayKR0AguPLFr6T0vQ17SYJxC4AGdu9BIK6T+GbzFnN4yUwZHjILhrET+MdRqMngUDsAlA7Tch/GKhXeggsB/Dv5Tx03tIzZy1lGrsA1H4G3C8iu7eUoTp1hQBF/rjROOyp5xJ2BX/HBu2IAORK7tkk9OFSx6Y1soHufmkI77t3JoYii6iBEkWgIwJQ68H3ZKIq12RCEuD1jmWeENJYzVJGoCMCUP0ZUPTuFMj+KeOj6fqNHcBzynnzcwqj9wh0TAB00U2qvzweBVMqFpxUV6HJb0CgYwJQ68f/Uv054DdF8FGdp+QRIOUlE3j3Igv/l7zsNKNWCXRMAGpvA/yTa/4jKFkIL/bEeLl2hFerNalfTAQo8oAL7LMkj7G2dTomot0P22EB4BEi1aO5gq5HHcvYOWu7Z4jgS93HoxlsQID8tlMwT1IyvUGgowJQuwt4QUQ2C8TnYU9nEPfnSu55JD7TG5h7qwoQp5QLuKq3qhqb1XReAIruVQJ8LAg3hV+sWOan1oiFa4sgPzanJtFVuwIc4OThn7GoV4oJdFwABmzu7QnrfXGec/J4q//u6Zgbab68ggsokksx415N/XmjD7stOgnP92qBY6GujgtA7WeAf5b9LkGAIZhUtnCH//mkqzihb+PqGX67joUJSVmNP3Ms46CU5azpjiDQFQHIFfkRwn/lF3Ct96Bp0hxu1WfwFwJ5q85e0gjwy45lfiJpWWk+4Qh0RQAOm81NVvXzaRF5fVCapocdFg7i8bWfZ+bwXTCrdwKbhCtNrTpFAMR/lAv4QafG03GiI9AVAaj+DCi5Xxbiv4JvAjivUjDXeQCYKTEHcoGImNEh0EjtEvBPYuoH3qXHkbdLsvP+XROAyfO4neHR328elMOw52H7xYP400gsyTh1qPMTlfQR/UVCLw9hL905mPSZWje/rgmAn0bO9m6lyNRgZLQdyyys/3mimo2ma75jzZbgVZW86fda1CslBLoqAJkSD6nd0gfjMrGNczI22Eqctd3rRBDq7L+UzEVvpAkcpUeRp2cquyoA1WcBRe8RgbwjEBnkFidvfGC0z7O2t0RERu33n54p6K1M/U1D4uEdlRl4rrcq681qui4AoY7lGqWnvz8dh17Hia+9xv8VkR16c3pSWlUd0U5pRT2bdtcFoHoXYHuLReTgOpSXg3hHuQD/1eE61yElvn3I432ATOzZWUphYRR8qGLhuylMfUylnAgBGJjLXT2DD4iIEUSfIosrlpEZ7fNMkfsC9FcO9o+p2Ut2sS/W1nK8mOw0x3Z2iRAAfwoyRbcEYHrd6QD+08lj1HP8aqf9XDe2pzNp1fNGxzKPTVpWms8/CSRGAKbM5lvdNasD610rXAP73D4d/l6CDa6s7X5aBOfrBCeHAInJlQJuT05GmslIAokRAD+pbNGd9fddgBfXmyKI/HloCHssmYm/bGBHIlviIj+UTnNiCCx1LGOvxGSjiaxDIFECsO+N3HjCCj5Gka0azNPSlRNw0N3TsGp9O//NwKuv8T6IvF3nOhkEdK9AMuZhtCwSJQB+grkijyR4cwhkP3HyONzvG7C+bbbE3YT8Ze0g0BCh1CRmAo8e8CR2mTULXszjaPgmCSROAKo/BWzvFhF5f8NayM87BfOs0ewyRZ4A8NqGMdSgMwSAgpOH3ZnBdJSwBBIpANX9/yYfDbX1t84XK2u7XxOBrk0P+22I1+4pxzIa/bSLNwONvgGBRApA9adAiaeT/EqoOSMOdAq4czTbrO3V7T4UKr4aRUKAxGClgGIkwTRIJAQSKwB+dRnbq0BkcqNK/TcD6MPOi07CyvVtD57Hd5oeH2oUQz/vCIFHHMt4Z0dG0kFCEUi0AEyZy81cg/7R4ls3rAac5eTNS0azyxXdTxL4QsMYahA7AY94/+IC/KYueiWAQKIFwOfjP9GnxztCrPX/i2MZmwcxDXs3kYA56fUUHMcytMtzQmY58QLgczq4yJ1MsCIiW9blBuwb1Kt+8nxuabjVnwJvSAj7MZsGBe+sWHhkzAJIUOGpEACf16QS39JHluu1B6dgesXC/OC7AB4N4U0J4j8mU9HOQcmZ9tQIgI8sU+TBAP2twwEXPuZYCG43Xn2w6H4bghOTMwVjLxO/iajZh7eO9tB27NHobsWpEoBciR8meU3gnz8wrZxH3f/hJ83mm/r66bcbD2xJ3t0pGSujNxbrsUKim3WmSwBs7yGKBL9GcrGLMwO/aQRUOws3ItSRz/WVYEcw1x8kNQIQYr//s45lhD45KGd7d1FkvwTMwZhNgcBBlTx+NmYBJKDw9AhAowag4LecvPnRsExrbxYe1C5CYYlFbwfyhnLBPC76yBoxLIFUCEDtDcAzdYuqsxw4yE/PFwj7NYnPzujDm/WE4fj4NoqcCgHIFFkAOLdOMS1vNMkWvScEsm0jUPp5PAQAnl/Om5+NJ7pGbUQgFQKQLXo/EMgHA4upsy24EYBQh5M0CqKft0Og7grOdgKrb2MC6RAA21shIuMDy/GwpzMIf89AS1dDgWkpqjqFJUDBzIqFq8Paq110BBIvAFmbU0R4W52Sn3AsY7t2kPhnCwyTf2gnhvq2ReD3jmVs31YEdW6JQOIFIGO7X4Hg9ODq+GnHMi9sqfoRTlnbvVQEF7QbR/1bJEAc6xRwY4ve6tYigcQLQNb2fisiOwXVZ3jYbdEg2t7vf9hsbrKqj48LJPRaghaZq9voBB5yLGM3hdNZAokWgAGbb/OEG5wM/A9ElN84BWOXqJBlbB4L4Q1RxdM4zRLAIY6Fhc16qX3rBBItANkSZwhZ5+EQL3Qs89Otl7+hZ9b2fioiB0YZU2OFJnCHYxmTQlurYdsEEi4A3veEclRQlRRsV7HwRNsURgTI2NwFUu0bkGg2UdacpFgg9ioXsDRJOfVyLon9kh9zI82XVnB5UGdgitxbsYx/j2NysrY7WwT/GUdsjdmQwE8cyzisoZUaREIgsQIwMJcHeUb1xN9RLwgvLlvmf0dCYb0gU21uPiT8Y6i25HEkMMZjRvVgd4xjDFV+YgUgZ7ufpeDcwCpaWPsfikjNKGO750KgS1SbgRaZLa93LPOEyMJpoEACiRWArO3dJyJ7BGT+qmMZG8c9r1nb899AvC3ucTT+hgQMF/+2aAZ0cVbMX45ECsCkqzihb2P+rU7tHeksq68FY/721Q3PbzqW+bFuZjAWxk6kAOTmMkODTvB9Cy938mbwz4MIZ67BnUiEI2mo9Qis7hdstcDCMiUTH4FkCkDJPY/EZ4LKpuCYioXvxYfln5GzJe4j5N2dGEvHWJcAhFeULfNs5RIfgUQKQNb2fiQihweV7Xl4++JB/Ck+LOtGztrudSI4vlPj6Tj/ILBChrCVMxN/VSbxEEiqAPi3fW8KKHm5Yxkd7eibK3ILgv6Co3HxTINGDSbACxzLDLwbVHLtEUicAGTm841w+Zc6Zd3qWMah7ZXdvHe25F4sxKzmPdWjTQLLVk7ANndPw6o246j7KAQSJwC5EncnqweCjn7VOQQ0zhmeeiXHDU2o3gVsEec4GnsUAsRpTgFfUzbRE0icAAyUeJhH/jio1E4+AFw/h5zN4yi8Pvpp0IgNCDw9/CS2WTILw0oqWgKJE4CszY+K8BtBZZrE7gsLeCBaDOGjZW3PfyOwT3gPtYyEAHGyU0DgqVCRjDEGgyRPAEruZUKcEzQX/Suw0YLT8Fq35io7l3uIQX+Vol6dJEB5zLGwswDs5LC9PlYSBeBaIYLWgT/nWMZbuj0pOdudR8HJ3c5j7I2PDzoW/FfEekVEIHkCUO8EIMpdTsE4IKLaWw5TO6jk97pbsGWErTre41jGvq06q9+GBJIoAP5xXbuONlkQWVC2jPcnYSJ1t2B3ZgGCSWULgdvEu5NVekdNogD4R3eP2uabIv9TsYzAFYKdnIbaa8HHRGTrTo6rY8lCxzIOUQ7REEiiAPxZRLYMKO9mxzICW4RFgyR8lKzNI0T4w/AeahkFAW0YEgXFNTGSKAD+KsA3jl4iv+tY5oeiK7/9SDnbW0SRXPuRNEJ4ArzRscxjw9urZRCBJApAnWPAktcppnbMuH92gV4dJOAZ2H7xdPgPYvVqg0ASBaDee94fOZYRfEhoGyBGc83a7hnwjF+XB1GpFzpju1+A4JMRD6/h6hLg1Y5lzlRI7RFImwAscSzj4PZKDudd6wNwp0AqTt6YUs9r/yI33Rj0/zfaPFx0tYqAgDYMiQBiEgWg3knA9zmW8Z4I6q4bIjufW4tLvzd99Q96GHjrkjyereeUK3I6wVLcuWn8EQTaOBZeOa4hkEQBeEFENguYoNhPkZ16Lf9laDX/V0R2/mcOPNOxzC80+tJkbc/fxbh7Izv9PBoCFPnbq8SWdxVQr39kNIP1aJQkCkC914AvOJYR1CgkkinK2t5iEVn/Z8aDjmW8q9EAmRL3AvmLRnb6eXQEAJ5fzpvavr1FpEkUAP+39L8F1fPSEF5370wMtVhvXbd6D/PC7kLM2O4cCAbjyE9jjkpg2cQJ2OqmaVitfJonkEQBeFhEgk/8NbGNczKCTwxunkHVI1fkAMHAk2kp/GLFMj/VKPykEt/QR/r97N/QyFY/j4oATnUsfD2qaGMpTuIEIGN7SyES+KDPEOyzyIL/Gz2ya/JcbmMY/FWDP9rnJ07AFjdNg9to4GyJlpDFRnb6eWQEtGFIiygTJwCNV9ZFvyU0W/QcgWQaMQQxpVzAokZ21TsK27uLIvuFsVWb9glA8OGyhWvbjzS2IiROALK2a4sgHzQNIE4pF3BVVNOULfIoAcOdMQBe5+TNE8OMXVsh6P+cMcPYq03bBH53wJPYedYseG1HGkMBEicAGdu9BIKLgueAn3Ys88Ko5ihre/75AmF39K0aNw5b3nICXgozftZ2Py+Chs8NwsRSmxAEiGOdAm4MYakmNQKJE4BsiTOEvLqOANiOZRaimMFMyf0EiC82E4vCsyuWeUUYn8Nmc5NV/fS3DAftbgwTRm1CEoDIw2XLGLWXRMgQY84scQIwucipBnhrnZmIbD941vb8P84dmpl1iPy5bBmhTwxu6idGM4mobQCB6J8R9TLqxAlAtsTdhPx1HeiPOpYxYpVea9OTm8f96fHOVrwJHFfJ44awvlnbu01E6u4nCBtL7RoSuN+xjD0bWqlBlUDiBGDgGo73hunvBwi8HMtoO++s7RZFYLX4PVjqWMZeYX0PKfHtw6T/QHCTsD5q1zoBAkdW8tBGLSEQtv2HFGKMpk2ytvdUvRN4QGxZLuDppgOvdSCRLdFfPz6+1Rgk9qsUEPrU4MbPNlrNRP1GIfDbA57EO/WNQOPvRlIFoCwi2aD0CRxUyeNnjcsb3WLA5t6e8J5W/df4Nd+dKGd7t1JkanvjqncYAhAcX7bwnTC2Y9kmmQJQdK8U4NTgieEnHMv8cqsTlym6FwL471b9a37esIttlsyAv3kp1DXV5uaryUcBmRjKQY3aIfDExAnYMczKzXYGSbtvIgUgZ3OQwjl1BOB6xzKDDg9pOCfZemcPNPQeYdDCfnR9K9AM4DZt9VDRhgATKQAh3gT8zrGMHRtWF2CQsb3lENm0Vf8Rfi8bfdhq0UlY2UysbNG9RoAPN+Ojti0RWE7BvhULj7TkPQacEikAPves7fl/VIFPzc0hbLFwJp5pdo4mz+eWhsvQt+0N45OXOAVzVkO7EQZ+05Hh1XyYIls146e2LRF4WlxknRn4TUvePe6UWAHIlLw7QDkoiD+Bj1fyCDxFOMgvU2IOZKgNPf7KMor4W3s/UOd7sGJ4CNsumQm/nXnoa8DmZE9Yt9lo6GBqWJcAKS8BvMozjHnaSXhdVIkVgKztXiqCCwIFQGRxxTIa7uBb39/v9CuCL4X5m6HgI69MkGvGr6D/v8c2wT78gmOZZ4aJOdIm2/BhZ7MR1b4hAcpdNHA9Vst1zkz8taF9jxskVgByNt9H4ZJ6/E0Pb1w4iBebmaNcyZ1LItReAkOQWWRhcabED4Gs+0qplZ8kk0rcqJ9cSpF3NlOD2kZEgPJDCErlAn4cUcTUhUmsAEyaxb6+rasrAscFUiXPcgrm55uhnrU9//3/3mF8AOxYzuN3smbhkH8XsFOQH4Szy5b5kTBxR9rkStyBrDYj0VWCzcKLzv55kNd6MIpj7YFhYgXAn9sQC2eeciyjqQdpWdt7WUReH+a7M3LJcdZmXoR2Pb9WT6vJ2DwZwnlhclKb2An8ksA805T5zb7diT2zGAZItABkiiwAnFu37ib2gNf69YXayy8iyxzL+Ne1Y9fuSPy3B28OzKeJhiHrx8gV3e8QSNS5hzF839IU8kURfmkVjSt7ue14ogUgO5uvl376/2PXu+52LCNU663MHL4LJh8I+S3c4BCSjO2eC0HdFtSugV1vnw5/409TV613gP9ToKntyU0NosatEFgO8qtDhvGlJXk0+i62Er+rPokWAJ9MxvZuhsiRdW+9Pey9eBAN+/EPlHiYR4Z94HOTYxnTRo576HWc+Npr9DcqbVwnn584lnFYK7OaK3F3kv7hInolj8Ar/h3BygnGZ++ehlXJS6+1jBIvALkiDyf4o/rlhduYky3yVAGvDIOK5GcrBfP8DW7VbferFJxWPwYOcSwEthiv59tMjmHqUJvICTwrwEVOHnWWqkc+ZmwBEy8AfuVZ2/tj/ffwIjSxU+Vk+B1+Aq9mTvEFkS8XsMGDuVoLcT+feldbTUuytvtdEaxz9xHbN0ADt0rgIQrOrVj4SasBkuCXDgEoumcKULcPH8l5lYIZ2E24KiQl73tCOSoMeBg4oDwdd41mm7Xdb4jgow3uSlreseivDzDJO+udjxCmBrXpCIEfD7v4eDO7QjuSVchBUiEAtaf3fgOQer+9xfPw9sWD8Lv8jnplbe8+EdkjDBu6eEtlBp4bzXZSiW+pnf6zUZ1YK/oF/7bAwrIw461v428dHhbep/sFWqHXcZ9XCF5YyZuhVph2PLs6A6ZCAPz8c0X3iwQ+URce+C0nbwb+z5y1vXpHj48MvdKxjAn1xsrY7uUQnN3gLqCtDsa1XZH+wiVdJJSkv5qAXCjygAAzKnn8MgXpVlNMjQAMXMN/9Ybp//auexcQtCR30my+qa+fYf83/qVjGe+tN4n+G4FXX+XvGzX38ATvWWzBv/No6cqV+H6St7TkrE5dIRD0ALkryTQYNDUC4NcR5qANCudWLHPG+nVnizxAwHBtxMhvOwXzpEYTlrN5HIXXN7D7X8cy9mkUq97n2SL/S8CWOyC1M7b6tkzgQXFxbNK3IadKAKbM5WbD4OON/telYHrFwvyRU9fUgZ3kuU7BvDzM1Ods7yaKHF3PFsBJ5Ty+HSZekE3Odr9Fwcx2Yqhv5wmA/FS5YDZ1+Ewns0yVAPhgckVOJ1hqCAmc5eTNS9baZW33SyI4o6Gf3+6zibbStcVB/kah4CXCIs+tInZod0lptuj9QCAfDFOD2iSIAKXSDxzX6gPhOCtJnQCs+Sng/VREDgwB5iERfMMQeZTC+WGfqLvEzrcX8GiI+FWT7FweKgbrvw8mv+YUzAYLiBqPmLW9uh2TG0dQiy4ReE6Io50CWjqMJq6cUykAU+Zye9eobqFtua9/HaAN3wCM5tvoVGPfxyR2X1hA2L0Io6bo7xl4tZ9lPXo8rj+JeOMCPKecNz8X7yjho6dSAPzyMiV+EOQPwpca1pLfcSzz+LDWa+32L3LTTcBHGtxl3ONYxr7Nxl7f3t8kxX7eAZF3txtL/TtPgCL/gyF8OAkdiVIrAFURaHiUePOTC+KIVjvEhOrzBxScPOr2FQiTdWY+34hh/lwgLXdHDjOO2sRG4EkBPuDk8WBsI4QInGrfsxXGAAALy0lEQVQBqP7+tj3/DLgjQtQaxuRlxzLaOrQjRM/BvwwDO0SxtTRX5BYU3imQbcMUpzbJI+C/2alYuLpbmaVeAPa9kRuPX8Hbw7b5qg8apzoWvt7uZDRqaCrCqx3LjOSV3sAcbuuZ1fUNW7abt/p3iQD57ZWbGjO7sc049QLgT5m/PsA1+PN6PftCTO2tjmUcGsIulEm25H5TiOAegcSBUT0Rru1N8Fud7xYqOTVKIoEHDRdHLJoBvw19x66eEIDqTwG/e1AfbxDIIS3Qe254CLs229u/0ThZ271eBMcF2LW1ZXj9mP5DyI1RbXYyqVFe+nliCbxMwTEVC06nMuwZAVgLLGu751NwdhNHf/3J9JBdOIjH44CeLXoLAkWphVOFGuWYtd0bRHBsIzv9PMkE2jv8tpnKek4A1v4kGDa8syDwV80FtfJ+SoTf6n+dceWCE7G8GWjN2NaeUfgnAI36+s8A3rEoj982E7ORbZg9E41i6OfdJsBrHMs8Oe4selIA1oc22eaeoLzef28OkZddyK/b2aHX7KRMuooT+jau3p4fvL4vRH5etoz9m43ZyD5r8xQRfq2RnX6eaAL3Gy6OivO5wJgQgKRMcVCDU/8IsoqF2VHnWTuK3G9rVre3QdTjarxICawAYJXzuCnSqLVgKgBxUA2IOWsWjTu39uaIwFrPZCUF76pYeCLqdCbP43amxx/p8WNRk+10PH6zf4VxxoLT8FqUI6sAREkzZKyAnYn3O5axZ8gQTZtlSu7XQXy8aUd1SBKBX4E4tFyA3x4vkksFIBKMzQfJFt1zBLhsHU/y807BPKv5aOE8arsWrwt7NFq4qGrVYQJPGi4mRfVcQAWgw7M3crhakxL/6LO180AIDi5buCOutAZsvs0V/kA7DsdFuCNxn6fg4CgOMlUB6Mh8BQ+SLXKagN8dYfH0uHHY9ZYTEPYMw5YqyBTdzwA4ryVndUoCgb8CmFTOw98W3/KlAtAyuugcMyXmwOrpR2sbnrZ8vFgzWQ3M5a40WSSlbgPUZmKqbUcJPDvsYq92ziRQAejofAUPVjsX0F/Pv3nVqom+hG2VQCJryykEP9PE6sm2hlTnCAlQfmP0Y69WjzJXAYhwLtoNVdvZ57f82q6qAU30Jmx37MnzuaXhcbZQItsQ1W5O6h+aQMsb2VQAQjPujGFtZ6N/sOi/i8gqAPu1+zuvmcyri4f8FYSQtzbjp7bdJQDhFWXLbHBQzYY5qgB0d95GHd0/G7CP/B9/k6NQnjGH8Z6FM/FMp1KttjcT78zaSUxx9F3sVCljaxzgKCePm5spWgWgGVodts3abtFfNUiRe1+ZgAM73TCi2mdAvIvr9jXoMBMdri6BV1wD7719Oh4Oy0kFICypLtlli+4sAS4WkR87eXzw7/9mp1PJzOeOcOkvWvqPTo+t4zVN4PHhVdhjycfhn4PZ8FIBaIio+waZIgsA50rII8viyjhb4j5Cfl5EDohrDI0bCYGbHcs4KkwkFYAwlBJgkynxEJD+77uKYxmHdTOljM0PiHCWribs5izUH5vEiZUC/GXfdS8VgEaEEvR5ba3AbSLy21XEYe0eNdZuaRmbWQj9nyd6R9AuzAj9IVKmh7OdQdzfKKwKQCNCCfvcX8vvkQsF8lq/YCAJ580NzOVBnkF/WfGUhOEaM+kA8gsRXO8Nyw2VGXgubOEqAGFJJciu2gC1v7rHf5s+D7m4+hk2W3KmyH0N8BKK5Jr1VfumCSwXSFkEC4eHZUGry4FVAJrmngyH98xm/8R++r/xMiCmlAtYmozM/BObuIsh3llc0xH5dUnJK+V5eIAsFY8LxTQWvmETueemaXDbrUkFoF2CXfbPldyz6eF0ArO6ecLMaBj8dQT99M7wW56JyL90GVXahve7VP9ayHsoxlL3Vfll2Fd7zRSqAtAMrYTa+p2HN1khh1csjNxWnJhs/RONX+mXQQg/KSJbJyaxZCSyjCIPGuSvaBgP+/92RR5cksernUhPBaATlHWMfxCo9T84V0R2H2NYVonIwyJ8kJCHDNd4wBC5f+EgXuwmBxWAbtIfw2NX3xyYPKsXdx9S5I9/P7D2fv+PXWDcL4Y8UjkZjyVxulUAkjgrYyinXIk7kN45o3RKThEFXkPIA/7/6nRlqTMTf01L8ioAaZmpHs8zM59vhOedIms6F69pipKSyxPsv9iCfzht6i4VgNRNWW8nPPVKjls9QU4G+UmB7JiKaimPDRt4d6ce3EXJRAUgSpoaK1ICuSKP9MDzU7HnAPJ9J28cHSmADgRTAegAZB2iPQKZEg+E8GyhvH9EC/X2gsbgTeEXK5b5qRhCxxZSBSA2tBo4agIHF7mTCe88EZwUdeyo4gH4r3IeX40qXtxxVADiJqzxIycwaQ636je9MykYFJFNIh+gzYAkL6oUzEvbDNMRdxWAjmDWQeIgUH1zMOydKsApIvLGOMZoOSb4FSdvntGyf4ccVQA6BFqHiY+AvxR6/N9kUFBdarxNfCM1F9nv5egRJ9xewKPNeXbOWgWgc6x1pA4QyNj0XyGel6hXiORZTsH0W6kl7lIBSNyUaEJREMiV+H5PeDYoB0URL4IYj3ge8osH8YsIYkUWQgUgMpQaKIkEBmzu7Qn9I9cT0tGYpeEh46wlM/GXJPBSAUjCLGgOsRPwm5RAOEtE/MU63f7e/5WCizabIFdF0dSjHXjdBtFO7uqrBJomkDAh+C0MDJan466mC4nIQQUgIpAaJl0EDp7Hd/Z5nMU1dwRdvvhdusbpzTTzjCphFYCoSGqcVBJY07+w2sjUP0ijm38PfwFxQrkA/4j4jl3dLLhjRepASqARgaQIAYVffXnIOPPemRhqlHMUn6sAREFRY/QMgWyJu5G8BCJHdqsoijxgAMeU8/hd3DmoAMRNWOOnkkAChGAlBB8pW7g2ToAqAHHS1dipJzBCCD7YlWcE5NcmbmqcEdfrQhWA1H9FtYBOEPCFQDz+t0CO6IIQ3NH/Ohy+4EQsj7pWFYCoiWq8niZQFQLS3+rrC0Enr8dND1OjPgZOBaCTU6hj9QyB7FzuIUZ1ZeHhHSxqOQVHVSw4UY2pAhAVSY0zJgnUhOCCju41II52Cvh+FMBVAKKgqDHGPAG/XVkfvHMpOF5E+mMGMgzgiHIet7Y7jgpAuwTVXwmMIOC3KzNN71MQzIi5XdlqAEe2KwIqAPr1VQIxEJgyl5sNG97pkGq7ss1iGMIPuZqCQ9t5JqACENPMaFgl4BMYuIbjXdebCeITIrJlDFReNTxMWTSIn7YSWwWgFWrqowSaJPCe2ex/Q5+cBL85SfQnHr0qHvZzBnF/k2l1dfdTs7mqvRJIPYFZs2j8bGu/OxHPifjEoxc8A3svno7fNwNJ7wCaoaW2SiBCApkScyDPFZGDIwr7JF28t5m+AioAEZHXMEqgVQKZEvcCeX5Eqwsf7H8dDgi7bFgFoNVZUz8lEDEBfy2BId45AE5oZy0BIT99eTWyYXoKqABEPIkaTgm0S2DEWgL/6LPxrcXjdx3L/FAjXxWARoT0cyXQJQL+WgIX3mkCnNrKWgIILytb5nn10lcB6NLk6rBKICwBfy0Bh7yPEPCPHn9LWL81djjVsfD1IB8VgOZoqrUS6BoBfy3BxH45UdYcdLJz+ETwMcfCN0ezVwEIT1EtlUAyCJDIzpMjhTxHRPYKl9TodwIqAOHoqZUSSCSB3FxmaPBMEZnSMEHiDKeAr4y0UwFoSE0NlEDyCfh9CWDwPK45A9EI/M1P5MsFzFv7uQpA8udWM1QCoQlMmcvtXcM7TwT5ICfDw/vWbh5SAQiNVg2VQHoIDMzhtp7pXSACa5SsXxwGtluSx8sqAOmZU81UCTRNwL8jGDa8iyE4cR1n8lynYF6uAtA0UnVQAukjkCtxB7J6R3BSLfvfOpbxDhWA9M2lZqwEWibg7zcw4V0kgmP6V2BTFYCWUaqjEkgvAf+ngX/GgApAeudQM1cCbRNQAWgboQZQAukloAKQ3rnTzJVA2wRUANpGqAGUQHoJ/D8VXIu0PegvFgAAAABJRU5ErkJggg==;" vertex="1" parent="1">
          <mxGeometry x="599" y="470" width="50" height="50" as="geometry" />
        </mxCell>
        <mxCell id="ugtfvKyXgLZFdfxOpgOD-50" value="" style="edgeStyle=orthogonalEdgeStyle;shape=connector;rounded=0;orthogonalLoop=1;jettySize=auto;html=1;shadow=1;strokeColor=#b85450;strokeWidth=2;align=center;verticalAlign=middle;fontFamily=Helvetica;fontSize=11;fontColor=default;labelBackgroundColor=default;endArrow=classic;flowAnimation=1;fillColor=#f8cecc;" edge="1" parent="1" source="ugtfvKyXgLZFdfxOpgOD-46" target="ugtfvKyXgLZFdfxOpgOD-49">
          <mxGeometry relative="1" as="geometry" />
        </mxCell>
        <mxCell id="ugtfvKyXgLZFdfxOpgOD-46" value="" style="rounded=1;whiteSpace=wrap;html=1;fillColor=#d5e8d4;strokeColor=#82b366;shadow=1;strokeWidth=1;gradientDirection=east;perimeterSpacing=6;glass=1;gradientColor=#97d077;" vertex="1" parent="1">
          <mxGeometry x="579" y="640" width="90" height="60" as="geometry" />
        </mxCell>
        <mxCell id="ugtfvKyXgLZFdfxOpgOD-47" value="" style="shape=image;verticalLabelPosition=bottom;labelBackgroundColor=default;verticalAlign=top;aspect=fixed;imageAspect=0;image=data:image/png,iVBORw0KGgoAAAANSUhEUgAAAQAAAAEACAYAAABccqhmAAAAAXNSR0IArs4c6QAAIABJREFUeF7tXQuYHFWV/k/NhCS8fC4KssIusCgI8hSUpzwCIenqII4LJF09CYiAqysCgiIKskGQiAK6Kq9MV0+CGAjp6gkBFgUUcNWgIoaHK4iwLC9BxUgSMlNn+/b0JJOku+6t7qruru5zvy9fCHXuuef899bft+7jHIIUQUAQ6FoEqGs9F8cFAUEAQgAyCASBLkZACKCLO19cFwSEAGQMCAJdjIAQQBd3vrguCAgByBgQBLoYASGALu58cV0QEAKQMSAIdDECQgBd3PniuiAgBCBjQBDoYgSEALq488V1QUAIQMaAINDFCAgBdHHni+uCgBCAjAFBoIsREALo4s4X1wUBIQAZA4JAFyMgBNDFnS+uCwJCADIGBIEuRkAIoIs7X1wXBIQAZAwIAl2MgBBAF3e+uC4ICAHIGBAEuhgBIYAu7nxxXRAQApAxIAh0MQJCAF3c+eK6ICAEIGNAEOhiBIQAurjzxXVBQAhAxoAg0MUICAF0ceeL64KAEICMAUGgixEQAujizhfXBQEhABkDgkAXIyAE0MWdL64LAkIAMgYEgS5GQAggoZ3f18eTJ6/BLiBsw8Bky8dkJkwGYRL7mGwRJjPQC+DvDLwOxt9Bo//dy/gLRvD0wO30QkLdF7MjQkAIICIg41Izy+adCdjTAnZmxi4M7EyEXQC8K4I2VwN4moCn1d8MPMWEFT2ERweWkPp/UjocASGANurgU/r4rWtX4wAQPgBg/8qfbVpkopotPGoRVgBY7o+gmB+iZ1pkizQbEwJCADEBa6o2k+YDiDEVhCnM2J9Gp+3tWn7GhCID9wwW6MF2NVLsMkdACMAcq8gk1730wLEADohMcRMVMfAEAXeAMOQW6O4mNi1NRYiAEECEYAapUt/yFjATwNSkvvS1/GPgEQsYKn2yLM159ECTIJVmIkBACCACEANf/DQfQoxZBMwCsHnMzbVePePnDNyEXizM30Yvtd4gsSAIASGAmMZHNsUf84FZREjF1ERbqyXgRRAW+oyFeY+Wt7WxXWycEECEnd/Xx5ttvganMDAHwH4Rqk60KiLcyj5ucIu0LNGOdKDxQgARdOrMqbx172Y4hRmnANg9ApWNqHgdwJ8AvAJgFYB3AFBbiVs1ojSKugwsAOGafIF+FoU+0dE4AkIADWB4ks3v2AyYwyi/+Ds1oMqk6hoAah/+WSI8UyKbZ6H+Vv9mvNRD+NMEH69cWyRFAJuU01K8+SpFBha2sRjv8NV/E7ahCkGwX/73wU3ZhiRc4zOuHvTo9yaOi0x8CAgB1IltNs1nMePsiE7kbWoF4Y9g/IIZD/T04N6BJfTrOk0NVa2yRXkQAPXn4MrsIZQOI2HGq2o2MInxtVqkZaRHhBpCQAggJHzODP4AfHwJwLSQVYPFGa8yQX0j39dj4RfNeuF1PvTP4L1GfBxoEQ5gxoEA3qOrE/L5ryzgawMefT9kPRGPAAEhgBAgZm3+PDO+pC7chKhWW7Ty0lvAst6JWHbDIno1Er0xKsmmWK1xTGXCCUCZECIpDHyfgK+5Hv0qEoWixAgBIQADmDIpPowsXAjGkQbiJiKLSxd8Fiflpa/l0Cybj7YUEXCZDN5u4rhGRq1fXOF6dFEEukSFAQJCABqQKt/6VxpgqZ3iw8ICtRLeaavgmeN5G2sEJzDwUQBHNIwVUPCB8wY9eiICXaIiAAEhgBrgzLF5q2HGlSCc2uAI+g0BC9jHAneInmtQV9tXz9p8kM84gUY/Ed7dgMHPWMB5sjbQAIIGVYUAqoBUWehTv/pqJbze8nswrnaLdE29CpJcr6+Pt5y8Bv0gnAPGDvX6otYFch6dV299qReMgBDARvhkUtxPBPXyv6WuwTO6vXX1hIm4JgmLenX5GKLSzI/w9tZanEuET4eotrHo0lWvY+aiu+mvDeiQqlUQEAIYB0o2xf/BhAvqHilywKUmdI7NHy6FJzu3chsyNMTqxmEvYdr8Aj0burJUqImAEEAFmqzN32Lgk/WMFWbcy4yLB4fo3nrqd1OdbIpPYyoTwc5h/WbgrxjBwfml9NuwdUW+OgJdTwDqAs+k1bilgVt7F7keXSwDzBwBdYR6wujawDnmtdZL+oSDJCJRPchtWqerCaA8EAF1xPadYeGUX/2wiG0qn5nOB5NVng3YobUxjpPbhaFR26RC1xKAM50/CAv1xrW7WA6rND74xjRkUnxVPYuExDg5V6SborOk+zR1JQFkbN6PgF/U0d1PlmLrn+sW6LY66kqVAAQyNn+OgMvDgsTAGXmPvhu2nsiPItB1BDDL5l0t4PE6BsBtarqaW0JP1lFXqhggkE3xST7hWgK2NBBfJ8KEz+cLdFmYOiLbhQQwx+bthgF12SRsrH2Z8jfpjSmfGxjG3QTsGqZJZszOF2kgTB2R7aIZQPloL3AfgL1DdTyhzy3QLaHqiHDDCGRs/iGFvVfg4wB3iH7ecONdpKBrPgEcm4ulDDfTw/StD0wf9GhpmDoiGx0C9RzM6h3BTjcupaeis6KzNXUFAWRSfCURzgrZlUe4Ht0Tso6IR4xAJs3HEOMOU7Vqe3b1KsyQY8NmiHU8AThpPhWM68zgGJViwoGddmU3jP/tJlsHCdyaL5K6mixFg0BHE4C6msooh9kyjohLwMGS3ab93hsnxWkQloSw7EuuR5eEkO9K0Y4lgJOn8Vt6rXLuOpVp16gww8kXKW8kLEJNR2CWzTNLadIHjRtmpNwiqZRlUmog0LEEkE3zfGb0G/c8YZ5bIHUsVUobI+DY/G8AjGIsEPAo+5jSDYFY6u2yjiSAOsJ4Xed6dFq9IEq95iLg2HwhgK+YtKqiMeU8UnkZpVRBoOMIYGaKD+wh/DBEIs5B16OMjI5kIRByZ+czrkdXJcvD5ljbcQTg2PxfAI4ygo9wl1ugY4xkRajtEMikeT6Zfea9QozDckVa0XZOtNigjiKAbJovLsftNyilSyQvEjDF9eg3BuIi0qYIlCINqdOdh2rNY9zsFulErVyXCXQMAfTbfKw/uuVnVGTF3wimthfKTucpbOFOE0MZOC3vUagzISZ6kyzTEQSgsvP29OJHIOxr1Bmy4m8EU1KEMjbPI5TzNOrKs8MjOHyhHBVeh1NHEECoM+Py3a97SRL3vH8Gv9n3yxe99jQwXnZ8xoGUeALoT/F72MJ/M+NNBp3/N8vCoe2SeNPAXhExRCCb4o8x4WYTcYkpuB6lxBNAqGi+jPPdIoWOOmMyqESm9QhkbL6egFMMLJGt3wpIiSaA/hQf6BN+atDhSuRHrkdRJfc0bFLEmolA/wzesfIpoE1JRhaOyi0hdV6kq0uiCcBJ8QIQTjbpQWYcmS/Sj0xkRSa5CFTyDnzPwIPFrkcqf2FXl8QSgJPiqaWLPrcb9R7hcrdA5xvJilDiEcik+RYaTVkeWAiYnuvygC+JJQDTTgbw617g0Bs9+ptuQMjzzkAgRNTnm1yPjGaQnYHMpl4kkgCy03hf7sFyk04h4MycR98xkRWZzkEga/MPGOjTeTQ8jB0X3k5/1Ml16vNEEkCIgx8rXl6LfZctozWd2oHiV3UEjAOIMOa5xe69Bp44Ajilj9+6dg0eAbCdweA/2/VIpfqW0oUIODY/AOBDGtefdz0yGUsdiWDiCCCb5k8y41u63iDgKbKw78AS+otOVp53JgJOis8E4ds67yxg6oBHxoFHdfqS9DxxBODYfD+Ag3QgM+GL+QLN1cnJ885FoK+P3zT5DTwMxg5BXhLwV2Y8wMCD6u/Nn8cD1z5EazsXmfWeJYoAQmz9/cnvxZ6Di+n5buhE8bE2Ak6a54LxhZAYPc+MB4nwE2Lc3clxBJJFAGm+GoxPGXSmXPgwAKkbRGamebcexsMAehvwV2WR/iEzfpgvkrp01DElWQRg8/8A2FmHPhOm5QtkdkhIp0yeJx4Bx2aVMzAbkSNPgHGbZWHhQIHUYnSiS2IIIMT0/2HXo70S3StifKQIOGk+CgwVKi7awlhIhIVJPk2YHAIwn/5LJt9oh3lHaAtxcrQef+8HIecW6Pp6KreyTnIIwHD67/vYa3CI1DefFEFgHQL9h/Mkf2usihmSe3zG1YNFCpPBKGaTgtUnggBMp/8M3JH3aGpLEZXG2xaB2WnebYTxAwC7x2kkAYt8H1fnh0htWbd1SQQBZG2exwYx3wg4J+fR19sacTGupQhkpvAWPROxm2/h/fCxdynfoFov2hvA5BgMuwo9uMS9jV6JQXckKhNBAJkU30OEw3UeWxb2lnBfOpTkeTUE5ti86wjhAPZxCBMOIWDXiJBaAR+XuENkFK4sojaN1bQ9Acyxeath4Dlthl/GY26RdjP2XAQFgQAEZtm8qwUcxITjTGILGIB5XQ/hkvkFetZAtmkibU8As6bz4ZaFe3SIEPDNnEdn6eTkuSAQFoFZ03kfi3ASCCqxyPZh64/Jq/spDHzZ9cg8w3G9jRnWa3sCyNh8NgHzdP4w4dh8gYwSROh0yXNBoBoCKuX8hB6cWM46HSLt/Ma6iDA3V6AvtgPKbU8Ajs0LAZykA8v1qO190fkgz5ODgGOzyjg8B8CH67R68fAwPtvqYCRt/9I4Nj8B4F80IP/K9WifOjtCqgkCdSPgpPl4cJkIpodWwniMLZzVyplr2xLALJuP7gEuZOAQA2BvdD0yiQdvoEpEBIHwCDg2/xsBX2TgHWFrM+PUfJFuCFsvCvm2I4BMmlPE+ByAg0M4+CnXI22QkBD6RFQQCI1AOUsVlUlgZtjKTPh8vkCXha3XqHzbEICT5o+CcQaAI8I6RcDBOY9U+CcpgkDLEcikWC0SXkbhZwNNv8fScgLI2mz7wBkEHFtvz01ibHFtkV6vt77UEwSiRsCxeU8QrgBjSkjdTSWBlhGASuPEjC+Xt1QaK0+4Hr2nMRVSWxCIBwEnzYoEzgmlnXG6WyST7Eah1FYTbgkBqCkSEb4MYMdGPVAXL3IefaxRPVJfEIgLgUyKM0Rww+j3gSmDHkUfw2AjI5pKABH+6q93g/FJt0j/GQZckRUEmo1AxuY+QvkmonFpxtpW0wggyl/9MQQZ+EnvWpwwfxm9bIyqCAoCLULA9Fj7OPNetixMifOCW+wEEMuvPrCUGPNzRbq1RX0pzQoCdSHgTOd3wcL/hqj8G78Xx8YV4TpWAog6AAMBC5gw4Bbo7hAAiqgg0FYI9PXxZpPXwDxdHeNmt0jqIlLkJTYCKL/8Pm4B4b0NWq3COA3Ax4A7RD9vUJdUFwTaAoHMdH43WQiTlPSi0n2Xi6M2PhYCUC//MOM+At7egMEvgDHgEwYGPVL3AaQIAh2FQH+K9/cJ5j9qhBPdQrSBRSIngMq0f0UjPcXAtSPDuLTVN6Ua8UHqCgImCFSOvnsmsgT8HwNTXY9+YyJvIhMpAUTw8i8H4VK3QLeZGC8ygkAnIKAuEgG4xtCXxa5HJxjKasUiI4DsDN6XfSzXtlhdwGfg0tUTcemiRRR36OY6TZRqgkB8CGRSfCURzCJaRXj2JRICqORfq2/az7idCJfKZZ74BpdoTgYCjs0qn0DawNoX0IPD3NvodwaygSKREICT5jfAmBDaGMYFbpEuDV1PKggCHYjAzI/w9tYwbidgDwP3Bl2PMgZy8RKAk+YHwfhgHYac4np0Yx31pIog0LEIZGz+SIkAjA64MWN2vkgq8WndpaEZgGOzWrhQCxihCgHTk5xQMZSzIiwIhETAsVndbVGxMYIL4yG3SPvpxIKe100As2yeaQGhwxszsH/eo3oXCxvxVeoKAolAYNZHeFtrGPcB2EVnMDE+kSvStTq5Ws/rIgB1vt/38VMA7wzTcA/h3e2WGCGM/SIrCDQLgcwMzpBvcIW4wVlAXQTg2FwMGwV11URMXLSI3mgWgNLOegTULbRK/IXIYckXqd6w2JHb0mkKTVOaNzILCE0Ajs0qkMdFYcDmHuyRv41+G6ZO0mUdm/8dwDeD/GhWNuM6rqGawj8C4G/lP4yVILyG0ew3D/UAK94YxmNRneY0GHdNDaVlClAjcrPSfIjF+LFWRwOzgFAEMDPNe/QwVPDNrbRGVQQYOCPv0XdN5TtFzrH5KQD/pPPnTWsx6ZplZH4zTKewyvMYCcDEGjWAF/cQFjfy+deNBKDANV4Q9HFiPQlIQxFANs3zQ8bw+47r0Zkmo6STZPrTvIfPMD2v/TnXoyvi9L/FBFB2jYGVYNyIXszN30YvhfW3WwmgkqRUrbe9RYNZXUeEjQnASfF0ENS3v1Fhwq35An3USLjDhDI2X0+AaaKS51yP6k44aQJdOxDAODsfBzA3bILMbiWAyizA6LPbsrB32OhBxgSQSfE9RDjcZMCpUF15jw41ke1EmdJg5TB+kYX9ckvooTB1wsi2GQGMmR7qm72bCaAyC1Azys0C+51xmVukz4cZG0YEEPK20rM+cHS33uF3UnwyCAvCdAIIebdATqg6IYTblACUB8Yk0M0EoIDK2JwrpRcPHCMq/fhExh5hcmRoCaByKOFB4xDejE+7RTK92hhiGCdD1Enxz+pJHR1ndmMdAfh+fRluewjb+oTtSgfCdmZgz9Jin/qzZZieMt3C6nYC6Lf5WB9YZoBtJsznlZYAsjbPY+Bsg4aVyI9cj440lO04sf7j+J1+L54PcOz/AGxX7TkR5uQKND8OUEwIYHCI7m20beX/SC9mE8rJXnQZnUebM9zC6nYCqMwCfky6ZLkh4wcGEkDmeH4vjeBR44HBOM4tkglLGatMkqCT4q+CcH4Nm9cCUGe81fmAauVh16O94vC3WQQwZvtpKd58lYXZYHzC5GabySxACKC8Jag9WwJgZS+w640eqR8bbQkmgDRfQIz/0GoZ3ea5Nu/RJ0xkO1Wm1EF/Lh3+eXM1/xhYYAHfYeD+Wv73jmCnG5eSOj8QaWk2AYwZrz4fe0bwPWakNA79zPXowCAZIQAgczy/j0bwiG5wMHBa3qPrdHLqeTAB2PwQAfsYKHrJBw4a9Oj3BrIdKTLL5qMt4K6azjFmuEUqOGl+BIz3VSUJxjfyRfps1AC1igCUH5UwcWofe2uNX+8PinUnBDCKXtbmn5ZOkAaSJQDP9cgksEhtAgix6KDsiv0wS9QvRdT6HJuHAEyr8ev/aN6j3csdmOYvMaNWeGff9agnattaSQDKF8dmdXRc7WXXLAScl/Poa7UEhABGkXHSPBeML2jGiE8W/iW3hJ7UjaWaMwDHZnXF8OM6BQw8kvdIrf52benr457JazAcAMC6mO7adRVGqnTHW5FJZKXVBKBrXznKjHuDLhYJAYwOh9kpPmKE8EPd4DANFlKVADLH8zaVxb+36RoC43y3SJdr5TpYwLFZTdu/XsvFHsLu8wu0bjHVsVnd9a51UOpu16Ojo4RL9wKqbcAodgGCbHZsXg1gYoBM4CKoEMB65Bybn6u1mzQmRcC3cx5pg/VUJwCbTyfgO7pBSIRXh3vw/gWLKUyuM53axD13bFaJS2ptexVcj2aMd0p3sGot8M6bPHoxKiDahADU+tBOAT4943q0Q63nQgAbEEABgK0ZH9qFVVW/FgHcRYDJr9C3XI8+FdVATaKe/hm8l+/jV7VsJ2BWzqMNTgbOsXm7YUCxeNVCwBdyHn01KjzagQAMjpL/zfWo5kKhEMAGBHAhgK9oxseI9Rq2HLiX1MyrZtmEAJzp/AFY+JnJ4LMYHxwo0n+byHaqTCbF84nKB1+qledWTcQ/VwuEEhQCmoAXcx6FirYUhG87EIBj8/8A2LmWnQwM5z2qGVlaCGA9crr+HJO0CIcOFOgnoQggm+ZPMuNbuheWGUvyRTpeJ9fpzx2bVZSjqgOXga/nPTqnGga6mIoEHJbzSB8MwgBg3YBpxhpAxua/UdAxYcbLbpG2qeWOEMCGyASNu3GSZ5dmVVeGIgDH5hsAzNGOK0KfW6BbtHIdLODYPKv0XZuv+atGODBfoKqzqcwU3gKT8ELAS3GT69HJUcDXagKYPZX/YWQCdDEAfud6tKsQgFmPG3xSqe/77+Y8CowuvOkngM0PVy51BFmy3PVofzNTO1fKsVlNrw6u5qFuW0vVcVJ8IwizaxLIamyZv4v+3iiCrSYAx+a9S4tWv9T4EbhoJTOAjWYAKb4OhFM1v+535DyaajwD0C1OjSlixtX5ItU6097oeE1EfS1WhNPdAn0vyJmszdMYqLnnH+ZIZ1A7rSaAbIpPY0IgFgBudD2qGURFCGDDHs7a/DkGdNvvj7sevdeYAEyj/lRb2U7EWxuhkVmbL2fgczVUrpwwETvcsIhe1TXp2PzH0uB/dw25Fa5HVY8N6/SOf95qAiiNK5X1ed/Agcg4OVekm+QTwKxnDTMIrXY9mmxMANk0X8yML2lN6MGuUSQm1LbTxgKOzersw7tqmHid69FpJubrrlv7PvYdHCLd9DmwqVYSgJNmF4zAHHZqB6B3Lbabv4xeFgIwGTXl49Xq9K36XA8s1jC2HbidXqgltMEagJPiu0HQ3ed/2vVIG+1WZ1iSn2fSfAwx7qgJqo+jckOkPa6p6mtDPxOucQv06UbwagUBVALJ/BeA8h2IoMKMYr5IgQdb5BNgQwT7+njy5DV4XYetbqt+QwKwWSnUTRm+n/PoJF3Dnfy8xL6LS+xbawv0V65HJjco10Hk2KwOEtWMBdBotKBmEkB/it/DhOMZmGny8pdBIBztFujuoDEjBLApOo7B+8qEY/MFulM7AzBcqVWXNs7KFykw4UUnv/ynncYTVr+AmhmOGDgvH3CrrRo2js2BJ7tI832sw1tHACo2X4COmgFOCdiqFAdiO2ZsS1SOdLRtmJwR5XefMJArUM2dkDG7hAA27aGMzS8T8PbA2RVwQumynvrBqlrWzQCcFKdBWKIbTLopha5+0p9n03wOM2rG8WcfO+SH6Jkwfuq+50y2FIPaMyCAMOZGKfskj2BGfqk+a5QQQNUZwB8MYnUGxghcTwBpPhUMbRSRRqejUY6eVuhybFYLcmpfe5NCwKKcRx+rxy7HZrVmcETNug0svLYpAawkYJrpaUchgCoEEBBcZkxaF25tHQFkbP48AZdqBu8LrkdqmteVZfZ03mfEQu34/YSPuAW6rR5wsmn+NDOuCqhrHEJ7Yx1tSABPgnBuGKyEAKrOANQ9nAMCPwE0n+zrZwA2q/vsunBUv3Y9qvrrV8+gT1odJ8XfBaFq3EMVkz3nUdB110B3Tz6Od+jtxdMBQq+4HgV+79Wq21YEQPjPXsZc06CVYz4JAWzau1mbf8z6KMEXuEWq+cM+/hNAu19LgPZoYdJe6jD2BgX9BOFSt0AXhNG3saxmdwEWwR4okHF6tjH9bUAAfyZgsU9YnC/Q7fVgJARQdQZQ83N0nTTDjAAyNi8j4NigzjFdsa2ng9u9jmNztrTgMlDLzihSoOvaAHCL61FfWKxaQgCMh1S4OFhYzj1YPLiYgvIlaF0SAqhKAIFXrFUN3a7d+E+AXwDYL7An6sg9pu3ZhAg4NquDP8dUNZdxFwgq8m0URd2xqBpavKzcx/buENUMJlLNAEMCqGsrsBQQ9nUwXiPgNd/CXy3Ci1uvwW+jTnkuBFCVABSpBsaNMF4EdFL8NAg1QzKZsEkUo78ddcxO8z+OMEJt7cXlBxHOzRVoXhj9JgTQ7rs7QgCb9rg2xsJoFcNtQJvVtdPNgwYWAyflPfp+mMHXCbKOzSr8kjqs0w7lCdej94QxRAggDFrJkTXJQl36DDM8CBQQ2WYMkmZEjmlH+DVBP5tuMjOOzBfpR6YNCwGYIpUcuVk272wBag0gsBgfBc7Y/BcC3hSsLfqY9ToHWv08k+bjiLG01XZs0D7herdA2pwNY3WEANqq9yIxppSFemopC7V2R0V3cnfdImDW5ufUuW75BNgQAcdmFfJLhf5qqzJpIt587SL6q4lRQgAmKCVLxknxp0C4Wme18XVgXdTWckOEj7sFul7XaKc87z+cJ/lb47VaQT9b6ScBZ+Y80uZuUDYKAbSyp+Jp20nz1WDoQvKbBwRxDGIB6vYU43G1dVp1CTxaZ1m55ftdjw4xsUEIwASlZMk4Nqvpf2C8PwDmIcEcm9U+dmDWUQIuzHlklC48WXBWtzYo6KeqEefWmdE3noUD3CX0cx3WQgA6hJL3vPQJ8ErpE+CtQZabnNwdfx14KQjHaRTekPMoMBJp8qCsbvHMFO/fQwh6ue50PQo8OdkoFgbbPFe5Hn1G144QgA6hZD3XZaMa8yZUWHDHZpWa+VwNAfwk51GtpJbJQlFjraO7HBVDFt+NTXLS/G0wzgww9bVnXsPb7r2XgjITyxpAR41MIJPizxDhGzq3TD7Z118HTnE/EeZrlL7kevQOXcOd8FwT9DPW6f8Yfplp/F7qwbqswtVwZQtOfgnVTE6i6sgMoBNG5HofMjYP0mjItcBCFvbLLaHa19fHJwftT/H+fvCUt9yYZeEtA0voL7rGk/zcSfO/glH7xCPje26RTm+Gj5qw4WDgjrwm+YMQQDN6qnltODY/DqBmFqWKJX9yPfoHnVXrZwBTeAuahJW6CjBceNLqaWMB3bVcYrwvV6QVzXDBsVl9lqnPs5pFZ48QQDN6qjltZG0+iIH7DVrbJC19tTobRwXWxxhjfNot0jUGBiRSpH8G7+j7UDjUKs+5Hm3fLOcqZxFWaQhgbq5IX6wlIwTQrN6Kvx0nxVeAUDXh7PjWTYPTbkwAQeGuy/obiXsXPzyNt+Ck+DwQLqupiXG+WyRdSqbGDRmnwbH5XgCHBSj9g+vRPwsB0EWRAt9myvr6uGfyGjwGYBedaQQcnPPoAQO59SIZm08nQHe6rKPjAgYF/VRIcUQJO3UdM/65k+aPgrEoqE7QrS+ZAYRBu31lDdOBKQcCMy2P93CDGcDsNO82wtB+21qMDwwUSQUQ6aji2PxhAEG37IxP30UNjMGZgJrRgoQAou6N1ujL2pxjwNG1zoxjtgMJAAAKZElEQVRv5Iuki+85NqPfUF0p5/3vSznvA4NbEuOzuSJp9yF1hrbb86CgnxW0TnQLdHMr7HZsVuHIVFiymmW4FzsuXEwq2egGRQigFT0WbZuV3BEqBmCPTnOY6+IbzACU4ozN1xNQM01zpfF7XI9qx7DXWdiGzzOjuyAq4WfNcFxxHv3VQZKxeb9SHP3AWRcDX8h79FUhAB2ayXvu2KyycalwcbrysOtRzTRzG1fehACyKT6FCdobf6aLDDpr2+W5Y/McADcE2DPoehSY5TZuX0qXk/4E4G212lFBOEtpoFTWWJkBxN0ZTdSfncE7sQ/167+1rlliBO4I6QlgtLHfqTM/QY0x4Rv5gtl3hs7odnheiTlX2xQLy0wu3sTpS8XG8aS9Sd4+8vHT3BDdFacdrdDt2LzxCv/GvpPrdeYugJPmuWB8wQh3Hx9yh8g4QO0mMwDVSClRaAFAYLpmAM+smojdFy0i/eEhI8tFSBAQBDZGYOZU3r5nQvlSmklGrtAX1KoSQMbmjxNwra47dCGHdfXluSAgCAQjYHrwp6yFMdMt0sIwmFYlgDk2bzcMPAFgy0BljIfcIgXnEghjjcgKAoLAOgRmTed9LKucb2IzA1iWux7tbyC3gUhVAih/BqT4+yD8q06hzAJ0CMlzQaA+BDI250o5J7X7/pVf/7qO6NcmAJtVIMzAa6aVhmUWUF//Si1BoCYC/TYf6wPLDCH6w8ha7LVgGan4laFKTQK46CK2nvpleevh/TqNMgvQISTPBQFzBPr6eLNJa3A36TL/rldZd+r4mgSgdBvkrB81gfDY8DAOWriU/mzupkgKAoJANQRCLfwBK0bW4kP1/PqPvroB5cw+3nLlmvIsQHv7KIr02DIcBIFuRyCb4hOYcIspDsQ4NVekoANsgaoCCUDVzKT5fGJscry0itY3GDgo79FyU+NFThAQBNYjUNnzv9sg2s9YpdD7/hvjrSeA43kbGinPAt6l7SzGzW6RTtTKiYAgIAhsgkDW5kE2iPU3VlGX988EYi0BKCXZNJ/FjCtNFDJwRt6j75rIiowgIAiMIhA2AzUDN+QjCNFvRAAVA4cATDPosJU+4ZjBAj1oICsigkDXI5Axi8g9Hqcn2ccR+SF6plHwjAkgk+YDiHEfgIkGjT64aiKOkXsCBkiJSFcjkLX5UEY5y+8WxkAQZrqFcEd+a+k2JgClIJPmC4hhlBrMJCuJscMiKAh0IAKZFP+TRSgwsEcI977jehSULCaEKs02YDVNjs0qZJYKnaUvjAvcIl2qFxQJQaC7EOjr48mTVuN2Ihxu6rmK9zDMOOKmIqm4EJGUUDMA1WIlLrm6b765iQVE+PdcgbR5zE10iYwg0CkIZFJ8T5iXX/ntM44fLNKSKDEITQCq8dBps0MGKYjSQdElCLQbAvW8/AA+43p0VdS+1EUAFRJQp49UGC2j0sp4ekYGipAg0AQEnBQ/AsL7QjVFmOcWKDBxbyh944TrJoCTUvz2CQT1KbC3aeM+sMugRyrqsBRBoKsQqMT1U7to+gN1GyKzwvUoHGGEQLZuAlBtzLL5aAtlEjAvjOPcIpleczTXK5KCQJsi4KR4Oqh8tb5mxOlapg+P4K1xXrJriADKnwIpPhOEb4fCvsPzC4bCQoQ7GoFsmh3mcpTtCWEd9X18eHCIVFq42ErDBFAmAZtV9tpQ3yjqnMDrE3GuHBaKrW9FcQsROHkav6W3B3MBnFGPGc14+ZVdkRCAUpS1+QcM9IV09kGfcK4cGw6Jmoi3NQIqmg8DcxnYpx5Dm/XyR0oA5ZlAmu8EY0pIp1cycK5cIAqJmoi3HQJzbN5qGFA5+erOUtzMlz9yAqiQgAtG+Aw6jJuZME/iCbTduBaDDBAoX+gBzg69xTdOd7Nf/lgIoPw5kOJzmHCFAW4bi7wBwrzhYcyLc+WzDrukiiBQFYFKRmn1qz+9AYhW+sB+gx6pUPxNLZGtAWxstWlykareEh4jH9/MFUmbnKSpaEljgkAFAWc6fxCEOSCc2hAohId4FQ7L30V/b0hPnZVjI4DyTMDmmQwM1mmbynTykMpQJERQN4JSMWIEnDQfBWA2GCdHoPom16Mo9NRtSqwEoKyqHBa6PMyJwU28qRDB65OwULYN6+5rqVgnAjOn8ta9vZjGo4ly0nWqGV/NB3BJOyQzjZ0AlNeVY8OKBIzvDtQA+Rkm3Goxbs159EAEHSEqBIGqCPT1cc/k1eXvenWKT0XCMknOqUeTcBeP4JL8EN2vF45foikEMOZG5RahIgKjq8Qa9+8BMMQ+ft4uYMbfXdJCnAiowzsTLBzBhCOB8nb2ThG2p7a7L8l7pA7NtU1pKgEoryvxBC4xDipiBtVLQDmF8j2wcL8F/G5gCf3FrKpIdSsClQw8e1qMw9nC0XWcYTGFrtDj4yvzh0hF126r0nQCGPO+El7sQsMYg/WA9hKNZjj+HYCnfcZKsrCS1d+Mlerf9SiVOslFoMfCFszlVHd7wsKeYLw3Zm+eVjk12nkRu2UEoICvBBpVJGASbTjmvhL1gkB0CBDw7eFeXLZgMf1vdFqj19RSAhhzp5J34Ow67kpHj4hoFAQaQ+B+Jnw1XyAV6bftS1sQQHk2cDxvAx9ziMs7BfpchG0PrRjYZQgsI2BBzqMFSfK7bQhgDDSVkPTvb2AOjxKBNjV5ksAWWzsOgVVgLPAZC+K+tx8Xcm1HAGOOXnQRW0/9EieD1+3DbhkXCKJXEAiJgEqAu9QHBpMe4q5tCWB8h8yxebu1wDQavXCh/lghO0zEBYFGEVjBwNIewtBAgX7SqLJ2qZ8IAhgPlgquiBEcyYRDoP4wdmgXMMWOjkPgx6UfnOVMuCtfoDs7zrsoIwK1Cpz+GbzXyAgOtywcxoy9AOzYKluk3WQjwIx7iXAfWXjw9VVYvuhOejXZHumtT9wMQOdSZgpv0TMRu40AuxNhNzB2B+GtlePHmxOwuQ9sof6uJ1Cjrn153vYIqLRa6oDYEww8YQGPjwBPtOIufjsg1XEE0A6gig2CQFIQEAJISk+JnYJADAgIAcQAqqgUBJKCgBBAUnpK7BQEYkBACCAGUEWlIJAUBIQAktJTYqcgEAMCQgAxgCoqBYGkICAEkJSeEjsFgRgQEAKIAVRRKQgkBQEhgKT0lNgpCMSAgBBADKCKSkEgKQgIASSlp8ROQSAGBIQAYgBVVAoCSUFACCApPSV2CgIxICAEEAOoolIQSAoCQgBJ6SmxUxCIAQEhgBhAFZWCQFIQEAJISk+JnYJADAgIAcQAqqgUBJKCgBBAUnpK7BQEYkBACCAGUEWlIJAUBIQAktJTYqcgEAMCQgAxgCoqBYGkICAEkJSeEjsFgRgQEAKIAVRRKQgkBQEhgKT0lNgpCMSAgBBADKCKSkEgKQgIASSlp8ROQSAGBIQAYgBVVAoCSUFACCApPSV2CgIxICAEEAOoolIQSAoCQgBJ6SmxUxCIAQEhgBhAFZWCQFIQEAJISk+JnYJADAgIAcQAqqgUBJKCgBBAUnpK7BQEYkBACCAGUEWlIJAUBP4fFpvR04SvwSsAAAAASUVORK5CYII=;" vertex="1" parent="1">
          <mxGeometry x="599" y="645" width="50" height="50" as="geometry" />
        </mxCell>
        <mxCell id="ugtfvKyXgLZFdfxOpgOD-49" value="项目实战之前所学内容" style="text;html=1;align=center;verticalAlign=middle;resizable=0;points=[];autosize=1;strokeColor=none;fillColor=#66FFB3;fontFamily=Helvetica;fontSize=12;fontColor=#000000;labelBackgroundColor=none;fontStyle=1;shadow=1;glass=1;rounded=1;dashed=1;" vertex="1" parent="1">
          <mxGeometry x="359" y="655" width="140" height="30" as="geometry" />
        </mxCell>
        <mxCell id="ugtfvKyXgLZFdfxOpgOD-51" value="阶段1" style="text;html=1;align=center;verticalAlign=middle;resizable=0;points=[];autosize=1;strokeColor=none;fillColor=none;fontFamily=Helvetica;fontSize=16;fontColor=#FFFFFF;labelBackgroundColor=none;fontStyle=1" vertex="1" parent="1">
          <mxGeometry x="204" y="180" width="60" height="30" as="geometry" />
        </mxCell>
        <mxCell id="ugtfvKyXgLZFdfxOpgOD-52" value="阶段2" style="text;html=1;align=center;verticalAlign=middle;resizable=0;points=[];autosize=1;strokeColor=none;fillColor=none;fontFamily=Helvetica;fontSize=16;fontColor=#FFFFFF;labelBackgroundColor=none;fontStyle=1" vertex="1" parent="1">
          <mxGeometry x="344" y="180" width="60" height="30" as="geometry" />
        </mxCell>
        <mxCell id="ugtfvKyXgLZFdfxOpgOD-53" value="阶段3" style="text;html=1;align=center;verticalAlign=middle;resizable=0;points=[];autosize=1;strokeColor=none;fillColor=none;fontFamily=Helvetica;fontSize=16;fontColor=#FFFFFF;labelBackgroundColor=none;fontStyle=1" vertex="1" parent="1">
          <mxGeometry x="539" y="180" width="60" height="30" as="geometry" />
        </mxCell>
        <mxCell id="ugtfvKyXgLZFdfxOpgOD-54" value="阶段4" style="text;html=1;align=center;verticalAlign=middle;resizable=0;points=[];autosize=1;strokeColor=none;fillColor=none;fontFamily=Helvetica;fontSize=16;fontColor=#FFFFFF;labelBackgroundColor=none;fontStyle=1" vertex="1" parent="1">
          <mxGeometry x="629" y="360" width="60" height="30" as="geometry" />
        </mxCell>
        <mxCell id="ugtfvKyXgLZFdfxOpgOD-55" value="阶段5" style="text;html=1;align=center;verticalAlign=middle;resizable=0;points=[];autosize=1;strokeColor=none;fillColor=none;fontFamily=Helvetica;fontSize=16;fontColor=#FFFFFF;labelBackgroundColor=none;fontStyle=1" vertex="1" parent="1">
          <mxGeometry x="419" y="340" width="60" height="30" as="geometry" />
        </mxCell>
        <mxCell id="ugtfvKyXgLZFdfxOpgOD-56" value="阶段6" style="text;html=1;align=center;verticalAlign=middle;resizable=0;points=[];autosize=1;strokeColor=none;fillColor=none;fontFamily=Helvetica;fontSize=16;fontColor=#FFFFFF;labelBackgroundColor=none;fontStyle=1" vertex="1" parent="1">
          <mxGeometry x="234" y="340" width="60" height="30" as="geometry" />
        </mxCell>
        <mxCell id="ugtfvKyXgLZFdfxOpgOD-57" value="阶段8" style="text;html=1;align=center;verticalAlign=middle;resizable=0;points=[];autosize=1;strokeColor=none;fillColor=none;fontFamily=Helvetica;fontSize=16;fontColor=default;labelBackgroundColor=default;fontStyle=1" vertex="1" parent="1">
          <mxGeometry x="444" y="480" width="60" height="30" as="geometry" />
        </mxCell>
        <mxCell id="ugtfvKyXgLZFdfxOpgOD-58" value="阶段7" style="text;html=1;align=center;verticalAlign=middle;resizable=0;points=[];autosize=1;strokeColor=none;fillColor=none;fontFamily=Helvetica;fontSize=16;fontColor=#FFFFFF;labelBackgroundColor=none;fontStyle=1" vertex="1" parent="1">
          <mxGeometry x="129" y="580" width="60" height="30" as="geometry" />
        </mxCell>
        <mxCell id="ugtfvKyXgLZFdfxOpgOD-59" value="阶段9" style="text;html=1;align=center;verticalAlign=middle;resizable=0;points=[];autosize=1;strokeColor=none;fillColor=none;fontFamily=Helvetica;fontSize=16;fontColor=#FFFFFF;labelBackgroundColor=none;fontStyle=1" vertex="1" parent="1">
          <mxGeometry x="594" y="440" width="60" height="30" as="geometry" />
        </mxCell>
        <mxCell id="ugtfvKyXgLZFdfxOpgOD-60" value="阶段10" style="text;html=1;align=center;verticalAlign=middle;resizable=0;points=[];autosize=1;strokeColor=none;fillColor=none;fontFamily=Helvetica;fontSize=16;fontColor=#FFFFFF;labelBackgroundColor=none;fontStyle=1" vertex="1" parent="1">
          <mxGeometry x="629" y="610" width="70" height="30" as="geometry" />
        </mxCell>
        <mxCell id="ugtfvKyXgLZFdfxOpgOD-61" value="阶段11" style="text;html=1;align=center;verticalAlign=middle;resizable=0;points=[];autosize=1;strokeColor=none;fillColor=none;fontFamily=Helvetica;fontSize=16;fontColor=#FFFFFF;labelBackgroundColor=none;fontStyle=1" vertex="1" parent="1">
          <mxGeometry x="394" y="625" width="70" height="30" as="geometry" />
        </mxCell>
        <mxCell id="ugtfvKyXgLZFdfxOpgOD-62" value="全栈开发学习阶段" style="text;html=1;align=center;verticalAlign=middle;resizable=0;points=[];autosize=1;strokeColor=none;fillColor=none;fontFamily=Helvetica;fontSize=25;fontColor=#FFFFFF;labelBackgroundColor=none;fontStyle=1" vertex="1" parent="1">
          <mxGeometry x="304" y="105" width="220" height="40" as="geometry" />
        </mxCell>
      </root>
    </mxGraphModel>
  </diagram>
</mxfile>
